<svg xmlns="http://www.w3.org/2000/svg" width="83.711" height="85.468" viewBox="0 0 83.711 85.468">
  <g id="noun-check-3612574" transform="translate(-70.047 -5.797)">
    <path id="Trazado_16" data-name="Trazado 16" d="M278.335,203.186a3.421,3.421,0,0,0-2.421-1.008,3.387,3.387,0,0,0-2.421,1.008L259.176,217.43l-4.585-4.618a3.426,3.426,0,0,0-4.874,4.817l7.006,7.056a3.421,3.421,0,0,0,4.841.008l16.756-16.656a3.449,3.449,0,0,0,.025-4.833Z" transform="translate(-151.693 -166.713)"/>
    <path id="Trazado_17" data-name="Trazado 17" d="M155.428,31.112A41.608,41.608,0,0,0,133.377,9.061,41.049,41.049,0,0,0,117.266,5.8a41.421,41.421,0,1,0,41.417,41.425,41.039,41.039,0,0,0-3.255-16.111ZM117.266,81.79a34.567,34.567,0,1,1,34.567-34.567A34.608,34.608,0,0,1,117.266,81.79Z" transform="translate(-4.925 0)"/>
    <g id="Grupo_79" data-name="Grupo 79" transform="translate(70.061 90.456)">
      <path id="Trazado_18" data-name="Trazado 18" d="M.4-1.741a.142.142,0,0,1-.045.017.233.233,0,0,1-.047,0,.171.171,0,0,1-.12-.04.156.156,0,0,1-.042-.116.153.153,0,0,1,.042-.113A.167.167,0,0,1,.3-2.031a.15.15,0,0,1,.047.007A.179.179,0,0,1,.4-2.008v.061a.179.179,0,0,0-.042-.021.143.143,0,0,0-.045-.007.078.078,0,0,0-.064.028.1.1,0,0,0-.024.071A.112.112,0,0,0,.244-1.8a.079.079,0,0,0,.064.026.143.143,0,0,0,.045-.007A.179.179,0,0,0,.4-1.8Z" transform="translate(-0.141 2.031)"/>
    </g>
    <g id="Grupo_80" data-name="Grupo 80" transform="translate(70.379 90.531)">
      <path id="Trazado_19" data-name="Trazado 19" d="M.4-1.465a.047.047,0,0,0-.019,0l-.019,0a.057.057,0,0,0-.045.019.075.075,0,0,0-.014.05v.1H.234v-.227H.305v.038a.1.1,0,0,1,.031-.031.083.083,0,0,1,.045-.012H.388l.014,0Z" transform="translate(-0.234 1.531)"/>
    </g>
    <g id="Grupo_81" data-name="Grupo 81" transform="translate(70.566 90.531)">
      <path id="Trazado_20" data-name="Trazado 20" d="M.366-1.413v.021H.2a.057.057,0,0,0,.017.038.072.072,0,0,0,.045.012.167.167,0,0,0,.047-.007.38.38,0,0,0,.05-.019v.054A.3.3,0,0,1,.3-1.3a.315.315,0,0,1-.052,0,.132.132,0,0,1-.094-.031.111.111,0,0,1-.033-.087A.109.109,0,0,1,.158-1.5.125.125,0,0,1,.25-1.531.109.109,0,0,1,.333-1.5a.112.112,0,0,1,.033.085ZM.293-1.437A.046.046,0,0,0,.281-1.47a.041.041,0,0,0-.033-.014.05.05,0,0,0-.033.012A.05.05,0,0,0,.2-1.437Z" transform="translate(-0.125 1.531)"/>
    </g>
    <g id="Grupo_82" data-name="Grupo 82" transform="translate(70.846 90.531)">
      <path id="Trazado_21" data-name="Trazado 21" d="M.243-1.4a.069.069,0,0,0-.035.007A.025.025,0,0,0,.2-1.371a.024.024,0,0,0,.009.021.041.041,0,0,0,.026.007.041.041,0,0,0,.033-.014.051.051,0,0,0,.014-.038V-1.4ZM.352-1.43v.13H.278v-.033A.085.085,0,0,1,.245-1.3.11.11,0,0,1,.2-1.3a.08.08,0,0,1-.057-.019.073.073,0,0,1-.021-.054.061.061,0,0,1,.026-.057.156.156,0,0,1,.085-.019H.278v-.007a.025.025,0,0,0-.014-.024.069.069,0,0,0-.04-.009.218.218,0,0,0-.045,0,.158.158,0,0,0-.035.014v-.054a.257.257,0,0,1,.047-.009l.045,0a.132.132,0,0,1,.087.024.1.1,0,0,1,.028.078Z" transform="translate(-0.125 1.531)"/>
    </g>
    <g id="Grupo_83" data-name="Grupo 83" transform="translate(71.11 90.472)">
      <path id="Trazado_22" data-name="Trazado 22" d="M.14-1.922v.064H.215v.052H.14v.1a.035.035,0,0,0,0,.021.046.046,0,0,0,.026,0H.208v.052H.147a.091.091,0,0,1-.061-.017.091.091,0,0,1-.017-.061v-.1H.031v-.052H.069v-.064Z" transform="translate(-0.031 1.922)"/>
    </g>
    <g id="Grupo_84" data-name="Grupo 84" transform="translate(71.322 90.531)">
      <path id="Trazado_23" data-name="Trazado 23" d="M.366-1.413v.021H.2a.057.057,0,0,0,.017.038.072.072,0,0,0,.045.012.167.167,0,0,0,.047-.007.38.38,0,0,0,.05-.019v.054A.3.3,0,0,1,.3-1.3a.315.315,0,0,1-.052,0,.132.132,0,0,1-.094-.031.111.111,0,0,1-.033-.087A.109.109,0,0,1,.158-1.5.125.125,0,0,1,.25-1.531.109.109,0,0,1,.333-1.5a.112.112,0,0,1,.033.085ZM.293-1.437A.046.046,0,0,0,.281-1.47a.041.041,0,0,0-.033-.014.05.05,0,0,0-.033.012A.05.05,0,0,0,.2-1.437Z" transform="translate(-0.125 1.531)"/>
    </g>
    <g id="Grupo_85" data-name="Grupo 85" transform="translate(71.602 90.448)">
      <path id="Trazado_24" data-name="Trazado 24" d="M.295-1.958v-.12H.368v.314H.295V-1.8a.105.105,0,0,1-.035.031.1.1,0,0,1-.04.007.085.085,0,0,1-.068-.033.13.13,0,0,1-.026-.085.133.133,0,0,1,.026-.085A.087.087,0,0,1,.219-2a.086.086,0,0,1,.04.009.129.129,0,0,1,.035.028Zm-.047.146a.038.038,0,0,0,.033-.017.073.073,0,0,0,.014-.05.072.072,0,0,0-.014-.047.038.038,0,0,0-.033-.019.039.039,0,0,0-.035.019A.079.079,0,0,0,.2-1.877a.081.081,0,0,0,.012.05A.04.04,0,0,0,.248-1.811Z" transform="translate(-0.125 2.078)"/>
    </g>
    <g id="Grupo_86" data-name="Grupo 86" transform="translate(72.058 90.448)">
      <path id="Trazado_25" data-name="Trazado 25" d="M.355-1.811a.038.038,0,0,0,.033-.017A.073.073,0,0,0,.4-1.877a.072.072,0,0,0-.014-.047.038.038,0,0,0-.033-.019.045.045,0,0,0-.038.019.079.079,0,0,0-.012.047.081.081,0,0,0,.012.05A.046.046,0,0,0,.355-1.811Zm-.05-.146a.13.13,0,0,1,.033-.028A.1.1,0,0,1,.381-2a.084.084,0,0,1,.068.033.136.136,0,0,1,.026.085.134.134,0,0,1-.026.085.082.082,0,0,1-.068.033.119.119,0,0,1-.042-.007A.105.105,0,0,1,.305-1.8v.033H.234v-.314H.305Z" transform="translate(-0.234 2.078)"/>
    </g>
    <g id="Grupo_87" data-name="Grupo 87" transform="translate(72.323 90.536)">
      <path id="Trazado_26" data-name="Trazado 26" d="M.031-1.5H.1l.059.153L.215-1.5H.289l-.094.248A.106.106,0,0,1,.159-1.2a.076.076,0,0,1-.05.017H.069v-.047H.09a.037.037,0,0,0,.026-.007A.037.037,0,0,0,.13-1.259l0,0Z" transform="translate(-0.031 1.5)"/>
    </g>
    <g id="Grupo_88" data-name="Grupo 88" transform="translate(72.753 90.531)">
      <path id="Trazado_27" data-name="Trazado 27" d="M.329-1.519v.057a.179.179,0,0,0-.045-.017.2.2,0,0,0-.04,0,.058.058,0,0,0-.031.007A.016.016,0,0,0,.2-1.463a.015.015,0,0,0,.007.014.06.06,0,0,0,.028.007l.012,0a.156.156,0,0,1,.076.024.059.059,0,0,1,.019.05.061.061,0,0,1-.028.054A.147.147,0,0,1,.24-1.3a.251.251,0,0,1-.047,0,.216.216,0,0,1-.047-.009v-.054a.141.141,0,0,0,.042.017.21.21,0,0,0,.047,0,.068.068,0,0,0,.031,0,.021.021,0,0,0,.012-.019A.017.017,0,0,0,.27-1.38.089.089,0,0,0,.24-1.387l-.012,0a.121.121,0,0,1-.068-.021.06.06,0,0,1-.019-.05.059.059,0,0,1,.024-.052A.128.128,0,0,1,.24-1.531a.208.208,0,0,1,.042,0l.047.007Z" transform="translate(-0.141 1.531)"/>
    </g>
    <g id="Grupo_89" data-name="Grupo 89" transform="translate(73.013 90.448)">
      <path id="Trazado_28" data-name="Trazado 28" d="M.461-1.9v.137H.388v-.1a.256.256,0,0,0,0-.04.078.078,0,0,0,0-.019.026.026,0,0,0-.012-.009.032.032,0,0,0-.017,0,.045.045,0,0,0-.038.019.079.079,0,0,0-.012.047v.111H.234v-.314H.305v.12a.114.114,0,0,1,.035-.028A.093.093,0,0,1,.381-2a.073.073,0,0,1,.059.024A.1.1,0,0,1,.461-1.9Z" transform="translate(-0.234 2.078)"/>
    </g>
    <g id="Grupo_90" data-name="Grupo 90" transform="translate(73.304 90.536)">
      <path id="Trazado_29" data-name="Trazado 29" d="M.219-1.361V-1.5H.29v.146A.025.025,0,0,0,.3-1.337a.038.038,0,0,0,.012.012.047.047,0,0,0,.017,0,.038.038,0,0,0,.033-.017.069.069,0,0,0,.014-.047V-1.5H.445v.227H.372v-.033a.105.105,0,0,1-.035.031A.1.1,0,0,1,.3-1.269a.077.077,0,0,1-.061-.024.1.1,0,0,1-.019-.068Z" transform="translate(-0.219 1.5)"/>
    </g>
    <g id="Grupo_91" data-name="Grupo 91" transform="translate(73.585 90.531)">
      <path id="Trazado_30" data-name="Trazado 30" d="M.243-1.4a.069.069,0,0,0-.035.007A.025.025,0,0,0,.2-1.371a.024.024,0,0,0,.009.021.041.041,0,0,0,.026.007.041.041,0,0,0,.033-.014.051.051,0,0,0,.014-.038V-1.4ZM.352-1.43v.13H.278v-.033A.085.085,0,0,1,.245-1.3.11.11,0,0,1,.2-1.3a.08.08,0,0,1-.057-.019.073.073,0,0,1-.021-.054.061.061,0,0,1,.026-.057.156.156,0,0,1,.085-.019H.278v-.007a.025.025,0,0,0-.014-.024.069.069,0,0,0-.04-.009.218.218,0,0,0-.045,0,.158.158,0,0,0-.035.014v-.054a.257.257,0,0,1,.047-.009l.045,0a.132.132,0,0,1,.087.024.1.1,0,0,1,.028.078Z" transform="translate(-0.125 1.531)"/>
    </g>
    <g id="Grupo_92" data-name="Grupo 92" transform="translate(73.88 90.448)">
      <path id="Trazado_31" data-name="Trazado 31" d="M.234-1.991H.305v.227H.234Zm0-.087H.305v.059H.234Z" transform="translate(-0.234 2.078)"/>
    </g>
    <g id="Grupo_93" data-name="Grupo 93" transform="translate(74.135 90.472)">
      <path id="Trazado_32" data-name="Trazado 32" d="M.14-1.922v.064H.215v.052H.14v.1a.035.035,0,0,0,0,.021.046.046,0,0,0,.026,0H.208v.052H.147a.091.091,0,0,1-.061-.017.091.091,0,0,1-.017-.061v-.1H.031v-.052H.069v-.064Z" transform="translate(-0.031 1.922)"/>
    </g>
    <g id="Grupo_94" data-name="Grupo 94" transform="translate(74.346 90.531)">
      <path id="Trazado_33" data-name="Trazado 33" d="M.243-1.4a.069.069,0,0,0-.035.007A.025.025,0,0,0,.2-1.371a.024.024,0,0,0,.009.021.041.041,0,0,0,.026.007.041.041,0,0,0,.033-.014.051.051,0,0,0,.014-.038V-1.4ZM.352-1.43v.13H.278v-.033A.085.085,0,0,1,.245-1.3.11.11,0,0,1,.2-1.3a.08.08,0,0,1-.057-.019.073.073,0,0,1-.021-.054.061.061,0,0,1,.026-.057.156.156,0,0,1,.085-.019H.278v-.007a.025.025,0,0,0-.014-.024.069.069,0,0,0-.04-.009.218.218,0,0,0-.045,0,.158.158,0,0,0-.035.014v-.054a.257.257,0,0,1,.047-.009l.045,0a.132.132,0,0,1,.087.024.1.1,0,0,1,.028.078Z" transform="translate(-0.125 1.531)"/>
    </g>
    <g id="Grupo_95" data-name="Grupo 95" transform="translate(74.62 90.536)">
      <path id="Trazado_34" data-name="Trazado 34" d="M.094-1.5H.165L.2-1.344.24-1.5H.3l.038.156L.377-1.5H.448l-.061.227H.309L.271-1.429l-.038.156H.153Z" transform="translate(-0.094 1.5)"/>
    </g>
    <g id="Grupo_96" data-name="Grupo 96" transform="translate(74.995 90.448)">
      <path id="Trazado_35" data-name="Trazado 35" d="M.224-2.078v.047H.184a.032.032,0,0,0-.024.007A.026.026,0,0,0,.156-2v.014H.217v.052H.156v.175H.085v-.175H.047v-.052H.085V-2A.068.068,0,0,1,.1-2.059a.094.094,0,0,1,.064-.019Z" transform="translate(-0.047 2.078)"/>
    </g>
    <g id="Grupo_97" data-name="Grupo 97" transform="translate(70.047 90.862)">
      <path id="Trazado_36" data-name="Trazado 36" d="M.224-2.078v.047H.184a.032.032,0,0,0-.024.007A.026.026,0,0,0,.156-2v.014H.217v.052H.156v.175H.085v-.175H.047v-.052H.085V-2A.068.068,0,0,1,.1-2.059a.094.094,0,0,1,.064-.019Z" transform="translate(-0.047 2.078)"/>
    </g>
    <g id="Grupo_98" data-name="Grupo 98" transform="translate(70.255 90.944)">
      <path id="Trazado_37" data-name="Trazado 37" d="M.4-1.465a.047.047,0,0,0-.019,0l-.019,0a.057.057,0,0,0-.045.019.075.075,0,0,0-.014.05v.1H.234v-.227H.305v.038a.1.1,0,0,1,.031-.031.083.083,0,0,1,.045-.012H.388l.014,0Z" transform="translate(-0.234 1.531)"/>
    </g>
    <g id="Grupo_99" data-name="Grupo 99" transform="translate(70.442 90.944)">
      <path id="Trazado_38" data-name="Trazado 38" d="M.248-1.479a.048.048,0,0,0-.038.017.083.083,0,0,0-.012.05.093.093,0,0,0,.012.052.046.046,0,0,0,.038.017.041.041,0,0,0,.035-.017A.084.084,0,0,0,.3-1.413a.075.075,0,0,0-.014-.05A.043.043,0,0,0,.248-1.479Zm0-.052A.126.126,0,0,1,.34-1.5a.112.112,0,0,1,.033.085.113.113,0,0,1-.033.087A.131.131,0,0,1,.248-1.3a.129.129,0,0,1-.092-.031.117.117,0,0,1-.031-.087A.115.115,0,0,1,.156-1.5.125.125,0,0,1,.248-1.531Z" transform="translate(-0.125 1.531)"/>
    </g>
    <g id="Grupo_100" data-name="Grupo 100" transform="translate(70.743 90.944)">
      <path id="Trazado_39" data-name="Trazado 39" d="M.442-1.489a.086.086,0,0,1,.033-.031.079.079,0,0,1,.042-.012.077.077,0,0,1,.059.024A.1.1,0,0,1,.6-1.437V-1.3H.525v-.132a.058.058,0,0,0-.007-.033.026.026,0,0,0-.024-.012.036.036,0,0,0-.031.017.083.083,0,0,0-.012.05V-1.3H.378v-.118a.1.1,0,0,0-.007-.047A.021.021,0,0,0,.35-1.477a.037.037,0,0,0-.033.019.079.079,0,0,0-.012.047V-1.3H.234v-.227H.305v.033a.106.106,0,0,1,.031-.028.087.087,0,0,1,.038-.009.07.07,0,0,1,.04.012.083.083,0,0,1,.028.031Z" transform="translate(-0.234 1.531)"/>
    </g>
    <g id="Grupo_101" data-name="Grupo 101" transform="translate(71.286 90.885)">
      <path id="Trazado_40" data-name="Trazado 40" d="M.14-1.922v.064H.215v.052H.14v.1a.035.035,0,0,0,0,.021.046.046,0,0,0,.026,0H.208v.052H.147a.091.091,0,0,1-.061-.017.091.091,0,0,1-.017-.061v-.1H.031v-.052H.069v-.064Z" transform="translate(-0.031 1.922)"/>
    </g>
    <g id="Grupo_102" data-name="Grupo 102" transform="translate(71.514 90.862)">
      <path id="Trazado_41" data-name="Trazado 41" d="M.461-1.9v.137H.388v-.1a.256.256,0,0,0,0-.04.078.078,0,0,0,0-.019.026.026,0,0,0-.012-.009.032.032,0,0,0-.017,0,.045.045,0,0,0-.038.019.079.079,0,0,0-.012.047v.111H.234v-.314H.305v.12a.114.114,0,0,1,.035-.028A.093.093,0,0,1,.381-2a.073.073,0,0,1,.059.024A.1.1,0,0,1,.461-1.9Z" transform="translate(-0.234 2.078)"/>
    </g>
    <g id="Grupo_103" data-name="Grupo 103" transform="translate(71.792 90.944)">
      <path id="Trazado_42" data-name="Trazado 42" d="M.366-1.413v.021H.2a.057.057,0,0,0,.017.038.072.072,0,0,0,.045.012.167.167,0,0,0,.047-.007.38.38,0,0,0,.05-.019v.054A.3.3,0,0,1,.3-1.3a.315.315,0,0,1-.052,0,.132.132,0,0,1-.094-.031.111.111,0,0,1-.033-.087A.109.109,0,0,1,.158-1.5.125.125,0,0,1,.25-1.531.109.109,0,0,1,.333-1.5a.112.112,0,0,1,.033.085ZM.293-1.437A.046.046,0,0,0,.281-1.47a.041.041,0,0,0-.033-.014.05.05,0,0,0-.033.012A.05.05,0,0,0,.2-1.437Z" transform="translate(-0.125 1.531)"/>
    </g>
    <g id="Grupo_104" data-name="Grupo 104" transform="translate(72.235 90.873)">
      <path id="Trazado_43" data-name="Trazado 43" d="M.25-2H.337l.109.208V-2H.519v.3H.434L.323-1.906V-1.7H.25Z" transform="translate(-0.25 2)"/>
    </g>
    <g id="Grupo_105" data-name="Grupo 105" transform="translate(72.562 90.944)">
      <path id="Trazado_44" data-name="Trazado 44" d="M.248-1.479a.048.048,0,0,0-.038.017.083.083,0,0,0-.012.05.093.093,0,0,0,.012.052.046.046,0,0,0,.038.017.041.041,0,0,0,.035-.017A.084.084,0,0,0,.3-1.413a.075.075,0,0,0-.014-.05A.043.043,0,0,0,.248-1.479Zm0-.052A.126.126,0,0,1,.34-1.5a.112.112,0,0,1,.033.085.113.113,0,0,1-.033.087A.131.131,0,0,1,.248-1.3a.129.129,0,0,1-.092-.031.117.117,0,0,1-.031-.087A.115.115,0,0,1,.156-1.5.125.125,0,0,1,.248-1.531Z" transform="translate(-0.125 1.531)"/>
    </g>
    <g id="Grupo_106" data-name="Grupo 106" transform="translate(72.86 90.949)">
      <path id="Trazado_45" data-name="Trazado 45" d="M.219-1.361V-1.5H.29v.146A.025.025,0,0,0,.3-1.337a.038.038,0,0,0,.012.012.047.047,0,0,0,.017,0,.038.038,0,0,0,.033-.017.069.069,0,0,0,.014-.047V-1.5H.445v.227H.372v-.033a.105.105,0,0,1-.035.031A.1.1,0,0,1,.3-1.269a.077.077,0,0,1-.061-.024.1.1,0,0,1-.019-.068Z" transform="translate(-0.219 1.5)"/>
    </g>
    <g id="Grupo_107" data-name="Grupo 107" transform="translate(73.156 90.944)">
      <path id="Trazado_46" data-name="Trazado 46" d="M.461-1.437V-1.3H.388v-.106a.231.231,0,0,0,0-.038.078.078,0,0,0,0-.019.026.026,0,0,0-.012-.009.032.032,0,0,0-.017,0,.045.045,0,0,0-.038.019.079.079,0,0,0-.012.047V-1.3H.234v-.227H.305v.033a.114.114,0,0,1,.035-.028.093.093,0,0,1,.04-.009.073.073,0,0,1,.059.024.1.1,0,0,1,.021.071Z" transform="translate(-0.234 1.531)"/>
    </g>
    <g id="Grupo_108" data-name="Grupo 108" transform="translate(73.596 90.873)">
      <path id="Trazado_47" data-name="Trazado 47" d="M.25-2H.38a.133.133,0,0,1,.087.026A.093.093,0,0,1,.5-1.9a.091.091,0,0,1-.031.073A.13.13,0,0,1,.38-1.8H.328v.1H.25Zm.078.057v.085H.37a.056.056,0,0,0,.035-.009A.045.045,0,0,0,.418-1.9a.038.038,0,0,0-.012-.031A.05.05,0,0,0,.37-1.943Z" transform="translate(-0.25 2)"/>
    </g>
    <g id="Grupo_109" data-name="Grupo 109" transform="translate(73.896 90.944)">
      <path id="Trazado_48" data-name="Trazado 48" d="M.4-1.465a.047.047,0,0,0-.019,0l-.019,0a.057.057,0,0,0-.045.019.075.075,0,0,0-.014.05v.1H.234v-.227H.305v.038a.1.1,0,0,1,.031-.031.083.083,0,0,1,.045-.012H.388l.014,0Z" transform="translate(-0.234 1.531)"/>
    </g>
    <g id="Grupo_110" data-name="Grupo 110" transform="translate(74.084 90.944)">
      <path id="Trazado_49" data-name="Trazado 49" d="M.248-1.479a.048.048,0,0,0-.038.017.083.083,0,0,0-.012.05.093.093,0,0,0,.012.052.046.046,0,0,0,.038.017.041.041,0,0,0,.035-.017A.084.084,0,0,0,.3-1.413a.075.075,0,0,0-.014-.05A.043.043,0,0,0,.248-1.479Zm0-.052A.126.126,0,0,1,.34-1.5a.112.112,0,0,1,.033.085.113.113,0,0,1-.033.087A.131.131,0,0,1,.248-1.3a.129.129,0,0,1-.092-.031.117.117,0,0,1-.031-.087A.115.115,0,0,1,.156-1.5.125.125,0,0,1,.248-1.531Z" transform="translate(-0.125 1.531)"/>
    </g>
    <g id="Grupo_111" data-name="Grupo 111" transform="translate(74.334 90.862)">
      <path id="Trazado_50" data-name="Trazado 50" d="M-.044-1.991H.027v.222A.1.1,0,0,1,.005-1.7a.083.083,0,0,1-.064.024H-.094v-.047h.012a.035.035,0,0,0,.028-.009.057.057,0,0,0,.009-.038Zm0-.087H.027v.059H-.044Z" transform="translate(0.094 2.078)"/>
    </g>
    <g id="Grupo_112" data-name="Grupo 112" transform="translate(74.509 90.944)">
      <path id="Trazado_51" data-name="Trazado 51" d="M.366-1.413v.021H.2a.057.057,0,0,0,.017.038.072.072,0,0,0,.045.012.167.167,0,0,0,.047-.007.38.38,0,0,0,.05-.019v.054A.3.3,0,0,1,.3-1.3a.315.315,0,0,1-.052,0,.132.132,0,0,1-.094-.031.111.111,0,0,1-.033-.087A.109.109,0,0,1,.158-1.5.125.125,0,0,1,.25-1.531.109.109,0,0,1,.333-1.5a.112.112,0,0,1,.033.085ZM.293-1.437A.046.046,0,0,0,.281-1.47a.041.041,0,0,0-.033-.014.05.05,0,0,0-.033.012A.05.05,0,0,0,.2-1.437Z" transform="translate(-0.125 1.531)"/>
    </g>
    <g id="Grupo_113" data-name="Grupo 113" transform="translate(74.789 90.944)">
      <path id="Trazado_52" data-name="Trazado 52" d="M.323-1.519v.059a.145.145,0,0,0-.031-.014.1.1,0,0,0-.031,0,.065.065,0,0,0-.047.019A.064.064,0,0,0,.2-1.413a.074.074,0,0,0,.017.052.068.068,0,0,0,.047.017.1.1,0,0,0,.033,0,.132.132,0,0,0,.028-.017v.059A.142.142,0,0,1,.288-1.3l-.033,0a.141.141,0,0,1-.1-.031.111.111,0,0,1-.033-.087A.109.109,0,0,1,.158-1.5a.136.136,0,0,1,.1-.033.131.131,0,0,1,.033,0l.035.007Z" transform="translate(-0.125 1.531)"/>
    </g>
    <g id="Grupo_114" data-name="Grupo 114" transform="translate(75.02 90.885)">
      <path id="Trazado_53" data-name="Trazado 53" d="M.14-1.922v.064H.215v.052H.14v.1a.035.035,0,0,0,0,.021.046.046,0,0,0,.026,0H.208v.052H.147a.091.091,0,0,1-.061-.017.091.091,0,0,1-.017-.061v-.1H.031v-.052H.069v-.064Z" transform="translate(-0.031 1.922)"/>
    </g>
  </g>
</svg>
