<svg xmlns="http://www.w3.org/2000/svg" width="83.711" height="88.555" viewBox="0 0 83.711 88.555">
  <path id="Trazado_75" data-name="Trazado 75" d="M86.788,181.336a.035.035,0,0,1-.039.039H86.71v.039h-.078v.039h-.039l-.039.039h-.039l-.039.039a.3.3,0,0,1-.117.039l-.039.039h-.078a.035.035,0,0,1-.039.039.159.159,0,0,1-.117.039.035.035,0,0,0-.039.039h-.078v.039a.642.642,0,0,0-.2.039.035.035,0,0,0-.039.039h-.078a.347.347,0,0,1-.156.039v.039h-.117a.159.159,0,0,1-.117.039h-.039a.347.347,0,0,1-.156.039.035.035,0,0,0-.039.039h-.078a.347.347,0,0,0-.156.039H84.64a.347.347,0,0,0-.156.039l-.625,24.844-.625-24.844h-.039l-.039-.039h-.234a.035.035,0,0,1-.039-.039h-.2a.035.035,0,0,0-.039-.039H82.53l-.039-.039h-.156v-.039h-.117l-.039-.039H82.1a.035.035,0,0,1-.039-.039h-.117V181.8h-.039a.113.113,0,0,1-.078-.039h-.078a.113.113,0,0,0-.078-.039.035.035,0,0,1-.039-.039h-.078l-.039-.039h-.039l-.039-.039h-.078a.113.113,0,0,0-.078-.039.035.035,0,0,0-.039-.039H81.2a.035.035,0,0,0-.039-.039h-.039v-.039h-.039a.035.035,0,0,1-.039-.039h-.039l-.039-.039h-.039v-.039h-.078V181.3h-.039l-.039-.039h-.039l-.039-.039h-.039v-.039h-.039l-.039-.039h-.039a.035.035,0,0,0-.039-.039.035.035,0,0,1-.039-.039.035.035,0,0,1-.039-.039h-.039v-.039H80.3a.035.035,0,0,0-.039-.039.035.035,0,0,0-.039-.039l-.039-.039-.039-.039h-.039v-.039a.035.035,0,0,1-.039-.039H80.03l-7.07,6.367,6.367-7.07v-.039a.035.035,0,0,1-.039-.039h-.039v-.039H79.21v-.039l-.039-.039a.035.035,0,0,0-.039-.039.035.035,0,0,0-.039-.039v-.039l-.039-.039v-.039h-.039v-.039l-.039-.039a.035.035,0,0,0-.039-.039V179.5l-.039-.039v-.039a.035.035,0,0,1-.039-.039l-.039-.039V179.3a.035.035,0,0,1-.039-.039l-.039-.039v-.039l-.039-.039v-.039a.035.035,0,0,1-.039-.039v-.039a.035.035,0,0,1-.039-.039.113.113,0,0,1-.039-.078v-.039a.035.035,0,0,1-.039-.039.159.159,0,0,1-.039-.117h-.039v-.078l-.039-.039a.347.347,0,0,1-.039-.156h-.039v-.078a.035.035,0,0,0-.039-.039.347.347,0,0,0-.039-.156v-.039h-.039v-.078a.347.347,0,0,1-.039-.156l-.039-.039v-.117a.113.113,0,0,1-.039-.078v-.039a.347.347,0,0,1-.039-.156v-.039l-.039-.039v-.039a.435.435,0,0,0-.039-.2v-.117a.347.347,0,0,0-.039-.156v-.039l-24.844-.625,24.844-.625a.035.035,0,0,1,.039-.039v-.273l.039-.039v-.2h.039v-.117a.113.113,0,0,1,.039-.078v-.117l.039-.039v-.078a.035.035,0,0,1,.039-.039V174.5a.113.113,0,0,1,.039-.078v-.078h.039v-.078a.035.035,0,0,1,.039-.039v-.117a.113.113,0,0,0,.039-.078l.039-.039v-.039a.113.113,0,0,0,.039-.078v-.039h.039v-.078a.113.113,0,0,0,.039-.078l.039-.039V173.6h.039v-.078h.039v-.078l.039-.039a.035.035,0,0,1,.039-.039v-.039a.035.035,0,0,1,.039-.039v-.039a.035.035,0,0,1,.039-.039v-.039h.039v-.078h.039v-.039H78.9v-.039a.035.035,0,0,1,.039-.039v-.039l.039-.039a.113.113,0,0,1,.039-.078l.039-.039a.035.035,0,0,1,.039-.039V172.7l.039-.039a.113.113,0,0,0,.039-.078.035.035,0,0,0,.039-.039.035.035,0,0,0,.039-.039.035.035,0,0,0,.039-.039l.039-.039v-.039l-6.367-7.031,7.07,6.367.039-.039.039-.039h.039v-.039h.039v-.039h.039l.039-.039.039-.039a.035.035,0,0,0,.039-.039h.039l.039-.039a.035.035,0,0,0,.039-.039H80.5v-.039h.039a.035.035,0,0,0,.039-.039h.039l.039-.039h.039a.035.035,0,0,1,.039-.039l.039-.039h.039v-.039h.039a.035.035,0,0,0,.039-.039h.039l.039-.039h.039l.039-.039h.039v-.039h.078a.035.035,0,0,1,.039-.039h.039a.454.454,0,0,1,.117-.078.035.035,0,0,0,.039-.039h.078l.156-.078h.039v-.039h.078l.156-.078h.117v-.039a.347.347,0,0,0,.156-.039h.039a.3.3,0,0,0,.117-.039h.078a.035.035,0,0,1,.039-.039.347.347,0,0,0,.156-.039h.117a.642.642,0,0,1,.2-.039H83l.039-.039h.2l.625-24.883.625,24.883h.2v.039h.2a.035.035,0,0,1,.039.039h.156a.035.035,0,0,1,.039.039h.156v.039h.156v.039h.117l.039.039h.078a.035.035,0,0,1,.039.039h.078l.039.039h.039a.113.113,0,0,1,.078.039h.078v.039h.078l.039.039H86.2a.035.035,0,0,0,.039.039h.039v.039h.039a.113.113,0,0,1,.078.039.035.035,0,0,1,.039.039h.078a.035.035,0,0,0,.039.039h.039l.039.039h.039v.039h.078v.039h.078v.039h.039v.039h.078a.035.035,0,0,0,.039.039h.039v.039h.039v.039H87.1a.035.035,0,0,1,.039.039h.039l.078.078H87.3v.039h.039l.039.039a.035.035,0,0,1,.039.039.113.113,0,0,1,.078.039l.039.039a.035.035,0,0,1,.039.039h.039a.035.035,0,0,0,.039.039v.039h.039l7.031-6.367-6.367,7.031v.039h.039a.035.035,0,0,0,.039.039v.039l.039.039a.035.035,0,0,0,.039.039.035.035,0,0,0,.039.039v.039a.035.035,0,0,1,.039.039l.039.039a.035.035,0,0,0,.039.039v.039l.039.039.039.039v.039h.039v.039l.039.039a.035.035,0,0,0,.039.039v.078H88.9v.039l.039.039a.113.113,0,0,0,.039.078v.039a.035.035,0,0,1,.039.039v.039a.035.035,0,0,1,.039.039.035.035,0,0,0,.039.039v.039l.039.039v.039a.455.455,0,0,0,.078.117v.039l.039.039v.078a.455.455,0,0,1,.078.117v.078h.039v.039a1.515,1.515,0,0,1,.078.2v.078a.035.035,0,0,1,.039.039.347.347,0,0,0,.039.156v.039a.113.113,0,0,1,.039.078v.117H89.6v.039a.347.347,0,0,0,.039.156v.117a.347.347,0,0,1,.039.156v.117a.035.035,0,0,1,.039.039v.156l24.883.625-24.883.625v.2a.035.035,0,0,0-.039.039v.2l-.039.039v.156l-.039.039v.156a.035.035,0,0,0-.039.039v.078a.035.035,0,0,1-.039.039v.117a.035.035,0,0,0-.039.039v.078h-.039v.078a.035.035,0,0,1-.039.039v.078a.035.035,0,0,1-.039.039v.039a.113.113,0,0,1-.039.078v.039a.113.113,0,0,1-.039.078v.039l-.039.039v.039a.035.035,0,0,1-.039.039v.039a.113.113,0,0,1-.039.078v.039a.035.035,0,0,0-.039.039v.039h-.039v.078h-.039v.078h-.039v.039l-.039.039v.039h-.039v.039a.035.035,0,0,1-.039.039v.039l-.039.039v.039a.035.035,0,0,0-.039.039.035.035,0,0,1-.039.039v.039l-.039.039v.039a.113.113,0,0,1-.078.039v.039l-.039.039v.039a.035.035,0,0,0-.039.039l-.039.039-.039.039a.035.035,0,0,1-.039.039.113.113,0,0,1-.039.078l-.039.039-.039.039,6.367,7.07-7.031-6.367h-.039l-.039.039a.035.035,0,0,0-.039.039H87.53v.039h-.039v.039h-.039l-.039.039-.039.039h-.039v.039H87.3a.035.035,0,0,0-.039.039h-.039v.039h-.039l-.039.039a.035.035,0,0,0-.039.039h-.039l-.039.039h-.039a.035.035,0,0,1-.039.039h-.039v.039h-.039v.039ZM61.007,200.594h-.039v.039h-.039l4.336,4.8-4.8-4.336v.039h-.039v.039h-.039l-.039.039a.035.035,0,0,0-.039.039h-.039v.039h-.039l-.039.039h-.039v.039h-.039a.035.035,0,0,1-.039.039.035.035,0,0,0-.039.039h-.039l-.039.039h-.039a.035.035,0,0,1-.039.039h-.039v.039h-.078v.039h-.039a.035.035,0,0,0-.039.039H59.64a.113.113,0,0,0-.078.039h-.039v.039h-.039a.159.159,0,0,1-.117.039.035.035,0,0,0-.039.039h-.039a.3.3,0,0,0-.117.039.035.035,0,0,0-.039.039h-.117l-.039.039H58.9a.035.035,0,0,0-.039.039H58.7l-.039.039h-.2v.039h-.156l-.43,16.992-.43-16.992h-.2V202h-.2l-.039-.039h-.117a.035.035,0,0,1-.039-.039h-.117l-.039-.039h-.117v-.039h-.078l-.039-.039h-.039a.113.113,0,0,1-.078-.039H56.32l-.039-.039H56.2v-.039h-.078l-.039-.039h-.039v-.039h-.078a.035.035,0,0,0-.039-.039H55.89v-.039h-.039l-.039-.039h-.039a.035.035,0,0,0-.039-.039h-.039v-.039h-.039l-.039-.039h-.039a.035.035,0,0,0-.039-.039L55.5,201.3H55.46v-.039h-.039a.035.035,0,0,0-.039-.039v-.039H55.3v-.039h-.039V201.1l-4.8,4.336,4.336-4.8h-.039v-.039h-.039v-.039a.035.035,0,0,0-.039-.039v-.039H54.64v-.039H54.6V200.4l-.039-.039v-.039h-.039v-.039l-.039-.039V200.2h-.039v-.039a.035.035,0,0,0-.039-.039v-.039l-.039-.039v-.039h-.039v-.078h-.039v-.039a.035.035,0,0,0-.039-.039v-.039a.113.113,0,0,0-.039-.078V199.7a.035.035,0,0,1-.039-.039.159.159,0,0,1-.039-.117V199.5h-.039v-.039a.3.3,0,0,0-.039-.117V199.3l-.039-.039v-.117h-.039v-.078a.113.113,0,0,0-.039-.078v-.117l-.039-.039v-.2h-.039v-.2l-16.992-.43,16.992-.43v-.156H53.9v-.2a.035.035,0,0,1,.039-.039v-.117a.035.035,0,0,1,.039-.039v-.117l.039-.039v-.117h.039v-.078l.039-.039v-.039a.035.035,0,0,1,.039-.039v-.117h.039v-.078h.039V196.3l.039-.039v-.039h.039v-.078a.035.035,0,0,0,.039-.039v-.039h.039v-.039a.035.035,0,0,1,.039-.039v-.039l.039-.039v-.039h.039v-.078h.039v-.039a.035.035,0,0,0,.039-.039l.039-.039v-.039h.039v-.039a.035.035,0,0,0,.039-.039l.039-.039v-.039h.039v-.039H54.8l-4.336-4.8,4.8,4.336v-.039H55.3v-.039h.039l.039-.039h.039v-.039h.039v-.039H55.5l.039-.039h.039V194.7h.039l.039-.039h.039v-.039h.039l.039-.039h.039l.039-.039h.039V194.5h.078v-.039h.039l.039-.039h.039a.113.113,0,0,1,.078-.039.035.035,0,0,0,.039-.039h.039a.159.159,0,0,1,.117-.039l.039-.039h.039a.159.159,0,0,1,.117-.039h.039v-.039h.039a.3.3,0,0,0,.117-.039h.078a.113.113,0,0,0,.078-.039.159.159,0,0,0,.117-.039h.2a.035.035,0,0,1,.039-.039h.2l.43-16.992.43,16.992h.2v.039h.2a.035.035,0,0,0,.039.039h.117l.039.039h.117v.039h.117a.035.035,0,0,0,.039.039h.078a.035.035,0,0,0,.039.039h.039a.035.035,0,0,1,.039.039h.078v.039h.078l.039.039H59.6l.039.039h.039l.039.039h.039l.039.039h.039a.035.035,0,0,0,.039.039h.039v.039h.078v.039h.039v.039h.078v.039h.039a.035.035,0,0,0,.039.039h.039v.039h.039v.039H60.3l.039.039h.039v.039h.039v.039h.039v.039l4.8-4.336-4.336,4.8h.039v.039h.039v.039a.035.035,0,0,1,.039.039l.039.039v.039h.039v.039l.039.039v.039H61.2v.039a.035.035,0,0,1,.039.039l.039.039v.039h.039v.078a.035.035,0,0,1,.039.039v.039H61.4v.039l.039.039v.039l.039.039v.039a.113.113,0,0,1,.039.078l.039.039v.039a.159.159,0,0,1,.039.117h.039v.078a.159.159,0,0,1,.039.117l.039.039v.039a.113.113,0,0,0,.039.078V197l.039.039v.039a.3.3,0,0,0,.039.117v.2h.039v.2l16.992.43-16.992.43v.2a.035.035,0,0,1-.039.039v.2a.035.035,0,0,0-.039.039v.117a.035.035,0,0,0-.039.039v.078a.035.035,0,0,1-.039.039v.117a.035.035,0,0,0-.039.039v.078a.035.035,0,0,0-.039.039v.039a.035.035,0,0,1-.039.039v.039a.035.035,0,0,1-.039.039v.078a.035.035,0,0,0-.039.039v.039l-.039.039v.039l-.039.039v.039l-.039.039v.039h-.039v.078H61.32v.078H61.28v.039h-.039v.039l-.039.039v.039a.035.035,0,0,0-.039.039v.039h-.039v.039h-.039v.039a.035.035,0,0,0-.039.039l-.039.039Zm45.117,18.594,3.516,3.867-3.906-3.516v.039a.035.035,0,0,0-.039.039h-.039v.039h-.039a.035.035,0,0,1-.039.039h-.039v.039H105.5v.039h-.039l-.039.039h-.039v.039H105.3v.039h-.039l-.039.039a.035.035,0,0,0-.039.039h-.078v.039h-.078l-.039.039h-.039a.113.113,0,0,1-.078.039h-.039v.039h-.078a.035.035,0,0,0-.039.039h-.078a.113.113,0,0,1-.078.039h-.039a.035.035,0,0,0-.039.039h-.156l-.039.039h-.2v.039h-.117l-.312,13.711-.352-13.711h-.117v-.039h-.234v-.039h-.117a.113.113,0,0,0-.078-.039h-.078l-.039-.039h-.078l-.039-.039h-.078a.035.035,0,0,0-.039-.039h-.039l-.039-.039H102.3l-.039-.039h-.039l-.039-.039h-.039a.035.035,0,0,1-.039-.039h-.039l-.039-.039h-.039v-.039h-.039a.035.035,0,0,1-.039-.039h-.039l-.039-.039h-.039a.035.035,0,0,0-.039-.039V219.7h-.039a.035.035,0,0,1-.039-.039h-.039v-.039h-.039a.035.035,0,0,0-.039-.039l-3.906,3.477,3.516-3.867v-.039h-.039v-.039h-.039v-.039h-.039v-.078h-.039v-.039h-.039v-.039a.035.035,0,0,1-.039-.039.035.035,0,0,0-.039-.039V218.8l-.039-.039v-.039h-.039v-.078a.035.035,0,0,1-.039-.039.035.035,0,0,0-.039-.039v-.078h-.039v-.039a.113.113,0,0,0-.039-.078.035.035,0,0,0-.039-.039v-.117h-.039v-.078l-.039-.039v-.117H100.5v-.156h-.039v-.156a.035.035,0,0,1-.039-.039v-.2l-13.711-.352,13.711-.352v-.2l.039-.039v-.156l.039-.039v-.117a.035.035,0,0,0,.039-.039v-.078l.039-.039v-.078a.035.035,0,0,0,.039-.039v-.039a.035.035,0,0,1,.039-.039v-.078h.039v-.078h.039v-.078a.035.035,0,0,0,.039-.039v-.039h.039v-.078h.039V215.4l.039-.039a.035.035,0,0,1,.039-.039v-.039l.039-.039a.035.035,0,0,1,.039-.039v-.039h.039v-.039a.035.035,0,0,1,.039-.039v-.039h.039a.035.035,0,0,1,.039-.039v-.039L97.648,211.1l3.906,3.516v-.039a.035.035,0,0,0,.039-.039h.039V214.5h.039a.035.035,0,0,1,.039-.039h.039v-.039h.039v-.039h.039l.039-.039h.039V214.3h.078v-.039h.039l.039-.039a.113.113,0,0,0,.078-.039h.039v-.039h.078l.039-.039h.039a.113.113,0,0,1,.078-.039h.039v-.039h.078a.035.035,0,0,0,.039-.039h.078a.113.113,0,0,1,.078-.039h.039a.113.113,0,0,0,.078-.039h.117l.039-.039h.2v-.039h.117l.352-13.711.313,13.711h.117v.039h.234v.039h.156a.035.035,0,0,0,.039.039h.078l.039.039h.078a.035.035,0,0,0,.039.039h.078a.035.035,0,0,0,.039.039h.039l.039.039h.039l.039.039h.039l.039.039h.039a.035.035,0,0,1,.039.039h.039l.039.039h.039v.039h.039a.035.035,0,0,1,.039.039h.039l.039.039h.039a.035.035,0,0,0,.039.039v.039h.039a.035.035,0,0,1,.039.039h.039v.039h.039a.035.035,0,0,0,.039.039l3.906-3.477-3.516,3.867v.039h.039v.039h.039v.039h.039v.039l.039.039v.039h.039v.039a.035.035,0,0,1,.039.039.035.035,0,0,0,.039.039v.039h.039v.078h.039v.078a.035.035,0,0,1,.039.039l.039.039v.078h.039v.039a.113.113,0,0,1,.039.078.113.113,0,0,0,.039.078v.078h.039v.078l.039.039v.117h.039v.117l.039.039v.156h.039v.234l13.711.352-13.711.352v.2l-.039.039v.156l-.039.039v.117l-.039.039v.078l-.039.039v.078l-.039.039v.039a.035.035,0,0,1-.039.039v.078h-.039v.078h-.039v.078a.035.035,0,0,0-.039.039v.039h-.039v.078h-.039v.078a.035.035,0,0,0-.039.039h-.039v.078h-.039a.035.035,0,0,1-.039.039v.039l-.039.039a.035.035,0,0,1-.039.039v.039a.035.035,0,0,0-.039.039h-.039Z" transform="translate(-36.867 -145.477)"/>
</svg>
