<svg xmlns="http://www.w3.org/2000/svg" width="83.711" height="84.959" viewBox="0 0 83.711 84.959">
  <path id="Ícono_eclipse_luna" data-name="Ícono eclipse luna" d="M31.826,176.71a21.516,21.516,0,0,1-7.638-7.612,21.3,21.3,0,0,1,0-21.216,21.728,21.728,0,0,1,7.638-7.638,20.285,20.285,0,0,1,10.6-2.854,20.332,20.332,0,0,1,10.621,2.854q.9.54,1.723,1.132a18.488,18.488,0,0,0-16.3,1.106,18.892,18.892,0,0,0-6.686,6.7,18.594,18.594,0,0,0,0,18.606,18.925,18.925,0,0,0,6.686,6.686,18.488,18.488,0,0,0,16.3,1.106,16.568,16.568,0,0,1-1.723,1.132,20.332,20.332,0,0,1-10.621,2.854A20.285,20.285,0,0,1,31.826,176.71Zm11.341-55.8a.427.427,0,0,1-.244.424.572.572,0,0,1-.5,0,.471.471,0,0,1-.283-.424q-.077-2.212,0-4.4a.49.49,0,0,1,.283-.45.572.572,0,0,1,.5,0,.449.449,0,0,1,.244.45Q43.09,118.694,43.167,120.906Zm0,13.321a.465.465,0,0,1-.27.437.606.606,0,0,1-.489,0,.465.465,0,0,1-.27-.437q-.077-5.786,0-11.547a.465.465,0,0,1,.27-.437.606.606,0,0,1,.489,0,.465.465,0,0,1,.27.437Q43.09,128.441,43.167,134.227Zm-5.529-1.183q-.514-2.932-1.029-5.85t-1.029-5.825a.535.535,0,0,1,.193-.5.608.608,0,0,1,.476-.129.4.4,0,0,1,.334.347q.154.849.283,1.7.257,1.466.514,2.919t.514,2.919q.257,1.466.514,2.919t.514,2.919a.489.489,0,0,1-.167.5.608.608,0,0,1-.476.129q-.257-.039-.334-.373l-.154-.823Q37.715,133.455,37.638,133.044Zm-6.583-4.886-1.286-3.6q-.951-2.7-1.98-5.4a.4.4,0,0,1,.1-.476.611.611,0,0,1,.489-.129.511.511,0,0,1,.411.347q1,2.674,1.98,5.4.643,1.8,1.286,3.575a.429.429,0,0,1-.1.5.591.591,0,0,1-.476.129A.565.565,0,0,1,31.054,128.158Zm.746,2.006a.4.4,0,0,1,.1-.476.591.591,0,0,1,.476-.129.565.565,0,0,1,.424.347q1.08,2.8,2.057,5.632a.461.461,0,0,1-.129.5.591.591,0,0,1-.476.129.506.506,0,0,1-.4-.347Q32.906,132.967,31.8,130.164Zm-2.572,6.095q-2.469-4.295-4.937-8.563-.514-.849-1-1.723a.429.429,0,0,1,.013-.5.6.6,0,0,1,.437-.244.473.473,0,0,1,.45.231q.154.283.309.54.257.489.54.952L27.2,130.7q1.877,3.266,3.78,6.506a.519.519,0,0,1-.026.527.561.561,0,0,1-.424.244.467.467,0,0,1-.45-.257l-.309-.514Q29.486,136.721,29.229,136.258Zm-10.081-4.989-3.857-4.577a.571.571,0,0,1-.077-.54.579.579,0,0,1,.347-.347.432.432,0,0,1,.476.141q.694.849,1.414,1.7l6.12,7.3q1.646,1.954,3.292,3.935.283.334.566.643a.571.571,0,0,1,.077.54.579.579,0,0,1-.347.347.432.432,0,0,1-.476-.141q-.334-.437-.694-.849t-.72-.849q-1-1.209-2.032-2.443Q21.18,133.712,19.148,131.269Zm-5.838,3.266a.432.432,0,0,1-.141-.476.579.579,0,0,1,.347-.347.491.491,0,0,1,.514.1q.334.257.669.54t.643.54q4.552,3.832,9.078,7.638a.394.394,0,0,1,.167.463.578.578,0,0,1-.36.36.51.51,0,0,1-.527-.1q-.206-.18-.437-.36-.437-.386-.874-.746Q17.862,138.341,13.31,134.535ZM6.033,137.93a.442.442,0,0,1-.244-.45.6.6,0,0,1,.257-.424.445.445,0,0,1,.5,0l2.572,1.492q.746.411,1.492.849a.442.442,0,0,1,.244.45.6.6,0,0,1-.257.424.445.445,0,0,1-.5,0q-.746-.411-1.492-.849Q7.293,138.7,6.033,137.93Zm5.992,3.472a.457.457,0,0,1-.257-.437.592.592,0,0,1,.244-.424.5.5,0,0,1,.527-.039q1.44.746,2.829,1.62.926.566,1.852,1.106,2.366,1.312,4.68,2.675a.467.467,0,0,1,.257.45.589.589,0,0,1-.257.437.45.45,0,0,1-.514.013q-2.34-1.363-4.68-2.7-.926-.514-1.852-1.08Q13.465,142.147,12.025,141.4ZM6.959,146.03a.5.5,0,0,1-.321-.4.591.591,0,0,1,.129-.476.4.4,0,0,1,.476-.1l1.7.617q1.08.36,2.134.771a.565.565,0,0,1,.347.424.591.591,0,0,1-.129.476.4.4,0,0,1-.476.1q-1.08-.411-2.16-.8Q7.807,146.365,6.959,146.03ZM20,149.682a.506.506,0,0,1,.347.4.591.591,0,0,1-.129.476.461.461,0,0,1-.5.129q-2.16-.746-4.295-1.543l-2.572-.977a.506.506,0,0,1-.347-.4.591.591,0,0,1,.129-.476.4.4,0,0,1,.476-.1q1.286.463,2.572.951Q17.811,148.962,20,149.682ZM1.172,151.688q-.334-.077-.373-.334a.586.586,0,0,1,.141-.476.567.567,0,0,1,.514-.193q.951.18,1.929.36a1.189,1.189,0,0,1,.231.026q4.68.823,9.386,1.671,1.466.257,2.957.514l2.932.514q.334.077.373.334a.586.586,0,0,1-.141.476.537.537,0,0,1-.489.193l-1.08-.206q-.566-.077-1.106-.18-4.68-.823-9.386-1.672-2.572-.437-5.117-.9Q1.558,151.765,1.172,151.688Zm10.981,6.275a.465.465,0,0,1,.437.27.637.637,0,0,1,0,.5.42.42,0,0,1-.437.257q-3.677-.026-7.329,0a.42.42,0,0,1-.437-.257.637.637,0,0,1,0-.5.465.465,0,0,1,.437-.27Q8.476,157.937,12.153,157.963Zm6.249,1.029q-2.032-.026-4.063,0a.42.42,0,0,1-.437-.257.637.637,0,0,1,0-.5.465.465,0,0,1,.437-.27q2.032-.026,4.063,0a.475.475,0,0,1,.424.27.572.572,0,0,1,0,.5A.424.424,0,0,1,18.4,158.991ZM7.627,164.135a.517.517,0,0,1,.514.167.568.568,0,0,1,.129.489.433.433,0,0,1-.36.347l-3.5.617q-1.492.231-2.957.514a.517.517,0,0,1-.514-.167.6.6,0,0,1-.141-.489.419.419,0,0,1,.373-.347l2.983-.514Q5.9,164.469,7.627,164.135Zm2.494.591a.5.5,0,0,1-.5-.154.591.591,0,0,1-.129-.476.408.408,0,0,1,.347-.347q2.263-.463,4.552-.8,2.109-.334,4.243-.746a.486.486,0,0,1,.489.167.586.586,0,0,1,.141.476q-.039.257-.373.334-2.109.437-4.243.746Q12.385,164.263,10.122,164.726Zm-2.88,7.2a.44.44,0,0,1-.476-.116.574.574,0,0,1-.129-.476.51.51,0,0,1,.321-.411q.823-.283,1.62-.591,5.58-2.032,11.135-4.037a.419.419,0,0,1,.489.1.569.569,0,0,1,.141.476.506.506,0,0,1-.347.4q-.36.129-.694.257-.463.154-.926.334-2.16.8-4.32,1.569Q10.636,170.666,7.241,171.927Zm10,.617a.519.519,0,0,1,.527.026.561.561,0,0,1,.244.424.467.467,0,0,1-.257.45q-1.9,1.106-3.78,2.212-3.677,2.186-7.432,4.269a.5.5,0,0,1-.514-.026.551.551,0,0,1-.257-.424.467.467,0,0,1,.257-.45q3.755-2.057,7.432-4.243Q15.342,173.649,17.245,172.544Zm2.469-.231a.443.443,0,0,1-.527.013.6.6,0,0,1-.244-.437.473.473,0,0,1,.231-.45q1.106-.669,2.212-1.26a.486.486,0,0,1,.527,0,.561.561,0,0,1,.244.424.467.467,0,0,1-.257.45Q20.794,171.669,19.714,172.312Zm-2.957,7.226a.539.539,0,0,1,.527-.077.579.579,0,0,1,.36.347.422.422,0,0,1-.167.476q-.9.694-1.774,1.466-.8.72-1.672,1.414a.539.539,0,0,1-.527.077.579.579,0,0,1-.36-.347.38.38,0,0,1,.167-.45q.849-.694,1.672-1.414Q15.856,180.259,16.756,179.538Zm2.546-.8a.518.518,0,0,1-.514.077.579.579,0,0,1-.347-.347.432.432,0,0,1,.141-.476q2.572-2.134,5.117-4.295a.539.539,0,0,1,.527-.077.579.579,0,0,1,.36.347.421.421,0,0,1-.167.476q-1.44,1.209-2.906,2.443Zm8.126-1.311q-.72.849-1.414,1.672-3.06,3.677-6.146,7.329-1.929,2.289-3.832,4.577a.432.432,0,0,1-.476.141.579.579,0,0,1-.347-.347.518.518,0,0,1,.077-.514q.489-.591.977-1.157.231-.283.437-.54,3.086-3.652,6.146-7.3.283-.334.54-.669l3.292-3.909a.421.421,0,0,1,.476-.167.579.579,0,0,1,.347.36A.539.539,0,0,1,27.429,177.43Zm3.549,2.314q-.283.463-.54.926-.18.283-.334.566-1.466,2.572-2.957,5.117-1.492,2.572-2.957,5.143a.467.467,0,0,1-.45.257.589.589,0,0,1-.437-.257.45.45,0,0,1-.013-.514q.231-.386.437-.746t.411-.746q2.983-5.117,5.94-10.261a.442.442,0,0,1,.45-.244.6.6,0,0,1,.424.257A.476.476,0,0,1,30.977,179.744Zm.8,7.1a.51.51,0,0,1,.411-.321.611.611,0,0,1,.489.129.4.4,0,0,1,.1.476q-1.312,3.369-2.494,6.789l-1.492,4.166a.51.51,0,0,1-.411.321.574.574,0,0,1-.476-.129.44.44,0,0,1-.116-.476q.771-2.083,1.492-4.166Q30.489,190.236,31.775,186.842Zm2.083-5.709a.51.51,0,0,1,.411-.321.574.574,0,0,1,.476.129.44.44,0,0,1,.116.476q-.463,1.183-.9,2.392-.231.694-.463,1.363a.558.558,0,0,1-.9.206.419.419,0,0,1-.1-.489q.231-.669.489-1.337Q33.395,182.341,33.858,181.133Zm4.089,1.106q.077-.334.334-.373a.586.586,0,0,1,.476.141.517.517,0,0,1,.167.514q-.051.412-.129.823-.077.437-.154.849-.36,1.954-.694,3.883-.694,3.909-1.363,7.792-.077.334-.334.373a.586.586,0,0,1-.476-.141.567.567,0,0,1-.193-.514q.077-.463.18-.926.051-.36.129-.746Zm4.192.514a.445.445,0,0,1,.257-.45.6.6,0,0,1,.514,0,.445.445,0,0,1,.257.45v17.718a.42.42,0,0,1-.257.437.668.668,0,0,1-.514,0,.42.42,0,0,1-.257-.437V182.753Zm7.2,10.775a4.683,4.683,0,0,0,.231,1.44l.154.617a.567.567,0,0,1-.193.514.549.549,0,0,1-.476.129.43.43,0,0,1-.334-.36q-.077-.36-.154-.694a5.328,5.328,0,0,1-.257-1.646.49.49,0,0,1,.283-.45.572.572,0,0,1,.5,0A.449.449,0,0,1,49.339,193.528Zm-.36-2.16a.567.567,0,0,1-.193.514.549.549,0,0,1-.476.129.43.43,0,0,1-.334-.36q-.746-4.577-1.62-9.129a.567.567,0,0,1,.193-.514.586.586,0,0,1,.476-.141q.257.039.334.373Q48.207,186.79,48.979,191.368Zm6.48.8q.874,2.366,1.723,4.757.154.437.334.874a.44.44,0,0,1-.116.476.574.574,0,0,1-.476.129.51.51,0,0,1-.411-.321q-.18-.54-.386-1.054L55.768,196q-.8-2.16-1.569-4.32l-1.7-4.629q-1.029-2.829-2.057-5.632a.44.44,0,0,1,.116-.476.574.574,0,0,1,.476-.129.51.51,0,0,1,.411.321l.36,1.029q.206.54.386,1.054Q53.839,187.69,55.459,192.165Zm2.6-8.023q2.032,3.395,3.96,6.84a.519.519,0,0,1-.026.527.561.561,0,0,1-.424.244.467.467,0,0,1-.45-.257q-1.9-3.446-3.935-6.84a.445.445,0,0,1,0-.5.6.6,0,0,1,.424-.257A.442.442,0,0,1,58.056,184.142Zm-1.929-1.311q-.617-.977-1.183-2.006l-.617-1.08a.429.429,0,0,1,.013-.5.646.646,0,0,1,.437-.257.442.442,0,0,1,.45.244l.617,1.08q.54,1.029,1.157,2.006a.445.445,0,0,1,0,.5.6.6,0,0,1-.424.257A.442.442,0,0,1,56.128,182.83Zm8.306.823q1.106,1.286,2.186,2.623,1.672,2.006,3.369,4.012a.491.491,0,0,1,.1.514.579.579,0,0,1-.347.347.432.432,0,0,1-.476-.141Q67.571,189,65.9,187q-1.106-1.312-2.186-2.623a.51.51,0,0,1-.1-.527.579.579,0,0,1,.347-.36A.421.421,0,0,1,64.434,183.653ZM58.6,176.71q.154.154.309.334,2.212,2.469,4.243,5.092a.4.4,0,0,1,.039.476.57.57,0,0,1-.424.257.512.512,0,0,1-.489-.219q-1.877-2.366-3.883-4.629-.257-.283-.514-.591a.491.491,0,0,1-.1-.514.625.625,0,0,1,.347-.36A.4.4,0,0,1,58.6,176.71Zm13.4,5.735a.4.4,0,0,1,.141.463.578.578,0,0,1-.347.36.491.491,0,0,1-.514-.1q-1.852-1.594-3.729-3.137a.421.421,0,0,1-.167-.476.579.579,0,0,1,.347-.347.541.541,0,0,1,.54.1Q70.143,180.85,71.994,182.444Zm-11.135-8a.432.432,0,0,1-.141-.476.579.579,0,0,1,.347-.347.571.571,0,0,1,.54.077q.694.591,1.389,1.157,1.749,1.44,3.472,2.932a.432.432,0,0,1,.141.476.579.579,0,0,1-.347.347.491.491,0,0,1-.514-.1q-1.723-1.466-3.5-2.906Q61.554,175.012,60.859,174.447Zm18.413,4.577a.442.442,0,0,1,.244.45.646.646,0,0,1-.257.437.429.429,0,0,1-.5.013q-.489-.283-.951-.566-.489-.257-.951-.54-2.34-1.363-4.68-2.7-1.8-1.029-3.6-2.083-1.054-.591-2.109-1.209-1.543-.9-3.06-1.774a.467.467,0,0,1-.257-.45.561.561,0,0,1,.244-.424.486.486,0,0,1,.527,0l1.9,1.08q3.06,1.774,6.095,3.523,1.08.643,2.16,1.26ZM65.308,167.272a.506.506,0,0,1-.347-.4.591.591,0,0,1,.129-.476.429.429,0,0,1,.5-.1q.386.129.8.283t.8.283q5.58,2.032,11.135,4.063a.511.511,0,0,1,.347.411.574.574,0,0,1-.129.476.44.44,0,0,1-.476.116q-.823-.309-1.62-.591-2.777-1.029-5.555-2.032Q68.086,168.3,65.308,167.272Zm18.824-2.006a.43.43,0,0,1,.36.334.549.549,0,0,1-.129.476.567.567,0,0,1-.514.193q-.36-.077-.72-.129l-1.44-.257q-4.706-.823-9.386-1.646-1.492-.257-2.957-.54l-2.932-.514q-.334-.077-.373-.334a.608.608,0,0,1,.129-.476.489.489,0,0,1,.5-.167l.977.154q.591.129,1.183.231l9.412,1.646Q81.175,164.752,84.132,165.266ZM71.3,158.991a.5.5,0,0,1-.45-.27.545.545,0,0,1,0-.489.5.5,0,0,1,.45-.27q4.577-.026,9.181,0a.465.465,0,0,1,.437.27.606.606,0,0,1,0,.489.465.465,0,0,1-.437.27Q75.878,158.966,71.3,158.991Zm-4.4-1.029h2.16a.49.49,0,0,1,.45.283.572.572,0,0,1,0,.5.449.449,0,0,1-.45.244H66.9a.423.423,0,0,1-.437-.244.637.637,0,0,1,0-.5A.462.462,0,0,1,66.9,157.963Zm9.078-4.835a.486.486,0,0,1-.489-.167.6.6,0,0,1-.141-.489.419.419,0,0,1,.373-.347q1.852-.36,3.729-.643,2.212-.334,4.4-.8a.517.517,0,0,1,.514.167.568.568,0,0,1,.129.489.433.433,0,0,1-.36.347q-2.186.463-4.4.8Q77.858,152.768,75.98,153.128Zm-2.494-.617A.567.567,0,0,1,74,152.7a.549.549,0,0,1,.129.476.43.43,0,0,1-.36.334l-2.057.36q-2.52.437-5.04.9a.535.535,0,0,1-.5-.193.608.608,0,0,1-.129-.476q.039-.257.373-.334,2.52-.437,5.015-.874Q72.457,152.717,73.486,152.511Zm4.835-6.48-1.132.411q-.231.1-.463.18-5.58,2.032-11.135,4.063a.429.429,0,0,1-.5-.1.611.611,0,0,1-.129-.489.511.511,0,0,1,.347-.411l1.029-.36q.283-.1.591-.231l3.7-1.337q3.7-1.363,7.432-2.7a.4.4,0,0,1,.476.1.591.591,0,0,1,.129.476A.506.506,0,0,1,78.321,146.03ZM63.405,145.9q.463-.257.951-.54.463-.283.951-.54l4.423-2.572q1.9-1.106,3.832-2.212l2.777-1.594,2.417-1.389a.445.445,0,0,1,.5,0,.6.6,0,0,1,.257.424.442.442,0,0,1-.244.45q-.489.283-.951.566-.489.257-.951.54l-3.395,1.954q-2.443,1.414-4.886,2.8-1.286.771-2.572,1.517-1.312.746-2.6,1.492a.468.468,0,0,1-.527-.013.6.6,0,0,1-.244-.437A.467.467,0,0,1,63.405,145.9Zm3.266-6.918a.491.491,0,0,1-.514.1.579.579,0,0,1-.347-.347.432.432,0,0,1,.141-.476q1.389-1.234,2.829-2.392,1.26-1,2.494-2.057a.491.491,0,0,1,.514-.1.579.579,0,0,1,.347.347.432.432,0,0,1-.141.476q-1.234,1.054-2.494,2.057Q68.06,137.75,66.671,138.984Zm-2.314.617a.491.491,0,0,1,.514-.1.579.579,0,0,1,.347.347.432.432,0,0,1-.141.476q-.926.823-1.9,1.62-.8.643-1.569,1.312a.541.541,0,0,1-.54.1.58.58,0,0,1-.347-.347.432.432,0,0,1,.141-.476q.8-.694,1.594-1.337Q63.431,140.424,64.357,139.6Zm-6.48-.077.926-1.08q.231-.309.489-.591,1.543-1.826,3.06-3.652l3.086-3.652q1.9-2.289,3.832-4.6a.432.432,0,0,1,.476-.141.579.579,0,0,1,.347.347.541.541,0,0,1-.1.54,1.2,1.2,0,0,0-.18.231l-1.234,1.44-6.12,7.3q-.951,1.157-1.929,2.314-.951,1.132-1.929,2.289a.388.388,0,0,1-.45.141.623.623,0,0,1-.36-.347A.516.516,0,0,1,57.876,139.524Zm-3.549-2.314q.18-.283.334-.566.257-.463.54-.926l4.937-8.538q.489-.849.977-1.723a.442.442,0,0,1,.45-.244.6.6,0,0,1,.424.257.476.476,0,0,1,.026.5l-.874,1.492q-1.594,2.777-3.189,5.529l-2.726,4.732a.467.467,0,0,1-.45.257.561.561,0,0,1-.424-.244A.519.519,0,0,1,54.328,137.21Zm-2.88-1.389a.511.511,0,0,1-.411.347.574.574,0,0,1-.476-.129.474.474,0,0,1-.116-.5q.334-.874.643-1.749l.1-.309q1.646-4.475,3.266-8.975.514-1.389,1.029-2.8t1.029-2.8a.511.511,0,0,1,.411-.347.574.574,0,0,1,.476.129.44.44,0,0,1,.116.476q-.206.54-.386,1.054t-.386,1.029q-1.62,4.475-3.266,8.949Q52.476,133.018,51.447,135.821Zm-3.009-7.278a.43.43,0,0,1-.334.36.549.549,0,0,1-.476-.129.517.517,0,0,1-.167-.514q.206-1.183.437-2.366.463-2.392.823-4.809a.4.4,0,0,1,.321-.347.626.626,0,0,1,.476.129.524.524,0,0,1,.206.5q-.386,2.417-.849,4.809Q48.67,127.361,48.439,128.544Zm-1.08,6.172q-.077.334-.334.373a.608.608,0,0,1-.476-.129.535.535,0,0,1-.193-.5q.206-1.054.386-2.109l.36-2.057a.4.4,0,0,1,.334-.347.608.608,0,0,1,.476.129.489.489,0,0,1,.167.5l-.36,2.057Q47.564,133.687,47.358,134.715Z" transform="translate(-0.793 -116.001)"/>
</svg>
