<svg xmlns="http://www.w3.org/2000/svg" width="83.711" height="84.96" viewBox="0 0 83.711 84.96">
  <path id="Ícono_eclipse" data-name="Ícono eclipse" d="M43.167,134.227a.42.42,0,0,1-.257.437.669.669,0,0,1-.514,0,.42.42,0,0,1-.257-.437V116.508a.445.445,0,0,1,.257-.45.6.6,0,0,1,.514,0,.445.445,0,0,1,.257.45v17.718Zm-5.529-1.183q-.334-1.954-.681-3.9l-.694-3.883q-.347-1.942-.681-3.9a.535.535,0,0,1,.193-.5.608.608,0,0,1,.476-.129.4.4,0,0,1,.334.347q.129.849.283,1.7.154.874.309,1.723.309,1.723.617,3.472.231,1.286.463,2.6.1.643.231,1.286.206,1.286.437,2.6a.489.489,0,0,1-.167.5.608.608,0,0,1-.476.129q-.257-.039-.334-.373l-.154-.823Q37.715,133.455,37.638,133.044Zm-5.786-2.7q-1.877-5.169-3.755-10.312l-.309-.874a.44.44,0,0,1,.116-.476.574.574,0,0,1,.476-.129.511.511,0,0,1,.411.347q1,2.777,2.032,5.58,1,2.777,2.032,5.58a.4.4,0,0,1-.1.476.611.611,0,0,1-.489.129A.51.51,0,0,1,31.852,130.344Zm.746,2.006a.454.454,0,0,1,.129-.489.536.536,0,0,1,.476-.129.483.483,0,0,1,.373.36q.386,1.157.823,2.289.231.591.437,1.157a.441.441,0,0,1-.09.5.574.574,0,0,1-.476.129.511.511,0,0,1-.411-.347q-.206-.591-.437-1.157Q32.957,133.532,32.6,132.349Zm-3.369,3.909-2.983-5.143q-1.466-2.572-2.957-5.143a.429.429,0,0,1,.013-.5.6.6,0,0,1,.437-.244.473.473,0,0,1,.45.231q.154.283.309.54.257.489.54.952,2.957,5.143,5.915,10.261a.486.486,0,0,1,0,.527.561.561,0,0,1-.424.244.467.467,0,0,1-.45-.257Q29.64,136.978,29.229,136.258ZM18.4,130.369q-.72-.823-1.414-1.672l-1.7-2.006a.571.571,0,0,1-.077-.54.579.579,0,0,1,.347-.347.432.432,0,0,1,.476.141l1.543,1.852,1.543,1.852a.469.469,0,0,1,.09.514.623.623,0,0,1-.36.347A.388.388,0,0,1,18.4,130.369Zm8.281,9.9-6.943-8.281a.516.516,0,0,1-.09-.54.623.623,0,0,1,.36-.347.388.388,0,0,1,.45.141l3.806,4.526q1.569,1.877,3.163,3.755a.571.571,0,0,1,.077.54.579.579,0,0,1-.347.347A.432.432,0,0,1,26.683,140.27ZM13.31,134.535a.432.432,0,0,1-.141-.476.58.58,0,0,1,.347-.347.491.491,0,0,1,.514.1q.669.54,1.312,1.08,4.552,3.832,9.078,7.638a.394.394,0,0,1,.167.463.578.578,0,0,1-.36.36.51.51,0,0,1-.527-.1q-.437-.36-.874-.746-.206-.18-.437-.36Q17.836,138.341,13.31,134.535ZM6.033,137.93a.467.467,0,0,1-.257-.45.551.551,0,0,1,.257-.424.466.466,0,0,1,.514,0q5.169,2.983,10.364,5.966a.473.473,0,0,1,.231.45.561.561,0,0,1-.244.424.519.519,0,0,1-.527.026Q13.8,142.4,11.2,140.913,8.63,139.421,6.033,137.93ZM21.9,145.9a.419.419,0,0,1,.257.424.6.6,0,0,1-.244.437.5.5,0,0,1-.527.039,22.006,22.006,0,0,1-2.237-1.26q-.489-.309-.951-.591a.467.467,0,0,1-.257-.45.561.561,0,0,1,.244-.424.486.486,0,0,1,.527,0q.489.283.951.566A22.012,22.012,0,0,0,21.9,145.9Zm-1.9,3.78a.482.482,0,0,1,.334.411.651.651,0,0,1-.141.489.4.4,0,0,1-.476.1q-.8-.309-1.594-.591l-2.983-1.08L6.959,146.03a.5.5,0,0,1-.321-.4.591.591,0,0,1,.129-.476.4.4,0,0,1,.476-.1q.746.257,1.466.54l.154.051q2.16.771,4.32,1.569Q16.576,148.448,20,149.682ZM1.172,151.688q-.334-.077-.373-.334a.586.586,0,0,1,.141-.476.537.537,0,0,1,.489-.193q.566.1,1.106.206t1.08.18q4.68.823,9.386,1.672,1.466.257,2.957.514l2.932.514q.334.077.373.334a.586.586,0,0,1-.141.476.537.537,0,0,1-.489.193q-1.106-.206-2.186-.386l-4.68-.823q-2.366-.411-4.706-.849-2.572-.437-5.117-.9Q1.558,151.765,1.172,151.688Zm3.652,6.275H8.09a.5.5,0,0,1,.45.27.572.572,0,0,1,0,.5.445.445,0,0,1-.45.257H4.824a.445.445,0,0,1-.45-.257.572.572,0,0,1,0-.5A.5.5,0,0,1,4.824,157.963Zm13.552,0a.5.5,0,0,1,.45.27.572.572,0,0,1,0,.5.445.445,0,0,1-.45.257q-4.217-.026-8.435,0a.445.445,0,0,1-.45-.257.572.572,0,0,1,0-.5.5.5,0,0,1,.45-.27Q14.159,157.937,18.376,157.963Zm-1.646,5.606q-4.706.823-9.386,1.672-2.237.386-4.449.771-.72.129-1.466.257a.537.537,0,0,1-.489-.193A.586.586,0,0,1,.8,165.6q.039-.257.373-.334.54-.077,1.08-.18t1.08-.18q2.34-.437,4.706-.849l4.68-.823q1.492-.257,2.957-.514t2.957-.514a.486.486,0,0,1,.489.167.586.586,0,0,1,.141.476q-.039.257-.373.334Q17.811,163.389,16.731,163.569Zm-3.215,4.963a.4.4,0,0,1,.476.1.611.611,0,0,1,.129.489.511.511,0,0,1-.347.411q-1.826.694-3.677,1.337-1.44.514-2.854,1.054a.44.44,0,0,1-.476-.116.574.574,0,0,1-.129-.476.51.51,0,0,1,.321-.411q1.44-.54,2.854-1.029Q11.665,169.226,13.516,168.532Zm2.469.206a.44.44,0,0,1-.476-.116.574.574,0,0,1-.129-.476.511.511,0,0,1,.347-.411q.154-.051.334-.129,1.8-.694,3.652-1.312a.429.429,0,0,1,.5.1.591.591,0,0,1,.129.476.506.506,0,0,1-.347.4q-1.852.617-3.652,1.337A3.022,3.022,0,0,0,15.985,168.738Zm5.915,2.314q-.951.54-1.9,1.106-.951.54-1.929,1.106l-6.326,3.652q-2.6,1.517-5.195,3.009a.45.45,0,0,1-.514-.013.589.589,0,0,1-.257-.437.467.467,0,0,1,.257-.45q.463-.283.951-.54.463-.283.951-.566,1.9-1.08,3.806-2.186,2.237-1.286,4.449-2.572,2.314-1.337,4.6-2.649a6.6,6.6,0,0,1,.591-.334.445.445,0,0,1,.5,0,.6.6,0,0,1,.257.424A.442.442,0,0,1,21.9,171.052Zm-5.04,8.409a.491.491,0,0,1,.514-.1.58.58,0,0,1,.347.347.432.432,0,0,1-.141.476q-.54.463-1.054.9-1.234,1.08-2.494,2.083a.539.539,0,0,1-.527.077.579.579,0,0,1-.36-.347.38.38,0,0,1,.167-.45q1.26-1.029,2.469-2.083Q16.319,179.9,16.859,179.461Zm6.84-5.76a.539.539,0,0,1,.527-.077.579.579,0,0,1,.36.347.421.421,0,0,1-.167.476q-.977.823-1.98,1.646-1.62,1.312-3.189,2.674a.516.516,0,0,1-.514.116.539.539,0,0,1-.347-.347.448.448,0,0,1,.141-.489q1.569-1.389,3.189-2.674Q22.722,174.55,23.7,173.7Zm3.729,3.729-1.234,1.44q-.1.129-.18.231l-3.343,4.012q-1.414,1.646-2.8,3.317-1.929,2.289-3.832,4.577a.432.432,0,0,1-.476.141.58.58,0,0,1-.347-.347.518.518,0,0,1,.077-.514q.72-.849,1.414-1.7,1.029-1.209,2.057-2.443,2.032-2.417,4.089-4.86.283-.334.54-.669l3.292-3.909a.421.421,0,0,1,.476-.167.579.579,0,0,1,.347.36A.539.539,0,0,1,27.429,177.43Zm3.523,2.314q-.411.746-.849,1.492-1.466,2.572-2.957,5.117-1.492,2.572-2.957,5.143a.467.467,0,0,1-.45.257.589.589,0,0,1-.437-.257.45.45,0,0,1-.013-.514q.206-.386.437-.746.206-.36.411-.746,2.983-5.118,5.94-10.261a.442.442,0,0,1,.45-.244.6.6,0,0,1,.424.257A.445.445,0,0,1,30.952,179.744Zm.18,8.9a.511.511,0,0,1,.411-.347.574.574,0,0,1,.476.129.441.441,0,0,1,.09.5l-.669,1.749q-1.466,3.652-2.649,7.406a.506.506,0,0,1-.4.347.569.569,0,0,1-.476-.141.454.454,0,0,1-.129-.489q1.209-3.729,2.649-7.406Q30.8,189.516,31.132,188.642Zm2.726-7.509a.51.51,0,0,1,.411-.321.574.574,0,0,1,.476.129.407.407,0,0,1,.09.476q-.463,1.209-.874,2.443-.489,1.414-1.029,2.829a.567.567,0,0,1-.424.321.591.591,0,0,1-.476-.129.4.4,0,0,1-.1-.476q.566-1.389,1.029-2.8Q33.395,182.367,33.858,181.133Zm26.488-11.521.039-.039a.037.037,0,0,0,.013-.026q0-.013-.013,0A.3.3,0,0,0,60.345,169.612Zm-22.4,12.627q.077-.334.334-.373a.586.586,0,0,1,.476.141.517.517,0,0,1,.167.514q-.077.411-.129.823-.077.437-.154.849-.36,1.954-.694,3.883-.694,3.909-1.363,7.792-.077.334-.334.373a.586.586,0,0,1-.476-.141.567.567,0,0,1-.193-.514l.154-.926q.077-.36.154-.746Zm4.192.514a.445.445,0,0,1,.257-.45.6.6,0,0,1,.514,0,.445.445,0,0,1,.257.45v17.718a.42.42,0,0,1-.257.437.668.668,0,0,1-.514,0,.42.42,0,0,1-.257-.437V182.753ZM63.457,156.24q.026.026.026.013T63.457,156.24Zm-1.183,9.489-.026.026v.026l-.026.077a.722.722,0,0,1-.077.3q-.077.167-.154.321a1.413,1.413,0,0,0-.077.18.323.323,0,0,0-.077.129.2.2,0,0,1-.026.077l-.206.463q-.051.129-.1.231h-.026v0q-.051.1-.1.231v.026a.3.3,0,0,0-.051.077v.026l-.026.026a1.413,1.413,0,0,1-.077.18q-.077.154-.154.283a1.684,1.684,0,0,1-.1.18q-.077.154-.154.283a.4.4,0,0,0-.077.1.074.074,0,0,1-.026.051.2.2,0,0,0-.026.077.3.3,0,0,1-.051.077l-.257.411a.023.023,0,0,1-.026.026v.026l-.013.013-.013.013v.026h-.026a.323.323,0,0,1-.077.129v.026a.023.023,0,0,0-.026.026l-.026.026q0,.026-.051.077l-.1.154a.686.686,0,0,1-.129.18,323.223,323.223,0,0,1-.051.1,2,2,0,0,0-.141.193q-.039.064-.09.141a.023.023,0,0,0-.026.026h-.026v.051l-.051.051-.013.013a.037.037,0,0,0-.013.026v.013h-.026l-.1.154-.051.051a11.805,11.805,0,0,1-1.44,1.723l-.386.386a.168.168,0,0,1-.077.077l-.026.026a.168.168,0,0,1-.077.077l-.051.051a.023.023,0,0,0-.026.026l-.051.051-.1.1a3.136,3.136,0,0,0-.257.231,13.264,13.264,0,0,1-1.209,1.029.841.841,0,0,0-.129.1.6.6,0,0,1-.154.1l-.051.051a54.513,54.513,0,0,1-.051.051h-.026a.168.168,0,0,0-.077.077h-.026v.026h-.026l.013-.013-.039.039a.023.023,0,0,1,.026-.026.023.023,0,0,0,.026-.026l-.026.026a.074.074,0,0,1-.051.026v0a.023.023,0,0,1-.026.026.4.4,0,0,0-.1.077q-.051.051-.077.051a.023.023,0,0,1-.026.026,1.352,1.352,0,0,1-.206.129.1.1,0,0,0,.077-.026.99.99,0,0,0,.129-.051q-.463.334-.926.643a.052.052,0,0,1,.039.013q.013.013-.013.026a.179.179,0,0,1-.077.013q-.36.231-.746.437a20.332,20.332,0,0,1-10.621,2.855,20.285,20.285,0,0,1-10.6-2.855,21.516,21.516,0,0,1-7.638-7.612,21.138,21.138,0,0,1,0-21.216,21.727,21.727,0,0,1,7.638-7.638,20.285,20.285,0,0,1,10.6-2.854,20.357,20.357,0,0,1,10.029,2.52.074.074,0,0,1,.051.026q.283.154.54.309.9.54,1.723,1.132l-.1-.051a.228.228,0,0,1-.1-.026.074.074,0,0,0,.051.026l.051.051h.026a.023.023,0,0,0,.026.026h.026a.023.023,0,0,0,.026.026q.18.129.3.219l.244.193q.077.051.18.129h-.013a.037.037,0,0,1-.026-.013l-.013-.013.013.013a.052.052,0,0,0,.039.013l.051.051a.074.074,0,0,0,.051.026.4.4,0,0,0,.1.077v.026a3.612,3.612,0,0,1,.309.231v.026a.4.4,0,0,1,.1.077.074.074,0,0,1,.051.026.023.023,0,0,0,.026.026l.026.026a.84.84,0,0,1,.09.051.422.422,0,0,1,.064.051.074.074,0,0,1,.026.051,2.067,2.067,0,0,1,.411.36l.077.077v.026H56.9q.154.154.334.309a.459.459,0,0,0,.129.129l.026.026a.023.023,0,0,0,.026.026.023.023,0,0,0,.026.026.459.459,0,0,0,.129.129.074.074,0,0,1,.026.051.023.023,0,0,1,.026.026.074.074,0,0,1,.051.026l.129.129a4.508,4.508,0,0,1,.36.347,2.624,2.624,0,0,1,.309.4q.411.463.72.862t.617.861a.4.4,0,0,1,.077.1.023.023,0,0,0,.026.026.3.3,0,0,0,.051.077h-.013q.013,0,.039.026a.765.765,0,0,1,.077.1,1.685,1.685,0,0,1,.1.18,8.47,8.47,0,0,1,.9,1.543,5.352,5.352,0,0,1,.283.54q.206.386.386.8a12.734,12.734,0,0,1,.8,2.083,18.361,18.361,0,0,1,.643,2.392q.077.309.129.643l.051.257a4.881,4.881,0,0,1,.077.849.228.228,0,0,1,.026.1.2.2,0,0,0-.026-.077l.026.1-.026-.077v.026l.051.463v.077q.051.54.077,1.08v.694q0,.437-.026.849v.411l-.026.026a2.037,2.037,0,0,1-.026.334v.257a.023.023,0,0,1-.026.026v.206a.228.228,0,0,0-.026.1v.1a.486.486,0,0,1-.026.154,19.95,19.95,0,0,1-.874,3.986l-.206.617A1,1,0,0,1,62.274,165.729ZM31.415,142.07a1.679,1.679,0,0,1-.18.154h-.026a19.761,19.761,0,0,0-1.774,1.389.9.9,0,0,1-.18.18q-.18.154-.36.334h-.026a.074.074,0,0,1-.026.051q-.077.077-.206.193a1.569,1.569,0,0,0-.206.219h-.026a30.637,30.637,0,0,1-.051.051v.026l-.026.026a21.159,21.159,0,0,0-2.134,2.674,2.344,2.344,0,0,1-.18.257q-.463.72-.874,1.466a.2.2,0,0,0-.026.077,8.923,8.923,0,0,0-.463.9v.026a.3.3,0,0,0-.051.077q-.077.154-.154.334-.309.694-.566,1.44a20,20,0,0,0-1.106,6.12v.591q0,.8.077,1.569a.755.755,0,0,0,.026.18q.051.36.077.746a.228.228,0,0,0,.026.1,3.871,3.871,0,0,1,.1.643,26.077,26.077,0,0,0,.591,2.546q.206.591.437,1.209v.051h.026a.228.228,0,0,0,.026.1.1.1,0,0,1,.026.077.3.3,0,0,1,.051.077v.051a1.8,1.8,0,0,1,.129.257q.309.72.694,1.466a4.238,4.238,0,0,0,.231.36q.257.463.489.9a1.675,1.675,0,0,1,.1.18q.129.18.257.386a.3.3,0,0,1,.051.077l.026.026q.154.231.309.437a.074.074,0,0,1,.026.051l.051.051q.334.463.694.9a20.417,20.417,0,0,0,2.957,2.88,5.368,5.368,0,0,0,.489.386l.026.026a.023.023,0,0,1,.026.026q.231.154.463.334a.074.074,0,0,1,.051.026.074.074,0,0,0,.051.026q.206.154.437.309a.074.074,0,0,1,.051.026.3.3,0,0,0,.077.051l.411.257.051.051.1.051q.206.129.411.231l.051.051.1.051.463.257a.074.074,0,0,0,.051.026l.1.051.206.1q.1.051.231.1a.074.074,0,0,0,.051.026l.026.026h.026a.3.3,0,0,1,.077.051h.026l.206.1a.074.074,0,0,1,.051.026H34.6a.074.074,0,0,0,.051.026h.026v.026q.257.1.54.206a4.289,4.289,0,0,0,.411.18h.051a1,1,0,0,0,.129.051.074.074,0,0,1,.051.026q.206.077.437.154h.026a.2.2,0,0,0,.077.026h.026a.023.023,0,0,0,.026.026q.18.051.386.1.514.154,1.029.283a.074.074,0,0,0,.051.026.1.1,0,0,1,.077.026h.077a20.059,20.059,0,0,0,9.721-.129.993.993,0,0,0,.129-.051h.051a1.465,1.465,0,0,0,.257-.077h.026a.2.2,0,0,1,.077-.026,1,1,0,0,0,.129-.051.1.1,0,0,0,.077-.026,15.758,15.758,0,0,1-1.8,0,18.981,18.981,0,0,1-3.446-.514l-.36-.1H42.91a18.949,18.949,0,0,1-5.735-2.572q-.566-.386-1.106-.8v-.026a.074.074,0,0,1-.051-.026l-.051-.051a.023.023,0,0,1-.026-.026.4.4,0,0,1-.1-.077l-.051-.051a.323.323,0,0,1-.129-.077v-.026h-.026l-.026-.026a.3.3,0,0,0-.077-.051l-.051-.051-.026-.026a1.678,1.678,0,0,0-.18-.154.3.3,0,0,0-.077-.051l-.051-.051v-.026a1.936,1.936,0,0,1-.206-.18.3.3,0,0,1-.077-.051.074.074,0,0,1-.026-.051,2.809,2.809,0,0,1-.231-.206.3.3,0,0,0-.077-.051.074.074,0,0,0-.026-.051,1.476,1.476,0,0,1-.231-.231l-.051-.051a.023.023,0,0,1-.026-.026,3.136,3.136,0,0,0-.257-.231.074.074,0,0,0-.026-.051l-.051-.051a3.137,3.137,0,0,0-.231-.257.023.023,0,0,0-.026-.026.074.074,0,0,1-.026-.051,3.13,3.13,0,0,1-.231-.257l-.051-.051-.026-.026q-.1-.129-.231-.283l-.026-.026-.026-.026a.3.3,0,0,0-.051-.077l-.026-.026a.4.4,0,0,1-.077-.1L32.8,170.2a.3.3,0,0,0-.051-.077q-.514-.669-.977-1.389h-.026q-.154-.257-.334-.54v-.026l-.026-.026a1.685,1.685,0,0,0-.1-.18,2.073,2.073,0,0,1-.18-.334l-.026-.026q-.129-.257-.283-.54v-.026l-.026-.026q-.1-.231-.231-.489V166.5l-.026-.026v-.026l-.026-.026a.649.649,0,0,0-.077-.154v-.051a15.1,15.1,0,0,1-.746-1.9,18.978,18.978,0,0,1-.849-4.217v-.18a.845.845,0,0,1-.026-.206,1.874,1.874,0,0,0-.026-.309v-.026q-.026-.977.026-1.98v-.129a.485.485,0,0,1,.026-.154v-.026a2.037,2.037,0,0,1,.026-.334v-.026a18.713,18.713,0,0,1,1.337-5.478q.206-.463.411-.9a1,1,0,0,1,.051-.129V150.2a.023.023,0,0,0,.026-.026.074.074,0,0,1,.026-.051,17.82,17.82,0,0,1,1.672-2.777l.309-.411a.023.023,0,0,1,.026-.026.3.3,0,0,1,.051-.077,490.454,490.454,0,0,1,.051-.051v-.026a.023.023,0,0,0,.026-.026l.026-.026.051-.051a.074.074,0,0,1,.026-.051l.026-.026.026-.026v-.026h.026v-.026l.026-.026a1.681,1.681,0,0,0,.154-.18.074.074,0,0,0,.026-.051.3.3,0,0,0,.077-.051l.1-.154a.074.074,0,0,0,.051-.026.074.074,0,0,1,.026-.051l.051-.051.026-.026a.074.074,0,0,0,.026-.051l.1-.1.051-.051.051-.051.051-.051a.3.3,0,0,1,.051-.077l.18-.18.026-.026.051-.051.077-.077a.9.9,0,0,1,.18-.18l.026-.026.026-.026.1-.1a1.68,1.68,0,0,1,.18-.154v-.026l.051-.051a.4.4,0,0,0,.1-.077,1.677,1.677,0,0,1,.18-.154.023.023,0,0,1,.026-.026.074.074,0,0,1,.026-.051.4.4,0,0,0,.1-.077,1.679,1.679,0,0,0,.18-.154.023.023,0,0,0,.026-.026.074.074,0,0,1,.051-.026.168.168,0,0,1,.077-.077l.026-.026h.026v-.026a17.956,17.956,0,0,1,2.957-2.006,18.464,18.464,0,0,1,4.629-1.826h.077q.1-.026.231-.051v-.026h.026a.758.758,0,0,1,.18-.026q.129-.026.231-.051h.026l.026-.026a.756.756,0,0,0,.18-.026l.206-.051h.051a.846.846,0,0,1,.206-.026l.206-.051h.026a.846.846,0,0,0,.206-.026.956.956,0,0,1,.231-.026.2.2,0,0,0,.077-.026h.154l.026-.026h.18a.2.2,0,0,0,.077-.026h.026a1.309,1.309,0,0,0,.257-.026h.257l.026-.026h.257a.956.956,0,0,0,.231-.026h1.646q-.926-.257-1.852-.463a21.632,21.632,0,0,0-7.355-.129,21.065,21.065,0,0,0-4.115,1.157l-.514.206h.013a.225.225,0,0,0-.064.026h0l-.013.013a.037.037,0,0,1-.026.013h-.039a415.19,415.19,0,0,1-.154.077l-.1.051a.228.228,0,0,1-.1.026.323.323,0,0,1-.129.077l-.771.411q-.411.231-.849.463a.3.3,0,0,1-.077.051.649.649,0,0,1-.154.077.023.023,0,0,1-.026.026H32.16a3.818,3.818,0,0,1-.437.283A1.609,1.609,0,0,1,31.415,142.07Zm32.119,17.487h0v0ZM47.641,183.91l1.7,9.618q.18,1.029.386,2.057a.567.567,0,0,1-.193.514.549.549,0,0,1-.476.129.43.43,0,0,1-.334-.36l-.309-1.7q-1.029-5.838-2.057-11.649a.567.567,0,0,1,.193-.514.586.586,0,0,1,.476-.141q.257.039.334.373Q47.513,183.087,47.641,183.91Zm7.818,8.255q.18.54.386,1.054l1.646,4.577a.4.4,0,0,1-.1.476.591.591,0,0,1-.476.129.5.5,0,0,1-.4-.321q-.18-.54-.386-1.054L55.768,196q-.129-.309-.231-.591-1.517-4.192-3.034-8.358-1.029-2.829-2.057-5.632a.4.4,0,0,1,.1-.476.611.611,0,0,1,.489-.129.51.51,0,0,1,.411.321l.1.309q.309.874.643,1.774Q53.813,187.69,55.459,192.165Zm.617-11.444q2.957,5.117,5.94,10.261a.5.5,0,0,1-.026.514.551.551,0,0,1-.424.257.467.467,0,0,1-.45-.257l-.617-1.08q-.129-.206-.231-.411-2.983-5.117-5.94-10.261a.429.429,0,0,1,.013-.5.646.646,0,0,1,.437-.257.442.442,0,0,1,.45.244q.077.154.18.334Q55.742,180.13,56.076,180.721Zm6.506.72q.72.849,1.44,1.723,2.957,3.575,5.966,7.123a.491.491,0,0,1,.1.514.579.579,0,0,1-.347.347.432.432,0,0,1-.476-.141q-3.009-3.549-5.992-7.123-.72-.849-1.414-1.723a.491.491,0,0,1-.1-.514.58.58,0,0,1,.347-.347A.432.432,0,0,1,62.582,181.441Zm-4.706-4.012a.51.51,0,0,1-.1-.527.578.578,0,0,1,.36-.36.394.394,0,0,1,.463.167q1.312,1.543,2.623,3.112a.541.541,0,0,1,.1.54.58.58,0,0,1-.347.347.432.432,0,0,1-.476-.141q-.54-.643-1.054-1.286Q58.648,178.356,57.876,177.43Zm14.118,5.015a.388.388,0,0,1,.141.45.579.579,0,0,1-.347.347.571.571,0,0,1-.54-.077q-.309-.283-.643-.566-.334-.257-.669-.54-.54-.463-1.106-.926l-7.972-6.686a.432.432,0,0,1-.141-.476.579.579,0,0,1,.347-.347.571.571,0,0,1,.54.077q.309.283.643.566t.669.54q1.414,1.209,2.829,2.392Q68.857,179.821,71.994,182.444Zm7.278-3.42a.473.473,0,0,1,.231.45.6.6,0,0,1-.244.437.429.429,0,0,1-.5.013q-3.523-2.032-7.02-4.063a.442.442,0,0,1-.244-.45.6.6,0,0,1,.257-.424.445.445,0,0,1,.5,0q1.106.617,2.186,1.26Zm-15.867-7.972a.467.467,0,0,1-.257-.45.561.561,0,0,1,.244-.424.486.486,0,0,1,.527,0q.72.411,1.466.849,2.417,1.389,4.86,2.8a.442.442,0,0,1,.244.45.6.6,0,0,1-.257.424.445.445,0,0,1-.5,0q-1.594-.9-3.163-1.826Q64.974,171.978,63.405,171.052Zm-3.06-1.414a.838.838,0,0,1,.051-.09l.026-.039-.013.026-.026.051a.15.15,0,0,1-.026.039Zm17.718,2.289q-.823-.309-1.62-.591-2.777-1.029-5.555-2.032-2.8-1-5.58-2.032a.506.506,0,0,1-.347-.4.591.591,0,0,1,.129-.476.429.429,0,0,1,.5-.1q.386.129.8.283t.8.283q2.777,1.029,5.568,2.044t5.568,2.019a.511.511,0,0,1,.347.411.574.574,0,0,1-.129.476A.44.44,0,0,1,78.063,171.927Zm6.069-6.66a.43.43,0,0,1,.36.334.549.549,0,0,1-.129.476.567.567,0,0,1-.514.193q-.36-.077-.72-.129l-1.44-.257q-4.706-.823-9.386-1.646-1.492-.257-2.957-.54l-2.932-.514q-.334-.077-.373-.334a.608.608,0,0,1,.129-.476.489.489,0,0,1,.5-.167l.977.154q.591.129,1.183.231,2.366.411,4.706.823t4.706.823Q81.175,164.752,84.132,165.266ZM66.9,158.991a.42.42,0,0,1-.437-.257.669.669,0,0,1,0-.514.42.42,0,0,1,.437-.257H80.481a.42.42,0,0,1,.437.257.669.669,0,0,1,0,.514.42.42,0,0,1-.437.257H66.9Zm6.043-5.323a.567.567,0,0,1-.514-.193A.586.586,0,0,1,72.29,153q.039-.257.373-.334,4.783-.746,9.541-1.672l1.646-.309a.567.567,0,0,1,.514.193.549.549,0,0,1,.129.476.43.43,0,0,1-.36.334q-.823.154-1.672.309Q77.729,152.922,72.946,153.668Zm-6.4,1.106a.387.387,0,0,1-.437-.219.637.637,0,0,1,0-.5.511.511,0,0,1,.437-.309,20.369,20.369,0,0,0,2.314-.386,17.958,17.958,0,0,1,2.134-.386.387.387,0,0,1,.437.219.637.637,0,0,1,0,.5.511.511,0,0,1-.437.309,17.955,17.955,0,0,0-2.134.386A20.366,20.366,0,0,1,66.543,154.774Zm11.778-8.743q-.54.206-1.054.411a4.973,4.973,0,0,0-.54.18q-5.58,2.032-11.135,4.063a.429.429,0,0,1-.5-.1.611.611,0,0,1-.129-.489.511.511,0,0,1,.347-.411q.8-.283,1.62-.591l3.7-1.337q3.7-1.363,7.432-2.7a.4.4,0,0,1,.476.1.591.591,0,0,1,.129.476A.506.506,0,0,1,78.321,146.03ZM63.405,145.9q.463-.257.951-.54.463-.283.951-.54,4.115-2.392,8.255-4.783l2.777-1.594,2.417-1.389a.445.445,0,0,1,.5,0,.561.561,0,0,1,.244.424.473.473,0,0,1-.231.45q-.489.283-.951.566-.489.257-.951.54l-3.395,1.954q-2.443,1.414-4.886,2.8-2.057,1.209-4.115,2.392-.514.309-1.054.617a.468.468,0,0,1-.527-.013.6.6,0,0,1-.244-.437A.467.467,0,0,1,63.405,145.9Zm5.786-9a.518.518,0,0,1-.514.077.579.579,0,0,1-.347-.347.432.432,0,0,1,.141-.476q.771-.643,1.543-1.311l1.234-1.029a.541.541,0,0,1,.54-.1.58.58,0,0,1,.347.347.432.432,0,0,1-.141.476q-.617.514-1.234,1.054Q69.989,136.233,69.191,136.9Zm-7.586,6.352a.541.541,0,0,1-.54.1.579.579,0,0,1-.347-.347.432.432,0,0,1,.141-.476q1.363-1.183,2.752-2.314,1.543-1.234,3.034-2.546a.491.491,0,0,1,.514-.1.621.621,0,0,1,.36.36.416.416,0,0,1-.154.489q-1.492,1.286-3.034,2.546Q62.942,142.1,61.605,143.253Zm-3.729-3.729.926-1.08q.231-.309.489-.591,1.543-1.826,3.06-3.652,1.543-1.826,3.06-3.652,1.929-2.289,3.857-4.6a.432.432,0,0,1,.476-.141.579.579,0,0,1,.347.347.541.541,0,0,1-.1.54,2.8,2.8,0,0,0-.206.231q-.591.72-1.209,1.44l-6.12,7.3q-1.929,2.314-3.857,4.6a.4.4,0,0,1-.463.141.578.578,0,0,1-.36-.347A.541.541,0,0,1,57.876,139.524Zm-3.549-2.314.411-.72.463-.771q1.466-2.546,2.957-5.118,1.466-2.572,2.957-5.143a.442.442,0,0,1,.45-.244.6.6,0,0,1,.424.257.476.476,0,0,1,.026.5l-.874,1.492q-.386.669-.771,1.363l-5.143,8.9a.467.467,0,0,1-.45.257.6.6,0,0,1-.437-.244A.468.468,0,0,1,54.328,137.21Zm-.54-7.843a.5.5,0,0,1-.4.321.591.591,0,0,1-.476-.129.4.4,0,0,1-.1-.476q1.877-5.092,3.7-10.184a.506.506,0,0,1,.4-.347.591.591,0,0,1,.476.129.4.4,0,0,1,.1.476Q55.665,124.275,53.787,129.366Zm-2.34,6.455a.565.565,0,0,1-.424.347.591.591,0,0,1-.476-.129.429.429,0,0,1-.1-.5q.411-1.029.771-2.109.386-1.183.849-2.34a.6.6,0,0,1,.913-.193.407.407,0,0,1,.09.476q-.463,1.157-.874,2.34Q51.859,134.767,51.447,135.821ZM49.21,124.2q-.077.334-.334.373a.586.586,0,0,1-.476-.141.517.517,0,0,1-.167-.514q.026-.257.077-.514.231-1.157.411-2.314a.4.4,0,0,1,.321-.347.626.626,0,0,1,.476.129.524.524,0,0,1,.206.5q-.18,1.157-.411,2.314Zm-1.852,10.518q-.1.334-.36.373a.608.608,0,0,1-.476-.129.489.489,0,0,1-.167-.5q.437-2.032.746-4.063.129-.771.283-1.543a22.405,22.405,0,0,0,.386-2.392.526.526,0,0,1,.309-.424.572.572,0,0,1,.5,0,.387.387,0,0,1,.219.424,22.125,22.125,0,0,1-.411,2.6q-.154.694-.257,1.414-.051.257-.1.54Q47.744,132.864,47.358,134.715Z" transform="translate(-0.793 -116)"/>
</svg>
