<svg xmlns="http://www.w3.org/2000/svg" width="83.711" height="83.653" viewBox="0 0 83.711 83.653">
  <path id="Ícono_estrella" data-name="Ícono estrella" d="M52.667,200.889l31.776.871-31.776.871,31.137,6.39-31.428-4.647,29.511,11.677-30.15-9.992,27.071,16.614-27.942-15.1,23.76,21.087L49.762,208.905l19.751,24.922-21.146-23.76L63.53,238.01,46.858,210.939l10.05,30.15L45.231,211.52l4.647,31.428-6.39-31.137-.929,31.776-.871-31.776L35.3,242.947l4.647-31.428L28.268,241.088l10.05-30.15L21.646,238.01l15.162-27.942-21.146,23.76,19.751-24.922L10.55,228.657l23.76-21.087-27.942,15.1,27.071-16.614L3.23,216.051,32.8,204.374,1.371,209.022l31.137-6.39L.732,201.76l31.776-.871L1.371,194.5,32.8,199.146,3.23,187.469l30.208,9.992L6.367,180.847l27.942,15.1L10.55,174.863l24.863,19.751L15.662,169.693l21.146,23.76L21.646,165.51l16.672,27.071-10.05-30.15L39.945,192,35.3,160.515l6.39,31.137.871-31.718.929,31.718,6.39-31.137L45.231,192l11.677-29.569-10.05,30.15L63.53,165.51,48.368,193.453l21.146-23.76L49.762,194.615l24.863-19.751-23.76,21.087,27.942-15.1L51.737,197.461l30.15-9.992L52.376,199.146,83.8,194.5Z" transform="translate(-0.732 -159.934)"/>
</svg>
