<svg xmlns="http://www.w3.org/2000/svg" width="83.711" height="63.993" viewBox="0 0 83.711 63.993">
  <path id="Ícono_estrellas" data-name="Ícono estrellas" d="M33.228,98.725a11.217,11.217,0,0,0,3.929,3.929,10.417,10.417,0,0,0,5.436,1.458,10.417,10.417,0,0,0-5.436,1.458,11.015,11.015,0,0,0-3.929,3.9,10.5,10.5,0,0,0-1.458,5.436,10.5,10.5,0,0,0-1.458-5.436,11.078,11.078,0,0,0-3.9-3.9,10.547,10.547,0,0,0-5.46-1.458,10.547,10.547,0,0,0,5.46-1.458,11.284,11.284,0,0,0,3.9-3.929,10.417,10.417,0,0,0,1.458-5.436A10.417,10.417,0,0,0,33.228,98.725Zm3.41,5.979a9.951,9.951,0,0,1,1.186-.593q-.593-.272-1.186-.618a12.208,12.208,0,0,1-4.25-4.25q-.346-.593-.618-1.186-.272.593-.593,1.186a12.418,12.418,0,0,1-4.274,4.25,11.236,11.236,0,0,1-1.161.618,8.575,8.575,0,0,1,1.161.593,12.348,12.348,0,0,1,4.274,4.274q.321.568.593,1.161a11.238,11.238,0,0,1,.618-1.161A12.141,12.141,0,0,1,36.637,104.7Zm38.1-23.843a11.078,11.078,0,0,0,3.9,3.9,10.5,10.5,0,0,0,5.436,1.458,10.5,10.5,0,0,0-5.436,1.458,11.015,11.015,0,0,0-3.9,3.929,10.417,10.417,0,0,0-1.458,5.436,10.417,10.417,0,0,0-1.458-5.436,11.217,11.217,0,0,0-3.929-3.929,10.417,10.417,0,0,0-5.436-1.458,10.417,10.417,0,0,0,5.436-1.458,11.284,11.284,0,0,0,3.929-3.9,10.547,10.547,0,0,0,1.458-5.46A10.547,10.547,0,0,0,74.737,80.861Zm3.41,5.979a11.239,11.239,0,0,1,1.161-.618q-.593-.272-1.161-.593a12.348,12.348,0,0,1-4.274-4.274,7.968,7.968,0,0,1-.593-1.186,10.105,10.105,0,0,1-.618,1.186,12.141,12.141,0,0,1-4.25,4.274q-.593.321-1.186.593.593.272,1.186.618a11.939,11.939,0,0,1,4.25,4.25q.346.593.618,1.186a9.95,9.95,0,0,1,.593-1.186A12.141,12.141,0,0,1,78.146,86.84ZM52.055,63.665A7.477,7.477,0,0,0,55.934,64.7a7.477,7.477,0,0,0-3.879,1.038,7.819,7.819,0,0,0-2.792,2.792,7.389,7.389,0,0,0-1.062,3.9,7.523,7.523,0,0,0-1.038-3.9,7.819,7.819,0,0,0-2.792-2.792A7.477,7.477,0,0,0,40.492,64.7a7.477,7.477,0,0,0,3.879-1.038,7.819,7.819,0,0,0,2.792-2.792,7.523,7.523,0,0,0,1.038-3.9,7.389,7.389,0,0,0,1.062,3.9A7.819,7.819,0,0,0,52.055,63.665ZM51.561,64.9q.148-.1.321-.2l-.346-.2A8.946,8.946,0,0,1,48.4,61.367a3.385,3.385,0,0,1-.173-.346l-.2.346A8.946,8.946,0,0,1,44.89,64.5l-.346.2.346.2a8.946,8.946,0,0,1,3.138,3.138l.2.346a3.386,3.386,0,0,1,.173-.346A8.881,8.881,0,0,1,51.561,64.9Zm5.362,47.711a3.314,3.314,0,0,0,2.891,1.655,3.154,3.154,0,0,0-1.68.469,3.284,3.284,0,0,0-1.211,1.211,3.2,3.2,0,0,0-.445,1.68,3.2,3.2,0,0,0-.445-1.68,3.548,3.548,0,0,0-1.211-1.211,3.154,3.154,0,0,0-1.68-.469,3.286,3.286,0,0,0,1.68-.445,3.548,3.548,0,0,0,1.211-1.211,3.2,3.2,0,0,0,.445-1.68A3.2,3.2,0,0,0,56.922,112.611Zm-.445,2.248a5.041,5.041,0,0,1,.593-.593,3.856,3.856,0,0,1-.593-.568,3.856,3.856,0,0,1-.593.568A5.041,5.041,0,0,1,56.478,114.859ZM13.931,79.132a3.314,3.314,0,0,0,2.891,1.655,3.286,3.286,0,0,0-1.68.445,3.548,3.548,0,0,0-1.211,1.211,3.286,3.286,0,0,0-.445,1.68,3.154,3.154,0,0,0-.469-1.68,3.548,3.548,0,0,0-1.211-1.211,3.2,3.2,0,0,0-1.68-.445,3.2,3.2,0,0,0,1.68-.445,3.284,3.284,0,0,0,1.211-1.211,3.154,3.154,0,0,0,.469-1.68A3.286,3.286,0,0,0,13.931,79.132Zm-.445,2.248a3.367,3.367,0,0,1,.593-.593,3.366,3.366,0,0,1-.593-.593,5.041,5.041,0,0,1-.593.593A5.042,5.042,0,0,1,13.486,81.38ZM4.171,115.971a3.344,3.344,0,0,0,1.211,1.186,3.073,3.073,0,0,0,1.68.469,3.2,3.2,0,0,0-1.68.445,3.284,3.284,0,0,0-1.211,1.211,3.154,3.154,0,0,0-.469,1.68,3.286,3.286,0,0,0-.445-1.68,3.284,3.284,0,0,0-1.211-1.211,3.286,3.286,0,0,0-1.68-.445,3.154,3.154,0,0,0,1.68-.469,3.344,3.344,0,0,0,1.211-1.186,3.333,3.333,0,0,0,.445-1.7A3.2,3.2,0,0,0,4.171,115.971ZM3.7,118.219a3.366,3.366,0,0,1,.593-.593,5.04,5.04,0,0,1-.593-.593,3.366,3.366,0,0,1-.593.593A3.366,3.366,0,0,1,3.7,118.219Z" transform="translate(-0.365 -56.969)"/>
</svg>
