<svg xmlns="http://www.w3.org/2000/svg" width="83.711" height="96.964" viewBox="0 0 83.711 96.964">
  <path id="Trazado_74" data-name="Trazado 74" d="M74.566,58.112a29.059,29.059,0,0,0-11.534,2.3,29.469,29.469,0,0,0-9.437,6.379,29.9,29.9,0,0,0-6.379,9.437,29.059,29.059,0,0,0-2.3,11.534,28.745,28.745,0,0,0-2.33-11.534,29.9,29.9,0,0,0-6.379-9.437,29.469,29.469,0,0,0-9.437-6.379,29.059,29.059,0,0,0-11.534-2.3,28.745,28.745,0,0,0,11.534-2.33A29.736,29.736,0,0,0,42.584,39.966a28.745,28.745,0,0,0,2.33-11.534,29.059,29.059,0,0,0,2.3,11.534A29.736,29.736,0,0,0,63.032,55.782,28.745,28.745,0,0,0,74.566,58.112ZM14.623,90.239a12.985,12.985,0,0,0,4.6,4.631,12.433,12.433,0,0,0,6.437,1.718,12.433,12.433,0,0,0-6.437,1.718,13.06,13.06,0,0,0-4.6,4.6,12.433,12.433,0,0,0-1.718,6.437,12.433,12.433,0,0,0-1.718-6.437,12.985,12.985,0,0,0-4.631-4.6A12.28,12.28,0,0,0,.146,96.589,12.28,12.28,0,0,0,6.554,94.87a12.911,12.911,0,0,0,4.631-4.631A12.28,12.28,0,0,0,12.9,83.831,12.28,12.28,0,0,0,14.623,90.239Zm58.2,16.078a12.985,12.985,0,0,0,4.631,4.6,12.28,12.28,0,0,0,6.408,1.719,12.28,12.28,0,0,0-6.408,1.718,12.911,12.911,0,0,0-4.631,4.631A12.28,12.28,0,0,0,71.1,125.4a12.28,12.28,0,0,0-1.718-6.408,12.985,12.985,0,0,0-4.6-4.631,12.433,12.433,0,0,0-6.437-1.718,12.433,12.433,0,0,0,6.437-1.719,13.06,13.06,0,0,0,4.6-4.6A12.433,12.433,0,0,0,71.1,99.88,12.433,12.433,0,0,0,72.818,106.317Z" transform="translate(-0.146 -28.432)"/>
</svg>
