<svg xmlns="http://www.w3.org/2000/svg" width="83.711" height="17.223" viewBox="0 0 83.711 17.223">
  <path id="FasesLuna" d="M31.721,88.468a8.557,8.557,0,0,1,3.019,3.019,8.388,8.388,0,0,1,0,8.4,8.557,8.557,0,0,1-3.019,3.019,8.284,8.284,0,0,1-9.079-.447,7.273,7.273,0,0,0,7.942-1.595,7.325,7.325,0,0,0-5.177-12.5,6.975,6.975,0,0,0-2.764.553,8.369,8.369,0,0,1,9.079-.447Zm32.766-1.616a8.072,8.072,0,0,1,4.21,1.127A8.556,8.556,0,0,1,71.716,91a8.033,8.033,0,0,1,1.127,4.189v.043a8.072,8.072,0,0,1-1.127,4.21,8.557,8.557,0,0,1-3.019,3.019,8.408,8.408,0,0,1-8.409,0,8.529,8.529,0,0,1-3.03-3.019,8.072,8.072,0,0,1-1.127-4.21v-.043A8.033,8.033,0,0,1,57.258,91a8.529,8.529,0,0,1,3.03-3.019A8.089,8.089,0,0,1,64.487,86.852Zm-20.582,0a8.072,8.072,0,0,1,4.21,1.127A8.557,8.557,0,0,1,51.134,91a8.388,8.388,0,0,1,0,8.4,8.557,8.557,0,0,1-3.019,3.019,8.072,8.072,0,0,1-4.21,1.127Zm52.349,8.867a7.3,7.3,0,0,0,7.314,7.314,7.218,7.218,0,0,0,2.764-.532,8.184,8.184,0,0,1-4.869,1.573,8.145,8.145,0,0,1-4.21-1.127,8.557,8.557,0,0,1-3.019-3.019,8.388,8.388,0,0,1,0-8.4,8.557,8.557,0,0,1,3.019-3.019,8.145,8.145,0,0,1,4.21-1.127,8.033,8.033,0,0,1,4.189,1.127q.361.213.7.447a7.13,7.13,0,0,0-2.785-.553,7.314,7.314,0,0,0-7.314,7.314Zm-19.54-.489a8.089,8.089,0,0,1,1.127-4.2A8.529,8.529,0,0,1,80.859,88a8.072,8.072,0,0,1,4.21-1.127v16.713a8.072,8.072,0,0,1-4.21-1.127,8.557,8.557,0,0,1-3.019-3.019A8.072,8.072,0,0,1,76.713,95.229Z" transform="translate(-22.643 -86.852)"/>
</svg>
