<svg xmlns="http://www.w3.org/2000/svg" width="83.711" height="78.476" viewBox="0 0 83.711 78.476">
  <path id="Ícono_flor" data-name="Ícono flor" d="M84.373,77.014a.323.323,0,0,1,.109.313.228.228,0,0,1-.047.141.285.285,0,0,1-.2.125q-.859.266-1.734.531a78.82,78.82,0,0,1-13.375,2.688,70.7,70.7,0,0,1-11.016.391,62.028,62.028,0,0,1-8.422-.953,44.863,44.863,0,0,1-5.313-1.3q-.719-.219-1.422-.469v35.735a.255.255,0,0,1-.156.266.406.406,0,0,1-.313,0,.255.255,0,0,1-.156-.266v-.062q-.016-.484,0-.953V78.389a.6.6,0,0,0-.078.031,1.431,1.431,0,0,0-.187.078q-.828.344-1.656.656A47.712,47.712,0,0,1,34.685,80.8a58.951,58.951,0,0,1-8.75,1.219,63.693,63.693,0,0,1-11.36-.3A72.3,72.3,0,0,1,1.044,78.827.229.229,0,0,1,.9,78.78a.358.358,0,0,1-.125-.313.491.491,0,0,1,.063-.156.25.25,0,0,1,.2-.125q.859-.266,1.734-.516a81.856,81.856,0,0,1,8.25-1.953,72.316,72.316,0,0,1-9.5-4.125.192.192,0,0,1-.156-.078.238.238,0,0,1-.063-.125.271.271,0,0,1,.031-.25.332.332,0,0,1,.2-.156.139.139,0,0,0,.063-.016l1.844-.219a78.557,78.557,0,0,1,8.422-.484,73.7,73.7,0,0,1-8.656-5.734L3.184,64.5l-.016-.016-.016-.016a.2.2,0,0,1-.047-.078.355.355,0,0,1-.023-.219.33.33,0,0,1,.117-.187.12.12,0,0,1,.047-.016.229.229,0,0,1,.219-.016l1.8.094a81.793,81.793,0,0,1,8.422,1A75.077,75.077,0,0,1,6.153,57.9a.254.254,0,0,1-.109-.125.35.35,0,0,1,.008-.219.375.375,0,0,1,.117-.172.3.3,0,0,1,.3-.031q.891.2,1.781.422A81.167,81.167,0,0,1,16.341,60.2a74.379,74.379,0,0,1-6.172-8.344.277.277,0,0,1-.078-.281,1.021,1.021,0,0,1,.063-.109.291.291,0,0,1,.133-.117.272.272,0,0,1,.211.008q.844.344,1.7.719A82.461,82.461,0,0,1,19.81,55.9a74.563,74.563,0,0,1-4.656-9.36.25.25,0,0,1,.125-.344.344.344,0,0,1,.141-.062.237.237,0,0,1,.234.078l1.5.969a83.6,83.6,0,0,1,6.828,5.094,76.167,76.167,0,0,1-2.953-9.938.385.385,0,0,1-.016-.187.35.35,0,0,1,.328-.25.3.3,0,0,1,.25.125q.672.625,1.328,1.25a78.961,78.961,0,0,1,5.8,6.156,72.764,72.764,0,0,1-1.172-10.281.279.279,0,0,1-.016-.2.152.152,0,0,1,.062-.094.323.323,0,0,1,.484,0l.047.047q.563.734,1.109,1.469,2.5,3.422,4.641,7.063a74.86,74.86,0,0,1,.625-10.36.12.12,0,0,0,.016-.047.368.368,0,0,1,.172-.227.316.316,0,0,1,.266-.023.245.245,0,0,1,.063.047.205.205,0,0,1,.109.172q.406.781.8,1.578a81.017,81.017,0,0,1,3.375,7.813A72.73,72.73,0,0,1,41.7,36.31a.353.353,0,0,1,.063-.156.289.289,0,0,1,.3-.109.3.3,0,0,1,.156.047.3.3,0,0,1,.125.219q.266.859.516,1.719a83.222,83.222,0,0,1,1.953,8.25,74.355,74.355,0,0,1,4.125-9.485.294.294,0,0,1,.078-.172.238.238,0,0,1,.125-.062.331.331,0,0,1,.25.039.309.309,0,0,1,.156.211.064.064,0,0,1,.016.047q.125.922.219,1.859a78.248,78.248,0,0,1,.484,8.422A73.7,73.7,0,0,1,56,38.482a.182.182,0,0,1,.031-.047h.016V38.42a.014.014,0,0,0,.016-.016.765.765,0,0,1,.078-.047.338.338,0,0,1,.227-.016.3.3,0,0,1,.18.125.045.045,0,0,1,.016.031.264.264,0,0,1,.016.234q-.031.891-.094,1.8a84.079,84.079,0,0,1-.984,8.406,72.533,72.533,0,0,1,7.125-7.516.187.187,0,0,1,.141-.109.25.25,0,0,1,.2-.008.337.337,0,0,1,.172.133.256.256,0,0,1,.031.3q-.2.891-.406,1.766a83.521,83.521,0,0,1-2.438,8.11A73.245,73.245,0,0,1,68.67,45.42a.249.249,0,0,1,.281-.062.232.232,0,0,1,.109.063.215.215,0,0,1,.117.117.272.272,0,0,1-.008.211q-.344.859-.719,1.7a84.071,84.071,0,0,1-3.828,7.625A75.582,75.582,0,0,1,74,50.4a.235.235,0,0,1,.2-.008.274.274,0,0,1,.133.133.344.344,0,0,1,.063.141.237.237,0,0,1-.078.234q-.469.766-.969,1.5-2.375,3.547-5.094,6.844a73.074,73.074,0,0,1,9.938-2.953.237.237,0,0,1,.188-.016.265.265,0,0,1,.18.109.355.355,0,0,1,.07.219.283.283,0,0,1-.125.234l-1.25,1.344a80.787,80.787,0,0,1-6.156,5.781A75.958,75.958,0,0,1,81.373,62.8a.321.321,0,0,1,.313.063.318.318,0,0,1,.094.234.344.344,0,0,1-.109.25l-.031.031q-.734.563-1.484,1.109a81.65,81.65,0,0,1-7.063,4.641,73.291,73.291,0,0,1,10.36.641h.062a.36.36,0,0,1,.211.18.3.3,0,0,1,.023.258.2.2,0,0,1-.047.078.205.205,0,0,1-.172.109q-.781.406-1.563.8a85.079,85.079,0,0,1-7.828,3.359,74.9,74.9,0,0,1,10.094,2.422A.229.229,0,0,1,84.373,77.014ZM82.17,77a72.124,72.124,0,0,0-9.25-2.016q-1.813.641-3.656,1.188-2.047.594-4.109,1.078l2.484-.031q1.234-.031,2.469-.047,4.969-.062,9.938-.141.531-.016,1.063-.016Q81.639,77,82.17,77ZM34.732,52.42q.25,2.938.766,5.828.078.234.172.453.188.531.391,1.063.891,1.516,1.7,3.078.594,1.141,1.125,2.3-.25-1.969-.375-3.938-.094-1.484-.125-2.969a73.335,73.335,0,0,0-3.344-7.375q-.234-.453-.484-.891Q34.622,51.2,34.732,52.42Zm4.531-.984q-.25,2.938-.25,5.875.063.391.141.766.078.406.156.828.625,1.656,1.141,3.344.391,1.2.719,2.422.094-1.984.313-3.969.156-1.453.391-2.906a72.247,72.247,0,0,0-2-7.781q-.156-.516-.344-1.031Q39.372,50.2,39.263,51.435Zm5.5-1.5-.156-1.063q-.375,1.2-.7,2.422-.766,2.813-1.266,5.688,0,.281.016.547,0,.547.016,1.109.313,1.7.531,3.406.172,1.3.281,2.578.422-1.922.984-3.813.422-1.422.906-2.844A71.475,71.475,0,0,0,44.763,49.935Zm1.969,27.579q2.063-.2,4.094-.578a62.328,62.328,0,0,0,6.125-1.469q-.078.016-.141.031-.125.016-.266.047-4.875.938-9.766,1.875a.258.258,0,0,0-.078.016l-.219.063a.3.3,0,0,0-.094.016h.344Zm-11.563-.125q1.594.188,3.188.25H38.9q-.281-.062-.547-.125a.346.346,0,0,1-.109-.016l-.75-.125-5.109-.813q-2.547-.406-5.094-.828-.563-.094-1.125-.172a2.644,2.644,0,0,0-.281-.047q.5.141,1.016.281A55.412,55.412,0,0,0,35.169,77.389ZM39.232,62.4q.2,2.438.609,4.859.438,1.016.828,2.063L39.419,62.8q-.047-.266-.094-.516-.094-.469-.172-.938Q39.185,61.873,39.232,62.4Zm-1.75,10.547q1,1.047,2.063,2.016l.063.063a.182.182,0,0,0,.047.031.014.014,0,0,0,.016.016,1.646,1.646,0,0,0,.141.094.512.512,0,0,0,.078.063v-.016q-.094-.109-.188-.234Q38.622,73.936,37.482,72.951Zm10.094-.219q-1.047,1-2.016,2.063a.245.245,0,0,0-.047.063l-.047.047a.014.014,0,0,1-.016.016,1.647,1.647,0,0,1-.094.141.511.511,0,0,1-.062.078h.016q.109-.094.234-.187Q46.591,73.873,47.576,72.733Zm-1.188,3.391q1.359-.656,2.656-1.391-1.313.578-2.578,1.234l-.094.063a102.228,102.228,0,0,0-.063.031.045.045,0,0,1-.031.016,1.02,1.02,0,0,0-.109.094.4.4,0,0,0-.094.047h.031ZM48.4,73.67q-1.188.8-2.328,1.656a.621.621,0,0,1-.094.078.1.1,0,0,1-.047.047l-.125.125-.062.063h.016a2.141,2.141,0,0,1,.266-.141Q47.248,74.623,48.4,73.67ZM45,74.483q.844-1.234,1.609-2.531-.844,1.156-1.625,2.359l-.062.125a.014.014,0,0,1-.016.016.064.064,0,0,1-.016.047q-.031.062-.062.141a.764.764,0,0,1-.047.078h.016A2.184,2.184,0,0,1,45,74.483Zm-.625-.359q.609-1.375,1.141-2.781-.625,1.3-1.172,2.609a.857.857,0,0,0-.047.109.606.606,0,0,1-.031.078q-.016.078-.031.172a.606.606,0,0,0-.031.078l.016-.016Zm-.688-.234q.375-1.453.656-2.938-.406,1.391-.719,2.8a.257.257,0,0,0-.016.078.139.139,0,0,1-.016.063V73.9a.878.878,0,0,1-.016.172v.078A2.025,2.025,0,0,0,43.685,73.889Zm-.781.188a.045.045,0,0,0,.016-.031l.063-.281q.109-1.5.125-3-.156,1.422-.219,2.859v.2a.8.8,0,0,0,.016.156Zm-.656-.312q-.141-1.5-.391-2.984.094,1.438.281,2.859a.346.346,0,0,1,.016.109.12.12,0,0,1,.016.047v.031a.891.891,0,0,1,.047.156l.031.094Zm-.7.141q-.406-1.438-.906-2.859.344,1.391.781,2.766l.031.094a.045.045,0,0,0,.016.031.064.064,0,0,0,.016.047q.031.078.063.141a.394.394,0,0,1,.047.094V74.17A2.011,2.011,0,0,1,41.544,73.9Zm-.688.234q-.641-1.344-1.391-2.656.594,1.313,1.25,2.578l.063.125a.045.045,0,0,1,.016.031l.031.031a.821.821,0,0,1,.078.125.513.513,0,0,1,.063.078.045.045,0,0,0-.016-.031ZM38.4,72.123q.8,1.188,1.672,2.328a.513.513,0,0,0,.063.078l.016.016a.045.045,0,0,1,.016.031l.031.031a1.174,1.174,0,0,1,.125.109l.063.063-.016-.016-.125-.25Q39.357,73.3,38.4,72.123Zm.828,3.406q-1.25-.844-2.531-1.609,1.156.844,2.359,1.625a.12.12,0,0,0,.047.016.2.2,0,0,0,.078.047.045.045,0,0,0,.031.016.045.045,0,0,0,.031.016l.125.063a.4.4,0,0,0,.094.047l-.016-.016Q39.341,75.639,39.232,75.53Zm-.359.625q-1.375-.609-2.781-1.141,1.281.625,2.609,1.188h.031a.607.607,0,0,1,.078.031.045.045,0,0,1,.031.016.12.12,0,0,1,.047.016l.156.031.094.031h-.016Q39,76.233,38.872,76.155Zm-.234.688q-1.453-.375-2.938-.641,1.391.391,2.8.7.063.016.141.031l.156.031.219.031a.045.045,0,0,0-.031-.016Q38.81,76.92,38.638,76.842Zm7.578.047a1.642,1.642,0,0,0,.219-.047.3.3,0,0,0,.094-.016q1.5-.422,2.969-.922-1.406.344-2.781.766a.6.6,0,0,1-.078.031.064.064,0,0,1-.047.016.014.014,0,0,0-.016.016h-.031a2.143,2.143,0,0,1-.219.109A.348.348,0,0,1,46.216,76.889Zm7.047-1.781q-1.016.437-2.047.828,3.25-.625,6.516-1.25a2.327,2.327,0,0,1,.234-.047q.609-.125,1.219-.234-.531.031-1.063.078Q55.685,74.686,53.263,75.108Zm-1.5-.359,1.328-.25q1.641-.688,3.234-1.484-.234.078-.453.172-1.016.391-2.047.781ZM57,72.092q.672-.25,1.328-.5-.5.109-1,.25-2.375.625-4.7,1.453-.922.609-1.875,1.172l3.125-1.188Zm-5.906,1.125q.625-.25,1.25-.469,1.484-.984,2.922-2.031a1.747,1.747,0,0,0-.188.109l-.187.125q-.547.313-1.094.641Q52.435,72.4,51.091,73.217ZM55.748,69.7l1.25-.75q-.5.219-.984.438-2.219,1.031-4.344,2.25-.813.75-1.641,1.469Zm-4.453,1.438q1.3-1.219,2.516-2.5l-.3.266q-1.688,1.453-3.359,2.906Q50.716,71.467,51.294,71.139Zm2.813-3.578a.513.513,0,0,1,.078-.062l1.031-.906q-.438.3-.875.609-2.016,1.391-3.891,2.969-.672.875-1.375,1.734l1.766-1.516Zm-5.141,3.047q.516-.453,1.031-.875,1.063-1.422,2.047-2.906l-.156.188a2.2,2.2,0,0,1-.141.188q-.688.844-1.391,1.7Q49.669,69.748,48.966,70.608Zm3.2-4.922q.078-.094.141-.172.391-.469.766-.938-.406.391-.8.781-1.719,1.7-3.3,3.563-.5.984-1.031,1.953,1.266-1.547,2.531-3.109Q51.326,66.717,52.17,65.686Zm-4.563,3.938q.422-.531.859-1.031.8-1.594,1.516-3.234-.047.094-.094.172l-.125.219q-.531.969-1.078,1.938Q48.154,68.655,47.607,69.623Zm2.3-5.391.344-.625q.172-.313.359-.641-.328.438-.625.875-1.406,2-2.641,4.125-.328,1.047-.688,2.094Q48.279,67.139,49.9,64.233Zm-3.8,4.641q.313-.594.656-1.172.516-1.688.922-3.406l-.125.375q-.375,1.063-.734,2.109ZM47.4,63.2l.125-.344q.172-.516.359-1.047-.234.469-.453.953-1.047,2.219-1.906,4.531-.125,1.094-.3,2.188.531-1.563,1.078-3.141Q46.857,64.779,47.4,63.2ZM44.482,68.42q.219-.641.453-1.281.2-1.766.313-3.547l-.031.25a2.329,2.329,0,0,1-.047.234q-.172,1.078-.344,2.172Q44.654,67.326,44.482,68.42Zm.313-5.875q.062-.344.109-.7.063-.344.109-.688l-.281,1q-.641,2.375-1.078,4.8.063,1.109.078,2.219.469-2.953.953-5.906Q44.732,62.9,44.794,62.545Zm-1.984,5.7q.094-.672.219-1.328-.094-1.781-.3-3.563,0,.234.016.453Zm-.734-7.266q-.063.547-.109,1.094-.219,2.438-.234,4.859.25,1.078.469,2.172-.047-2.234-.078-4.469-.016-1.094-.031-2.2Q42.091,61.717,42.076,60.983Zm-.953,7.375q-.016-.672-.016-1.344-.391-1.734-.891-3.438.016.109.031.2a1.161,1.161,0,0,0,.047.2q.141.781.3,1.563Zm-1.625.406q-.141-.656-.25-1.328-.7-1.625-1.484-3.219l.125.344.031.094.25.656Q38.841,67.03,39.5,68.764Zm-2.672-5.234q-.063-.188-.141-.375-.172-.469-.359-.953l.25,1q.641,2.375,1.469,4.7.609.922,1.172,1.875l-1.188-3.125Q37.435,65.092,36.825,63.529Zm1.125,5.922q-.234-.625-.469-1.266-.969-1.484-2.031-2.922l.125.188q.047.094.109.2.563.938,1.141,1.891Zm-3.516-4.672q-.375-.625-.734-1.25.219.5.438.984,1.031,2.219,2.25,4.344.75.813,1.469,1.641-1.047-1.75-2.109-3.516Q35.091,65.873,34.435,64.779Zm2.125,5.609q-.359-.578-.688-1.156-1.2-1.3-2.484-2.516a.621.621,0,0,0,.078.094l.188.219Q35.107,68.7,36.56,70.389ZM32.31,66.42q-.172-.187-.328-.375l-.641-.734.594.875Q33.341,68.2,34.9,70.076q.891.672,1.75,1.375Q35.2,69.78,33.747,68.092,33.029,67.264,32.31,66.42Zm3.047,5.141q-.453-.516-.891-1.031-1.422-1.063-2.891-2.047a1.172,1.172,0,0,1,.125.109q.125.094.234.188.531.438,1.063.859Q34.169,70.608,35.357,71.561Zm-4.938-3.2q-.266-.234-.547-.453l-.547-.453q.375.406.766.8,1.719,1.719,3.578,3.3.984.5,1.953,1.047Q33.029,70.467,30.419,68.358Zm3.953,4.563q-.531-.422-1.047-.844-1.594-.813-3.219-1.531.188.109.391.219Zm-5.391-2.281-.875-.5q-.2-.109-.391-.2.422.313.859.609Q30.591,71.967,32.7,73.2q1.063.313,2.094.688l-2.906-1.625Zm4.625,3.8L32.45,73.78q-1.7-.516-3.422-.938.094.031.2.062l.188.063q1.047.375,2.094.734T33.607,74.436ZM27.95,73.123q-.7-.234-1.391-.484.469.234.938.453Q29.732,74.139,32.044,75q1.094.125,2.188.313-1.344-.469-2.672-.938Q29.747,73.748,27.95,73.123Zm5.2,2.922q-.641-.2-1.266-.438-1.766-.219-3.547-.328.234.031.484.078l2.156.344Zm26.172-2.281q1.484-.094,2.969-.109A71.191,71.191,0,0,0,69.67,70.3l.906-.469q-1.234.047-2.469.156-2.938.25-5.828.766-.313.125-.641.234l-.875.344q-1.516.891-3.078,1.7-1.141.578-2.281,1.125Q57.357,73.889,59.326,73.764Zm-1-2.828q1.453-.344,2.938-.641a70.141,70.141,0,0,0,6.656-4.547q.406-.328.828-.656-1.219.281-2.438.594-2.813.75-5.563,1.75-.7.422-1.422.844Q58,69.42,56.607,70.483,55.591,71.264,54.56,72,56.42,71.4,58.326,70.936ZM56.92,68.311q1.359-.594,2.734-1.125a72.463,72.463,0,0,0,5.719-5.594l.75-.844q-1.125.484-2.25,1-2.672,1.234-5.234,2.719a1.706,1.706,0,0,1-.141.125q-.531.469-1.078.922-1.109,1.344-2.281,2.625-.875.953-1.781,1.875Q55.107,69.108,56.92,68.311Zm-1.891-2.328q1.234-.828,2.516-1.594a75.262,75.262,0,0,0,4.656-6.5q.3-.469.594-.953-1.063.688-2.094,1.406-2.391,1.672-4.625,3.547-.516.625-1.016,1.25-.875,1.531-1.828,3.016-.688,1.078-1.422,2.125Q53.388,67.076,55.029,65.983Zm-2.234-2q1.063-1.016,2.172-1.969a71.454,71.454,0,0,0,3.484-7.266q.2-.5.391-1-.906.844-1.8,1.734-2.078,2.063-3.953,4.313-.391.7-.8,1.422-.578,1.641-1.25,3.25-.5,1.188-1.047,2.359Q51.357,65.358,52.795,63.983Zm-2.578-1.547q.875-1.188,1.8-2.328a68.967,68.967,0,0,0,2.172-7.75q.109-.531.219-1.047-.75.969-1.453,1.984-1.7,2.406-3.172,4.969a2.3,2.3,0,0,1-.078.25q-.219.641-.453,1.281-.281,1.734-.672,3.453-.281,1.234-.594,2.453Q49.044,64.029,50.216,62.436Zm.047-14q-.031,1.938-.141,3.859-.141,2.125-.391,4.219.156-.469.328-.953.641-1.859,1.3-3.7,1.625-4.7,3.25-9.391.359-1.016.7-2.031A74.284,74.284,0,0,0,50.263,48.435Zm-.688,2.234.031-1q-.547,1.078-1.078,2.188-1.25,2.672-2.266,5.453-.078.531-.172,1.063-.031.266-.078.531.016,1.75-.063,3.516-.062,1.281-.172,2.547.75-1.828,1.641-3.594.656-1.328,1.375-2.625A69.968,69.968,0,0,0,49.576,50.67ZM35.685,62.2q-.359-1.453-.641-2.922a69.586,69.586,0,0,0-4.563-6.656q-.313-.422-.641-.844.266,1.219.594,2.438.75,2.828,1.75,5.563.422.719.844,1.422,1.141,1.328,2.2,2.719.766,1.016,1.5,2.047Q36.154,64.108,35.685,62.2Zm-2.641,1.406q-.594-1.344-1.109-2.734a70.874,70.874,0,0,0-5.609-5.719q-.406-.375-.828-.75.469,1.141.984,2.25,1.25,2.672,2.719,5.234a2.186,2.186,0,0,1,.2.234q.438.484.859.984,1.344,1.109,2.609,2.281.953.875,1.875,1.781Q33.841,65.42,33.044,63.608ZM30.716,65.5q-.828-1.234-1.578-2.516a75.259,75.259,0,0,0-6.5-4.656q-.484-.3-.953-.594.672,1.063,1.391,2.094,1.672,2.406,3.547,4.641l.625.5q.312.25.625.516Q29.4,66.342,30.9,67.3q1.063.688,2.109,1.422Q31.81,67.139,30.716,65.5Zm-1.984,2.234q-1.016-1.063-1.984-2.172a73.828,73.828,0,0,0-7.266-3.484q-.484-.2-.984-.391.844.906,1.719,1.8,2.078,2.078,4.313,3.953.313.172.609.344.406.219.813.453,1.656.594,3.266,1.266,1.188.484,2.359,1.031Q30.107,69.186,28.732,67.733Zm-1.547,2.578q-1.188-.875-2.328-1.8a73.676,73.676,0,0,0-7.75-2.172l-1.063-.219q.984.75,2,1.453Q20.45,69.28,23,70.748q.156.047.313.109.609.2,1.219.422,1.734.3,3.453.672,1.234.281,2.469.609Q28.778,71.483,27.185,70.311Zm-11.766.641L14.4,70.92Q15.5,71.483,16.591,72q2.688,1.266,5.469,2.266l1.578.25q1.766,0,3.516.078,1.281.047,2.563.156-1.828-.75-3.594-1.625-1.344-.656-2.641-1.391A74.879,74.879,0,0,0,15.419,70.951Zm-2.234-.688q1.938.031,3.859.141,2.109.141,4.219.391-1.344-.453-2.688-.922-.984-.344-1.984-.688-2.344-.828-4.688-1.641-2.359-.813-4.7-1.625-1.016-.359-2.016-.7A72.288,72.288,0,0,0,13.184,70.264Zm12.375,5.8q-1.438-.422-2.844-.906a74.027,74.027,0,0,0-8.031.625q-.531.062-1.063.141,1.2.375,2.422.7,2.813.766,5.688,1.266L28.56,77.8l2.2-.031q1.109-.016,2.219-.047A56.556,56.556,0,0,1,25.56,76.061Zm1.609,2.375q-.359,0-.719.016h-.719q.547.062,1.094.109a57.411,57.411,0,0,0,8.36.141q1.953-.125,3.891-.406-.328-.016-.656-.016h-.906q-2.578.047-5.172.078Q29.763,78.4,27.169,78.436Zm19.532-.3q-.234.031-.453.047h-.031q2.344.2,4.688.172A60,60,0,0,0,57.17,78h-.453q-4.969.078-9.938.141Zm11.391-.781,3.766-.063a72.984,72.984,0,0,0,8.656-2.156l1.031-.344q-1.219-.156-2.453-.266-2.938-.266-5.875-.266-.406.078-.8.156t-.8.156q-1.656.609-3.328,1.141a62.629,62.629,0,0,1-6.875,1.734q1.672-.031,3.344-.047Q56.435,77.373,58.091,77.358Zm12.61-3.3q1.078.125,2.156.281A80.065,80.065,0,0,0,81.311,70.8q-.187.047-.391.078-1.2.234-2.422.469-.7.125-1.406.266-4.375.844-8.735,1.672-1.109.219-2.2.422Q68.435,73.811,70.7,74.061ZM81.42,70.139a75.6,75.6,0,0,0-9.469-.375q-1.688.953-3.422,1.813-1.891.938-3.844,1.766l2.641-.5q1.109-.2,2.219-.422,4.875-.938,9.766-1.875Q80.358,70.342,81.42,70.139Zm-11.86-.891q1.109-.063,2.219-.094a84.188,84.188,0,0,0,7.7-4.953q-.563.2-1.109.422-.8.3-1.609.609-4.828,1.828-9.656,3.672-1.031.391-2.047.781Q67.295,69.389,69.56,69.248Zm9.922-5.719a71.39,71.39,0,0,0-9.391,1.281q-1.484,1.219-3.031,2.359-1.7,1.25-3.484,2.422,1.156-.453,2.328-.891,1.156-.453,2.328-.891,4.641-1.766,9.3-3.531Q78.5,63.9,79.483,63.529Zm-9.656.688A79.413,79.413,0,0,0,76.5,58.061l-.969.563q-.734.422-1.453.859-4.438,2.641-8.875,5.3-.672.406-1.359.813-.266.156-.547.328,2.188-.688,4.438-1.234Q68.779,64.436,69.826,64.217Zm6.594-6.859A72.54,72.54,0,0,0,67.4,60.233q-1.234,1.453-2.563,2.828-1.469,1.563-3.031,3.016,2.125-1.266,4.266-2.547,1.422-.844,2.844-1.7l2.844-1.7q1.422-.852,2.844-1.7l.781-.469Q75.9,57.654,76.42,57.357ZM64.967,60.576q1.031-.453,2.063-.859a81.55,81.55,0,0,0,5.547-7.3q-.625.531-1.25,1.078l-.906.781q-3.906,3.391-7.813,6.766-.859.734-1.7,1.469Q62.9,61.467,64.967,60.576Zm7.375-8.781A71.294,71.294,0,0,0,63.967,56.2q-.969,1.625-2,3.188-1.2,1.813-2.5,3.547Q61.326,61.311,63.2,59.7q1.875-1.625,3.766-3.25l3.75-3.25,1.219-1.063ZM61.717,56.889q.891-.578,1.8-1.141A80.029,80.029,0,0,0,67.7,47.607q-.375.453-.75.922-.547.672-1.094,1.328-3.266,4.016-6.516,8.016-.7.859-1.391,1.7Q59.795,58.17,61.717,56.889Zm5.641-9.86a72.1,72.1,0,0,0-7.485,5.8q-.688,1.813-1.453,3.578-.844,1.938-1.813,3.828.8-.969,1.578-1.938.8-.969,1.578-1.938,3.141-3.844,6.281-7.7l.656-.813Zm-9.625,6.906q.8-.75,1.609-1.469a81.393,81.393,0,0,0,2.7-8.688q-.281.484-.563.984-.422.734-.828,1.469-1.266,2.25-2.516,4.516Q56.873,53,55.623,55.264q-.219.375-.422.75-.328.594-.656,1.172Q56.076,55.514,57.732,53.936Zm3.891-10.719a71.115,71.115,0,0,0-6.359,7q-.359,1.875-.813,3.75-.5,2.063-1.109,4.109l2.406-4.344q2.422-4.344,4.844-8.672l.625-1.125ZM53.341,51.7q.656-.891,1.328-1.75a78.62,78.62,0,0,0,1.156-9.094q-.313.891-.625,1.8l-.312.906-1.125,3.25q-1.141,3.25-2.266,6.516-.156.453-.313.891-.2.609-.422,1.219Q51.982,53.529,53.341,51.7Zm-3.7-3.422a78.867,78.867,0,0,0-.437-9.141q-.094.578-.188,1.172-.141.844-.281,1.7-.828,5.094-1.641,10.2-.063.344-.109.688l-.25,1.469q.875-2.094,1.875-4.125Q49.107,49.264,49.638,48.279Zm-1.016-9.485a69.953,69.953,0,0,0-3.594,8.781q.313,1.906.531,3.828.234,2.094.344,4.2.2-1.219.406-2.453t.391-2.469q.8-4.906,1.578-9.813.094-.516.172-1.047Q48.529,39.31,48.623,38.795Zm-4.234,8.719a80.65,80.65,0,0,0-2-8.86v1.109q.016.859.016,1.7.047,2.578.078,5.156.047,2.594.078,5.172.016.563.016,1.109.016.547.016,1.109.5-2.25,1.156-4.453Q44.06,48.529,44.388,47.514Zm-2.656-9.156a73.881,73.881,0,0,0-2,9.25q.625,1.813,1.172,3.656.609,2.047,1.094,4.125-.016-1-.031-1.984-.031-1.5-.047-2.984-.016-1.234-.047-2.453-.047-3.75-.109-7.485,0-.531-.016-1.047Q41.747,38.9,41.732,38.357ZM39.091,47.67a80.064,80.064,0,0,0-3.547-8.453q.125.7.266,1.406t.266,1.406q.484,2.531.984,5.078.484,2.531.969,5.078.109.547.2,1.094.109.547.219,1.109.094-2.281.359-4.547Q38.935,48.748,39.091,47.67Zm-4.2-8.563a71.832,71.832,0,0,0-.375,9.469q.953,1.688,1.813,3.422.938,1.891,1.766,3.844-.234-1.219-.469-2.422-.234-1.219-.453-2.438-.516-2.656-1.031-5.3-.422-2.234-.844-4.453Zm-1,9.641a81.87,81.87,0,0,0-4.938-7.7q.2.563.406,1.109.313.813.609,1.609l3.688,9.656q.188.516.391,1.031.188.516.391,1.016-.3-2.234-.438-4.5Q33.919,49.857,33.888,48.748Zm-5.609-7.7a69.649,69.649,0,0,0,1.266,9.391q1.219,1.484,2.359,3.031,1.266,1.719,2.422,3.5-.875-2.344-1.766-4.672l-2.781-7.281q-.375-1-.766-2-.141-.406-.3-.813Zm.688,9.656a81.118,81.118,0,0,0-6.172-6.672q.281.484.578.969.422.734.844,1.453.547.891,1.078,1.8,2.109,3.531,4.234,7.078l1.125,1.906q-.688-2.188-1.219-4.422Q29.185,51.764,28.966,50.7Zm-6.875-6.594a71.444,71.444,0,0,0,2.875,9.016q1.453,1.234,2.844,2.563,1.547,1.469,3.016,3.031l-1.281-2.125q-.625-1.063-1.266-2.141L23.185,45.92q-.219-.344-.422-.688Q22.435,44.67,22.091,44.107ZM25.31,55.561q-.438-1.031-.859-2.063a78.67,78.67,0,0,0-7.3-5.547l1.25,1.438.625.719,6.766,7.828.719.844q.375.422.734.844Q26.216,57.623,25.31,55.561Zm-8.781-7.375a74.57,74.57,0,0,0,4.406,8.375q1.625.969,3.2,2,1.8,1.2,3.531,2.5-.531-.625-1.078-1.234-.531-.625-1.07-1.25t-1.086-1.25q-1.625-1.875-3.25-3.766l-3.25-3.75q-.266-.328-.547-.641Q16.966,48.67,16.528,48.185Zm5.109,10.625q-.594-.891-1.141-1.781a77.3,77.3,0,0,0-8.156-4.2q.469.375.938.766l1.328,1.078q4,3.266,8.016,6.531l.844.688q.422.344.859.688Q22.9,60.748,21.638,58.811Zm-9.86-5.641a69.356,69.356,0,0,0,5.8,7.485q1.8.688,3.578,1.453,1.938.859,3.828,1.813-1.047-.859-2.109-1.719-.875-.719-1.766-1.438l-3.859-3.141q-1.922-1.563-3.844-3.141ZM18.685,62.8q-.75-.8-1.484-1.609a81.875,81.875,0,0,0-8.672-2.7l.969.563q.734.422,1.484.828Q15.481,62.389,20,64.9q.266.141.516.3.7.391,1.422.781Q20.247,64.451,18.685,62.8ZM7.95,58.9a70.875,70.875,0,0,0,7,6.359q1.891.359,3.75.813,2.078.5,4.109,1.125-.844-.484-1.688-.953-1.328-.734-2.641-1.469L9.794,59.936q-.234-.141-.484-.266Q8.637,59.279,7.95,58.9Zm8.5,8.3q-.891-.656-1.766-1.344A78.048,78.048,0,0,0,5.591,64.7q.828.281,1.641.563l1.063.375q4.891,1.7,9.766,3.391l1.063.375q.531.172,1.063.359Q18.263,68.545,16.45,67.2ZM15,71.92q-1-.5-1.969-1.031a83.937,83.937,0,0,0-9.156.438q.594.094,1.188.2.844.125,1.688.266,2.547.406,5.109.828l5.094.813q.5.094,1,.172l1.172.188Q17.028,72.92,15,71.92ZM3.544,71.9A70.388,70.388,0,0,0,12.309,75.5q1.906-.313,3.828-.531,2.109-.234,4.219-.344-2.469-.406-4.938-.8-2.453-.391-4.906-.8l-4.906-.781ZM14.309,76.78q-1.031-.3-2.063-.641a80.649,80.649,0,0,0-8.86,2H4.512q.844,0,1.688-.016l10.344-.156,2.219-.031Q16.513,77.436,14.309,76.78ZM27.153,81.3a55.716,55.716,0,0,0,8.266-1.313q1.922-.453,3.8-1.078a48.852,48.852,0,0,1-4.922.469,55.73,55.73,0,0,1-8.844-.328q-1.891-.2-3.75-.531-1.641.031-3.266.047-1.641.031-3.281.047l-9.781.156H5.216q-.531,0-1.047.016-.531,0-1.063.016a71.519,71.519,0,0,0,13.078,2.469A62.22,62.22,0,0,0,27.153,81.3Zm32.172-.672a71.472,71.472,0,0,0,11.266-.609,79.816,79.816,0,0,0,11.281-2.375q-.547.016-1.109.016-.844,0-1.7.016l-10.328.156h-.281L61.9,77.92q-1.7.312-3.422.531a60.627,60.627,0,0,1-8.469.531q-1.953,0-3.891-.172,2.266.594,4.594.984A61.29,61.29,0,0,0,59.326,80.624Z" transform="translate(-0.777 -36.039)"/>
</svg>
