<svg xmlns="http://www.w3.org/2000/svg" width="83.773" height="83.653" viewBox="0 0 83.773 83.653">
  <path id="Exclusión_2" data-name="Exclusión 2" d="M63.853,83.653H19.917A19.94,19.94,0,0,1,0,63.736V19.917A19.94,19.94,0,0,1,19.917,0H63.853a19.941,19.941,0,0,1,19.92,19.917V63.736A19.941,19.941,0,0,1,63.853,83.653ZM41.847,18.784A23.041,23.041,0,1,0,64.915,41.824,23.08,23.08,0,0,0,41.847,18.784ZM67.779,10.82a9.1,9.1,0,1,0,9.106,9.1A9.112,9.112,0,0,0,67.779,10.82Zm-25.932,47.8A16.795,16.795,0,1,1,58.67,41.824,16.828,16.828,0,0,1,41.847,58.619ZM67.779,22.77a2.853,2.853,0,1,1,2.861-2.853A2.86,2.86,0,0,1,67.779,22.77Z"/>
</svg>
