<svg xmlns="http://www.w3.org/2000/svg" width="83.711" height="105.686" viewBox="0 0 83.711 105.686">
  <path id="Luna" d="M66.7-57.724A44.636,44.636,0,0,0,43.44-51.473,47.424,47.424,0,0,0,26.685-34.718a44.636,44.636,0,0,0-6.251,23.264,44.755,44.755,0,0,0,6.251,23.328A47.424,47.424,0,0,0,43.44,28.629,44.636,44.636,0,0,0,66.7,34.88,45.527,45.527,0,0,0,84.3,31.465q-2.062,1.482-4.318,2.835a51.305,51.305,0,0,1-26.615,7.089A51.185,51.185,0,0,1,26.814,34.3,54.448,54.448,0,0,1,7.675,15.161,51.305,51.305,0,0,1,.586-11.454,51.185,51.185,0,0,1,7.675-38,54.448,54.448,0,0,1,26.814-57.144,50.832,50.832,0,0,1,53.364-64.3a50.951,50.951,0,0,1,26.615,7.153q2.255,1.353,4.318,2.835A45.527,45.527,0,0,0,66.7-57.724Z" transform="translate(-0.586 64.297)"/>
</svg>
