<svg xmlns="http://www.w3.org/2000/svg" width="83.711" height="64.481" viewBox="0 0 83.711 64.481">
  <path id="Ícono_mano" data-name="Ícono mano" d="M28.775,66.2a.257.257,0,0,1-.061.17.2.2,0,0,1-.158.073L19.581,66.2l8.976-.218a.208.208,0,0,1,.218.218Zm.655-1.577a.176.176,0,0,1-.243,0l-2.208-2.45,2.45,2.208a.176.176,0,0,1,0,.243Zm0,3.178a.151.151,0,0,1,.049.109.246.246,0,0,1-.049.133l-2.45,2.208,2.208-2.45a.217.217,0,0,1,.121-.061A.116.116,0,0,1,29.43,67.8Zm1.577-3.833a.2.2,0,0,1-.158-.073.228.228,0,0,1-.061-.146l.218-8.976.243,8.976a.21.21,0,0,1-.073.146A.233.233,0,0,1,31.007,63.966Zm.243,4.706-.243,8.976-.218-8.976a.208.208,0,0,1,.218-.218.257.257,0,0,1,.17.061A.2.2,0,0,1,31.249,68.672Zm3.809,1.577-2.45-2.208a.246.246,0,0,1-.049-.133.151.151,0,0,1,.049-.109q.049-.073.109-.061a.382.382,0,0,1,.133.061Zm-2.45-5.628a.176.176,0,0,1,0-.243l2.45-2.208-2.208,2.45a.246.246,0,0,1-.133.049A.151.151,0,0,1,32.608,64.621Zm.873,1.359,8.976.218-8.976.243a.2.2,0,0,1-.158-.073.257.257,0,0,1-.061-.17.208.208,0,0,1,.218-.218Zm8.224,15.866a.166.166,0,0,1-.17.17l-6.6-.17,6.6-.17a.166.166,0,0,1,.17.17Zm.485-1.359a.123.123,0,0,1-.1.218.14.14,0,0,1-.1-.049l-1.625-1.8Zm0,2.523a.161.161,0,0,1,0,.17L40.371,84.8,42,83.009a.121.121,0,0,1,.194,0ZM43.355,80.2a.166.166,0,0,1-.17-.17l.17-6.623.17,6.623a.166.166,0,0,1-.17.17Zm.17,3.469-.17,6.6-.17-6.6a.17.17,0,1,1,.34,0Zm.995-.655a.14.14,0,0,1,.1-.049.078.078,0,0,1,.073.049l1.65,1.8-1.819-1.625a.1.1,0,0,1,0-.17Zm0-2.329a.121.121,0,0,1,0-.194l1.819-1.625-1.65,1.8a.078.078,0,0,1-.073.049A.215.215,0,0,1,44.519,80.681Zm.655.995,6.6.17-6.6.17a.17.17,0,1,1,0-.34Zm4.561-21.154a.082.082,0,0,1-.036.073.149.149,0,0,1-.085.024l-3.93-.1,3.93-.1a.149.149,0,0,1,.085.024A.082.082,0,0,1,49.735,60.521Zm.267-.7q0,.024-.036.024a.082.082,0,0,1-.061-.024l-.97-1.067L50,59.72a.07.07,0,0,1,.024.049v.049Zm.024,1.407v.049a.07.07,0,0,1-.024.049l-1.067.97.97-1.067a.082.082,0,0,1,.061-.024q.036,0,.036.024Zm.679-1.7a.086.086,0,0,1-.1-.1l.1-3.954.1,3.954a.086.086,0,0,1-.1.1Zm.1,2.086-.1,3.954-.1-3.954a.1.1,0,1,1,.194,0Zm1.7.679-1.092-.97a.069.069,0,1,1,.1-.1Zm-1.092-2.474a.061.061,0,0,1,0-.1l1.092-.97-.995,1.067a.061.061,0,0,1-.1,0Zm.291.7a.086.086,0,0,1,.1-.1l3.954.1-3.954.1a.086.086,0,0,1-.1-.1ZM82.364,97.468a15.351,15.351,0,0,1,1.7,5.6,25.094,25.094,0,0,1,.073,4.8,14.783,14.783,0,0,1-.17,1.48v.073a1.522,1.522,0,0,1-.073.328.8.8,0,0,1-.194.279q-.509.364-1.043.679l-.194.1a31.806,31.806,0,0,1-3.493,1.722,57.169,57.169,0,0,1-14.337,3.857q-2.3.315-4.585.558-2.547.291-5.094.655-1.941.291-3.882.655-1.48.243-2.984.485a30.387,30.387,0,0,1-5.264.509,19.2,19.2,0,0,1-5.24-.776,43.463,43.463,0,0,1-5.507-2.111q-.631-.267-1.237-.534-4-1.7-8.078-3.251A133.437,133.437,0,0,0,7.645,107.56a19.357,19.357,0,0,0-4.682-.825,4.718,4.718,0,0,1-1.2-.17,2.046,2.046,0,0,1-1.019-.582,1.118,1.118,0,0,1-.158-1.14,3.209,3.209,0,0,1,1.65-1.662,8.961,8.961,0,0,1,2.256-.764,13.5,13.5,0,0,1,4.294-.23,37.331,37.331,0,0,1,4.27.716,48.2,48.2,0,0,1,6.162,1.674.948.948,0,0,0,.194.073,10.845,10.845,0,0,1,1.116.461,6.2,6.2,0,0,1,.946-.776,2.56,2.56,0,0,0,.218-.146l-.582-.873q-.267-.437-.558-.9l-2.717-4.124q-1.771-2.693-3.518-5.386-1.965-2.984-3.906-5.944a.524.524,0,0,1-.049-.315.456.456,0,0,1,.121-.267,3.9,3.9,0,0,1,2.28-.873,5.156,5.156,0,0,1,2.584.473A10.231,10.231,0,0,1,17.591,87.4,19.687,19.687,0,0,1,20.7,90.845q1.5,2.062,2.935,4.173,1.819,2.644,3.421,5.41.412.679.776,1.407.558-.17,1.14-.291l-.485-.776-.437-.631-2.669-4.076L22.71,91.986q-.849-1.286-1.674-2.572-.825-1.261-1.674-2.547a.6.6,0,0,1-.061-.315.358.358,0,0,1,.133-.267,3.519,3.519,0,0,1,2.038-.8,4.6,4.6,0,0,1,2.256.425,9.429,9.429,0,0,1,1.965,1.225,16.178,16.178,0,0,1,2.766,3.081q1.334,1.8,2.571,3.663a.38.38,0,0,1,.073.1,47.659,47.659,0,0,1,3.784,6.38q.437-.073.849-.146.558-.073,1.092-.17-.121-.194-.243-.364-.17-.267-.315-.509-1.722-2.644-3.445-5.264l-3.445-5.24a.439.439,0,0,1-.073-.315.5.5,0,0,1,.146-.291,3.2,3.2,0,0,1,1.892-.7,4.2,4.2,0,0,1,2.038.364,7.444,7.444,0,0,1,1.771,1.116A14.841,14.841,0,0,1,37.4,91.2q1.007,1.322,1.929,2.7.291.461.606.9,1.213,1.747,2.28,3.59a.282.282,0,0,1,.049.073q.121.218.243.461.485-.218.946-.461a19.4,19.4,0,0,1,4.512-1.771,10.35,10.35,0,0,1,4.051-.073A13.114,13.114,0,0,1,54.2,97.3a13.208,13.208,0,0,0,1.65.558,20.836,20.836,0,0,0,7.387.522,38.609,38.609,0,0,0,7.29-1.492,49.13,49.13,0,0,0,5.337-1.965q.534-.218,1.067-.485.606-.315,1.237-.582a.692.692,0,0,1,.509,0,2.508,2.508,0,0,1,.461.243,1.184,1.184,0,0,0,.121.073,8.645,8.645,0,0,1,1.237.946A9.441,9.441,0,0,1,82.364,97.468ZM31.2,89.657q1.674,2.547,3.348,5.119,1.674,2.547,3.348,5.119.922-.146,1.868-.267l1.164-.146h.146a.1.1,0,0,1,.073-.024h.073a2.532,2.532,0,0,0,.412-.121q-.17-.34-.364-.655-1.067-1.819-2.3-3.542-.267-.412-.558-.849Q37.557,93,36.6,91.755a13.838,13.838,0,0,0-2.123-2.22,5.908,5.908,0,0,0-1.528-.946,3.3,3.3,0,0,0-1.7-.267,2.967,2.967,0,0,0-.776.218Zm-4.415,6.768q1.6,2.426,3.178,4.876,1.965-.437,3.93-.776-.34-.679-.728-1.334-1.407-2.547-3.057-4.949-.243-.388-.509-.776-.97-1.5-2.074-2.972a16.569,16.569,0,0,0-2.462-2.632,7.109,7.109,0,0,0-1.747-1.08,3.643,3.643,0,0,0-1.941-.3,2.381,2.381,0,0,0-.922.291q.194.315.412.631l.582.873q.412.631.825,1.286Q24.53,92.98,26.786,96.425ZM18.9,98.172a3.994,3.994,0,0,1,.218.34q1.722,2.6,3.421,5.192a19.79,19.79,0,0,1,2.935-1.164q.7-.243,1.407-.437-.388-.7-.776-1.383a.282.282,0,0,0-.049-.073q-1.625-2.741-3.421-5.386-1.359-1.989-2.79-3.93a17.049,17.049,0,0,0-3.057-3.324,7.768,7.768,0,0,0-1.965-1.189,4.379,4.379,0,0,0-2.208-.34,3.438,3.438,0,0,0-.7.17.383.383,0,0,1-.133.061.381.381,0,0,0-.121.049q-.061.036-.158.085.315.509.655.995.267.412.509.8Q15.8,93.393,18.9,98.172Zm64.239,9.922a23.6,23.6,0,0,0-.036-4.949,14.249,14.249,0,0,0-1.371-4.791,8.3,8.3,0,0,0-3.3-3.53,46.312,46.312,0,0,1-11.887,4.051,27.012,27.012,0,0,1-9.049.315,17.845,17.845,0,0,1-2.28-.485q-.679-.218-1.334-.485l-.776-.291a8.909,8.909,0,0,0-5-.267,16.475,16.475,0,0,0-4.027,1.553q-.291.146-.606.315a7.526,7.526,0,0,1-2.014.849q-.946.17-1.916.267-.582.073-1.14.146-1.844.243-3.687.558a.481.481,0,0,1-.218.049,60.05,60.05,0,0,0-8.1,1.868q-1.237.364-2.462.861a10.254,10.254,0,0,0-2.244,1.249,3.449,3.449,0,0,0-.655.631,1.052,1.052,0,0,0-.085.109q-.061.085-.109.158a.282.282,0,0,1-.049.073l-.036.073-.024.049a.891.891,0,0,0-.036.1,1.4,1.4,0,0,0,.1,1.019q1.359.024,2.717.073,6.89.146,13.755.534,3.372.194,6.72.582.267.049.509.073a11.905,11.905,0,0,1,3.639.8.431.431,0,0,1,.243.412.547.547,0,0,1-.243.4.5.5,0,0,1-.509.036.049.049,0,0,1-.036-.012l-.012-.012-.024-.012-.073-.036a1.285,1.285,0,0,0-.267-.073q-.315-.1-.631-.17-.849-.194-1.7-.315-1.31-.194-2.644-.315.946.8,1.868,1.625.946.8,1.868,1.625a.407.407,0,0,1,.133.449.547.547,0,0,1-.327.327.463.463,0,0,1-.485-.1q-.534-.461-1.043-.9-1.043-.922-2.086-1.819-.194-.17-.364-.315a2.649,2.649,0,0,1-.218-.194H41.56v-.024h-.024l-.049-.049-.024-.024a1.82,1.82,0,0,0-.194-.17l-.146-.146q-.267-.218-.534-.461-3.154-.243-6.283-.364a.8.8,0,0,0-.194-.024q-5.313-.243-10.626-.364-1.359-.049-2.693-.073h-.024a1.519,1.519,0,0,1-.412-.049.6.6,0,0,1-.315-.267,2.3,2.3,0,0,1-.364-1.407,1.975,1.975,0,0,1,.267-.922,15.44,15.44,0,0,0-2.3-.825,64.451,64.451,0,0,0-6.55-1.6,21.261,21.261,0,0,0-3.433-.4,11.5,11.5,0,0,0-3.433.4,6.1,6.1,0,0,0-2.014.9,1.633,1.633,0,0,0-.752.9h.024v.073a.043.043,0,0,0,.049.049.529.529,0,0,0,.158.146,1.315,1.315,0,0,0,.23.1,5.021,5.021,0,0,0,1.116.121q.243,0,.485.024a26.318,26.318,0,0,1,4.342.8,125.712,125.712,0,0,1,12.663,4.124q6.817,2.572,13.513,5.458a28.589,28.589,0,0,0,4.67,1.577,19,19,0,0,0,4.888.534,51.707,51.707,0,0,0,7.351-.97q1.456-.291,2.911-.509,2.984-.461,5.968-.8,5.022-.534,9.946-1.553a48.444,48.444,0,0,0,10.165-3.4,20.291,20.291,0,0,0,3.057-1.722l.049-.243v-.121l.024-.024a.8.8,0,0,1,.024-.194Q83.116,108.409,83.14,108.094Z" transform="translate(-0.506 -54.771)"/>
</svg>
