<svg xmlns="http://www.w3.org/2000/svg" width="83.711" height="54.751" viewBox="0 0 83.711 54.751">
  <path id="Ícono_ojo" data-name="Ícono ojo" d="M42.747,156.768q17.458.087,33.7,16.907l.377.406-.377.406Q60.089,191.393,42.66,191.393q-.783,0-1.566-.029a38.182,38.182,0,0,1-13.108-3.016,49.6,49.6,0,0,1-10.15-5.771,56.619,56.619,0,0,1-6.452-5.524q-2.276-2.363-2.421-2.6l-.29-.377.29-.377q.145-.232,2.421-2.6a56.619,56.619,0,0,1,6.452-5.524,47.856,47.856,0,0,1,10.15-5.771A38.181,38.181,0,0,1,41.094,156.8q.783-.029,1.566-.029h.087Zm-24.185,24.91a49.525,49.525,0,0,0,6.916,4.234,42.723,42.723,0,0,0,9.033,3.364A17.751,17.751,0,0,1,27.929,183a17.311,17.311,0,0,1-.058-17.806,17.508,17.508,0,0,1,6.467-6.249,41.275,41.275,0,0,0-8.946,3.335,48.658,48.658,0,0,0-6.858,4.234,55.709,55.709,0,0,0-5.5,4.611q-2.131,2.088-2.856,2.958.725.87,2.856,2.972A52.924,52.924,0,0,0,18.562,181.679Zm8.033-7.627a15.6,15.6,0,0,0,2.175,8.105A16.43,16.43,0,0,0,34.613,188a16.19,16.19,0,0,0,16.211,0,16.43,16.43,0,0,0,5.843-5.843,16.163,16.163,0,0,0,0-16.2,16.463,16.463,0,0,0-5.8-5.814,15.972,15.972,0,0,0-8.12-2.218h-.058a15.972,15.972,0,0,0-8.12,2.218,16.463,16.463,0,0,0-5.8,5.814A15.521,15.521,0,0,0,26.595,174.052Zm24.417,15.167q12.412-3.074,24.185-15.138Q63.54,162.1,51.215,159a17.537,17.537,0,0,1,6.394,6.249,17.365,17.365,0,0,1-.058,17.69A17.717,17.717,0,0,1,51.012,189.218Zm-8.294-18.908a3.738,3.738,0,1,1-2.639,1.087A3.61,3.61,0,0,1,42.718,170.311Zm.58-16.994a.479.479,0,0,1-.29.479.677.677,0,0,1-.58,0,.479.479,0,0,1-.29-.479V137.194a.474.474,0,0,1,.29-.493.754.754,0,0,1,.58,0,.474.474,0,0,1,.29.493v16.124Zm-9.57-.754Q33,149.692,32.25,146.85L30.22,138.9a.508.508,0,0,1,.159-.565.685.685,0,0,1,.536-.145.508.508,0,0,1,.406.391l.174.7q.174.638.319,1.247,1.769,6.815,3.538,13.659a.565.565,0,0,1-.174.565.666.666,0,0,1-.536.145.512.512,0,0,1-.42-.391l-.232-.986Q33.845,153.056,33.729,152.563Zm-8.381,2.726q-1.566-3.19-3.132-6.351-1.537-3.161-3.1-6.322a.563.563,0,0,1,.043-.594.667.667,0,0,1,.478-.275.515.515,0,0,1,.493.29q.2.435.435.9.2.435.435.9,3.1,6.322,6.235,12.644a.591.591,0,0,1-.043.609.664.664,0,0,1-.493.29.474.474,0,0,1-.478-.319q-.174-.377-.377-.754Q25.609,155.782,25.348,155.289Zm-7.453,4.379q-3.915-5.858-7.83-11.745a.453.453,0,0,1-.029-.551.7.7,0,0,1,.478-.275.563.563,0,0,1,.536.246l1.1,1.682q1.972,2.929,3.915,5.858l3.944,5.858a.5.5,0,0,1,0,.566.679.679,0,0,1-.478.29.553.553,0,0,1-.536-.275l-.29-.406Q18.3,160.306,17.895,159.668Zm-5.829,7.192q-.319-.377-.667-.754-.348-.348-.7-.725L5.86,160.248l-4.843-5.133a.5.5,0,0,1-.116-.551.7.7,0,0,1,.391-.406.513.513,0,0,1,.565.145q.667.725,1.363,1.45,2.407,2.581,4.843,5.133,2.407,2.581,4.843,5.133a.554.554,0,0,1,.116.58.653.653,0,0,1-.391.391A.561.561,0,0,1,12.066,166.86Zm39.149-12.354a.512.512,0,0,1-.42.391.666.666,0,0,1-.536-.145.565.565,0,0,1-.174-.565q.145-.493.261-.957.116-.493.261-.986l2.842-11.02q.319-1.3.667-2.639a.512.512,0,0,1,.42-.391.666.666,0,0,1,.536.145.565.565,0,0,1,.174.565q-.116.377-.2.754-.145.58-.319,1.16L52.81,148.3Q52.027,151.4,51.215,154.506Zm8,2.552a.474.474,0,0,1-.478.319.622.622,0,0,1-.478-.29.614.614,0,0,1-.029-.609q.232-.493.493-1.015.174-.377.377-.783,3.1-6.322,6.235-12.644a.462.462,0,0,1,.464-.29.667.667,0,0,1,.478.275.563.563,0,0,1,.043.594l-.464.928-.406.87q-.754,1.537-1.537,3.074Zm7.221,4.263a.553.553,0,0,1-.536.275.679.679,0,0,1-.478-.29.474.474,0,0,1,.029-.566q.551-.812,1.1-1.653,3.364-5.046,6.728-10.063l1.1-1.682a.563.563,0,0,1,.536-.246.7.7,0,0,1,.478.275.477.477,0,0,1,0,.551q-.261.377-.493.754l-.638.928ZM83.579,154.3a.513.513,0,0,1,.565-.145.7.7,0,0,1,.391.406.5.5,0,0,1-.116.551l-.754.812q-.319.319-.609.667-3.6,3.77-7.163,7.54-1.247,1.363-2.523,2.726a.561.561,0,0,1-.565.13.653.653,0,0,1-.391-.391.554.554,0,0,1,.116-.58q.348-.348.7-.725.348-.348.7-.725Q78.765,159.436,83.579,154.3Z" transform="translate(-0.863 -136.643)"/>
</svg>
