<svg id="noun-play-4835619" xmlns="http://www.w3.org/2000/svg" width="83.711" height="83.711" viewBox="0 0 83.711 83.711">
  <path id="Trazado_12" data-name="Trazado 12" d="M212.656,106.032a36.624,36.624,0,1,0,36.624,36.624,36.666,36.666,0,0,0-36.624-36.624m0,78.479a41.855,41.855,0,1,1,41.855-41.855,41.9,41.9,0,0,1-41.855,41.855" transform="translate(-170.8 -100.8)" fill-rule="evenodd"/>
  <path id="Trazado_13" data-name="Trazado 13" d="M308.143,193.444v29.075L328.5,207.982Zm-1.565,35.783a3.658,3.658,0,0,1-3.667-3.66V190.394a3.664,3.664,0,0,1,5.794-2.979L333.323,205a3.666,3.666,0,0,1,.851,5.108,3.561,3.561,0,0,1-.851.853L308.7,228.547a3.652,3.652,0,0,1-2.125.68Z" transform="translate(-272.055 -166.661)" fill-rule="evenodd"/>
</svg>
