<svg xmlns="http://www.w3.org/2000/svg" width="83.711" height="69.803" viewBox="0 0 83.711 69.803">
  <path id="Ícono_rama" data-name="Ícono rama" d="M82.389,145.439a10.8,10.8,0,0,1,2.134,2.855.539.539,0,0,1,0,.52.607.607,0,0,1-.454.28,15.858,15.858,0,0,1-4.109-.16,14.117,14.117,0,0,1-6.617-2.721,16.864,16.864,0,0,0-4.509-2.535.237.237,0,0,1-.107-.027,8.327,8.327,0,0,0-.854-.32A39,39,0,0,0,59.6,141.49a92.573,92.573,0,0,0-11.286,4.589,110.162,110.162,0,0,0-19.744,12.38q-2.721,2.134-5.336,4.429,1.094-.214,2.215-.374a49.817,49.817,0,0,1,7.817-.614q.427.027.88.027a13.342,13.342,0,0,1,6.217-3.949,12.165,12.165,0,0,1,5.336-.2,18.3,18.3,0,0,1,5.1,1.748,20.7,20.7,0,0,1,4.776,3.228.536.536,0,0,1,.16.454.491.491,0,0,1-.267.4,20.446,20.446,0,0,1-5.6,1.708,19.089,19.089,0,0,1-4.722.213,15.507,15.507,0,0,1-4.776-1.307,16.271,16.271,0,0,0-5.843-1.227.347.347,0,0,1-.267,0q-.854-.027-1.708-.027a48.115,48.115,0,0,0-10.912,1.361q-3.949,3.575-7.631,7.444a130.667,130.667,0,0,0-9.018,10.592q-1.654,2.108-3.095,4.349a.549.549,0,0,1-.494.24.582.582,0,0,1-.44-.253.5.5,0,0,1,0-.547l.027-.027.027-.027a15.3,15.3,0,0,1,.88-1.307q.16-.213.293-.4,1.361-1.894,2.775-3.735,2.988-3.815,6.217-7.391a37.286,37.286,0,0,1-1.494-4.376,31.725,31.725,0,0,1-1.2-6.724,10.9,10.9,0,0,1-4.269-4.7,14.636,14.636,0,0,1-1.361-5.256,25.277,25.277,0,0,1,.213-5.443A27.384,27.384,0,0,1,4.4,141.2a.615.615,0,0,1,.253-.32.539.539,0,0,1,.414-.053,4.784,4.784,0,0,1,2.548,1.761,8.9,8.9,0,0,1,1.4,2.855,25.9,25.9,0,0,1,.88,7.311q0,1.921-.133,3.842-.053.72-.107,1.414-.133,1.254-.16,2.481a29.957,29.957,0,0,0,1.387,8.671q.427,1.467.961,2.908a2.445,2.445,0,0,1,.133.32q1.414-1.521,2.855-3.015,2.962-3.015,6.11-5.87a.477.477,0,0,1,.133-.133q4.4-3.949,9.125-7.471a109.924,109.924,0,0,1,17.316-10.619q.08-1.628.213-3.255a58.041,58.041,0,0,1,.747-6.057,9.367,9.367,0,0,1-2.882-4.642,12.611,12.611,0,0,1-.253-4.656,21.613,21.613,0,0,1,1.107-4.576,25.891,25.891,0,0,1,2.161-4.669.548.548,0,0,1,.4-.267.576.576,0,0,1,.454.16,7.686,7.686,0,0,1,2.134,3.108,11.637,11.637,0,0,1,.72,3.749,18.887,18.887,0,0,1-1.094,6.67q-.213.587-.48,1.147-.293.694-.534,1.414a16.687,16.687,0,0,0-.587,2.295.53.53,0,0,1-.053.24,2.8,2.8,0,0,1-.08.374,63.909,63.909,0,0,0-.88,8.431q1.041-.48,2.108-.961,4.162-1.841,8.458-3.255a.329.329,0,0,1,.32-.107,86.5,86.5,0,0,1,16.435-3.682.4.4,0,0,1,.454.227.661.661,0,0,1,0,.52.53.53,0,0,1-.454.32q-1.628.213-3.255.48a81.938,81.938,0,0,0-10.752,2.481q.454.08.88.16a37.537,37.537,0,0,1,5.87,1.547,2.442,2.442,0,0,1,.32.133,15.984,15.984,0,0,1,6.35-.587A12,12,0,0,1,82.389,145.439ZM48.718,119.452a25.266,25.266,0,0,0-1.908,5.123,14.152,14.152,0,0,0-.36,5.4,8.526,8.526,0,0,0,2.295,4.763,14.253,14.253,0,0,1,.48-1.761,11.673,11.673,0,0,1,.507-1.307q.24-.534.454-1.121a18.184,18.184,0,0,0,1.094-6.217,8.493,8.493,0,0,0-2.081-5.79ZM4.881,143.3a28.123,28.123,0,0,0-1.014,6.323,16.789,16.789,0,0,0,.854,6.283,10.073,10.073,0,0,0,3.709,4.949v-.454q.027-1.2.16-2.4.053-.694.107-1.414.133-1.868.133-3.762A24.646,24.646,0,0,0,8,145.706a8.521,8.521,0,0,0-1-2.161,4.081,4.081,0,0,0-1.748-1.521Q5.041,142.664,4.881,143.3Zm35.245,15.848a11.873,11.873,0,0,0-4.562,2.855,16.856,16.856,0,0,1,5.39,1.307,13.333,13.333,0,0,0,4.656,1.161,17.8,17.8,0,0,0,4.789-.36,20.016,20.016,0,0,0,3.815-1.121q-.4-.32-.827-.614a19.411,19.411,0,0,0-7.951-3.575A11.423,11.423,0,0,0,40.126,159.153Zm33.991-13.687a14.224,14.224,0,0,0,9.071,2.641l-.16-.267a11.5,11.5,0,0,0-4.322-3.762,10.861,10.861,0,0,0-3.949-1.054,14.653,14.653,0,0,0-4.082.28q.427.187.827.4A18.687,18.687,0,0,1,74.118,145.466Z" transform="translate(-0.879 -117.154)"/>
</svg>
