<svg xmlns="http://www.w3.org/2000/svg" width="83.711" height="84.959" viewBox="0 0 83.711 84.959">
  <path id="Ícono_sol_feliz" data-name="Ícono sol feliz" d="M58.405,109.353a21.087,21.087,0,0,1-23.3,6.352A20.931,20.931,0,0,1,21.348,96.058a21.077,21.077,0,0,1,16.69-20.5,21.209,21.209,0,0,1,12.884,1.466,20.994,20.994,0,0,1,7.483,32.325Zm-20.11,6.2a20.082,20.082,0,0,0,20.959-9.206,20.023,20.023,0,0,0-1.62-22.913A19.918,19.918,0,0,0,22.377,96.058a20.947,20.947,0,0,0,.231,3.112A20.2,20.2,0,0,0,38.3,115.551ZM42.77,71.782a.445.445,0,0,1-.257.45.6.6,0,0,1-.514,0,.445.445,0,0,1-.257-.45V54.064A.42.42,0,0,1,42,53.627a.669.669,0,0,1,.514,0,.42.42,0,0,1,.257.437V71.782Zm-5.5-1.183q-.489-2.674-.951-5.349l-1.132-6.326a.537.537,0,0,1,.193-.489.586.586,0,0,1,.476-.141q.257.039.334.373l.051.257q.129.72.257,1.414.514,2.932,1.029,5.838.514,2.932,1.029,5.838a.567.567,0,0,1-.193.514.549.549,0,0,1-.476.129.43.43,0,0,1-.334-.36l-.154-.874Q37.318,71.011,37.267,70.6ZM31.3,67.41q-.463-1.26-.951-2.52-1.517-4.063-2.932-8.152a.419.419,0,0,1,.1-.489A.569.569,0,0,1,28,56.108a.506.506,0,0,1,.4.347q1.414,4.115,2.957,8.178l.926,2.52a.4.4,0,0,1-.1.476.591.591,0,0,1-.476.129A.506.506,0,0,1,31.3,67.41Zm.72,2.032a.4.4,0,0,1,.1-.476.591.591,0,0,1,.476-.129.567.567,0,0,1,.424.321q.411,1.08.771,2.16l.669,1.8a.4.4,0,0,1-.1.476.611.611,0,0,1-.489.129.51.51,0,0,1-.411-.321q-.334-.9-.643-1.826Q32.432,70.5,32.021,69.442ZM23.3,64.3a2.675,2.675,0,0,1-.463-.874.489.489,0,0,1,.167-.5.608.608,0,0,1,.476-.129q.257.039.36.373a1.914,1.914,0,0,0,.411.694.074.074,0,0,1,.026.051,3.217,3.217,0,0,1,.489.849.44.44,0,0,1-.116.476.574.574,0,0,1-.476.129.511.511,0,0,1-.411-.347,1.98,1.98,0,0,0-.36-.566ZM26.054,69a1.8,1.8,0,0,1-.129-.257A13,13,0,0,0,25,67.179a.421.421,0,0,1-.026-.5.561.561,0,0,1,.424-.244.529.529,0,0,1,.476.231,14.133,14.133,0,0,1,.926,1.543,3.525,3.525,0,0,0,.18.36,13.5,13.5,0,0,0,.746,1.26q.206.36.437.72.617,1.08,1.234,2.186l1.183,2.057a.429.429,0,0,1-.013.5.646.646,0,0,1-.437.257.442.442,0,0,1-.45-.244L28.5,73.248q-.591-1.106-1.234-2.186-.206-.36-.437-.72Q26.415,69.7,26.054,69Zm-9.309-2.572a.842.842,0,0,0-.1-.129,21.89,21.89,0,0,0-1.723-2.057.448.448,0,0,1-.141-.489.539.539,0,0,1,.347-.347.516.516,0,0,1,.514.116,16.048,16.048,0,0,1,1.774,2.109q.746.951,1.543,1.852a2.8,2.8,0,0,0,.206.231q1.954,2.263,3.857,4.6a.518.518,0,0,1,.077.514.579.579,0,0,1-.347.347.432.432,0,0,1-.476-.141q-1.877-2.314-3.832-4.577-.129-.154-.257-.283Q17.44,67.308,16.745,66.433ZM27.032,77.105a.491.491,0,0,1,.1.514.579.579,0,0,1-.347.347.432.432,0,0,1-.476-.141,17.732,17.732,0,0,1-1.157-1.389,20.033,20.033,0,0,0-1.466-1.7.491.491,0,0,1-.1-.514.579.579,0,0,1,.347-.347.5.5,0,0,1,.5.116,19.65,19.65,0,0,1,1.44,1.723Q26.44,76.437,27.032,77.105ZM13.016,72.168a.5.5,0,0,1-.219-.476.6.6,0,0,1,.257-.424.383.383,0,0,1,.476.026,9.653,9.653,0,0,1,1.029.849,11.437,11.437,0,0,0,1,.849.512.512,0,0,1,.219.489.582.582,0,0,1-.244.424.418.418,0,0,1-.489-.039q-.514-.386-1-.823A12.579,12.579,0,0,0,13.016,72.168Zm11.032,7.921a.432.432,0,0,1,.141.476.579.579,0,0,1-.347.347.541.541,0,0,1-.54-.1q-1.8-1.517-3.626-3.034l-2.932-2.469a.388.388,0,0,1-.141-.45.623.623,0,0,1,.347-.36.516.516,0,0,1,.54.09Q20.757,77.337,24.049,80.088ZM5.636,75.511a.529.529,0,0,1-.231-.476.561.561,0,0,1,.244-.424.445.445,0,0,1,.5,0Q8.9,76.257,11.679,77.8q1.106.617,2.16,1.286a37.348,37.348,0,0,0,3.317,1.877.41.41,0,0,1,.257.411.58.58,0,0,1-.257.424.524.524,0,0,1-.54.039,34.655,34.655,0,0,1-3.292-1.877q-1.054-.643-2.16-1.26Q8.388,77.157,5.636,75.511ZM21.5,83.483a.512.512,0,0,1,.219.489.582.582,0,0,1-.244.424.418.418,0,0,1-.489-.039,17.617,17.617,0,0,0-1.826-1.08q-.36-.18-.72-.386a.467.467,0,0,1-.257-.45.551.551,0,0,1,.257-.424.466.466,0,0,1,.514,0q.36.18.746.386A11.919,11.919,0,0,1,21.5,83.483Zm-1.9,3.78a.506.506,0,0,1,.347.4.591.591,0,0,1-.129.476.429.429,0,0,1-.5.1q-.386-.129-.8-.283t-.8-.283q-5.58-2.032-11.135-4.063A.511.511,0,0,1,6.24,83.2a.574.574,0,0,1,.129-.476.44.44,0,0,1,.476-.116q.823.309,1.62.591,2.777,1.029,5.555,2.032Q16.822,86.235,19.6,87.263ZM.776,89.243a.39.39,0,0,1-.36-.321.568.568,0,0,1,.129-.489.517.517,0,0,1,.514-.167q.514.077,1.029.18l1.132.206q.566.1,1.157.206l8.229,1.44q2.957.514,5.889,1.054.334.077.373.334a.608.608,0,0,1-.129.476.489.489,0,0,1-.5.167q-1.08-.18-2.16-.386L6.665,90.3l-2.932-.514Q2.241,89.526.776,89.243Zm17.23,6.3a.42.42,0,0,1,.437.257.669.669,0,0,1,0,.514.42.42,0,0,1-.437.257H4.427a.42.42,0,0,1-.437-.257.669.669,0,0,1,0-.514.42.42,0,0,1,.437-.257H18.005ZM7.179,101.716a.387.387,0,0,1,.437.219.6.6,0,0,1-.013.5.526.526,0,0,1-.424.309q-1.543.206-3.086.54-1.569.36-3.189.566a.391.391,0,0,1-.424-.206.571.571,0,0,1,0-.5.524.524,0,0,1,.424-.321q1.62-.206,3.189-.566Q5.636,101.921,7.179,101.716Zm1.852-.334a1.193,1.193,0,0,0,.231-.026q4.475-.771,8.975-1.594a.535.535,0,0,1,.5.193.608.608,0,0,1,.129.476q-.039.257-.373.334-4.475.8-8.975,1.569l-.206.051a.567.567,0,0,1-.514-.193.586.586,0,0,1-.141-.476Q8.7,101.458,9.03,101.381Zm-2.186,8.1a.4.4,0,0,1-.476-.1.591.591,0,0,1-.129-.476.565.565,0,0,1,.347-.424l.566-.206,1.029-.36q5.58-2.032,11.135-4.063a.429.429,0,0,1,.5.1.611.611,0,0,1,.129.489.511.511,0,0,1-.347.411q-.411.129-.8.283-.411.154-.823.283-2.777,1.029-5.555,2.032Q9.648,108.479,6.845,109.482ZM11.885,113a.45.45,0,0,1,.514.013.58.58,0,0,1,.257.424.457.457,0,0,1-.257.437q-2.392,1.337-4.732,2.726-.746.437-1.517.874a.445.445,0,0,1-.5,0,.561.561,0,0,1-.244-.424.473.473,0,0,1,.231-.45l1.492-.874Q9.493,114.316,11.885,113Zm2.469-.257a.421.421,0,0,1-.5.026.611.611,0,0,1-.257-.437.453.453,0,0,1,.244-.463q1.749-1.132,3.6-2.083,1.826-.951,3.549-2.057a.445.445,0,0,1,.5,0,.6.6,0,0,1,.257.424.49.49,0,0,1-.244.476q-1.723,1.08-3.549,2.032Q16.1,111.642,14.354,112.748Zm6.018,1a.491.491,0,0,1,.514-.1.579.579,0,0,1,.347.347.432.432,0,0,1-.141.476q-2.906,2.572-5.915,4.989-.771.643-1.517,1.26a.541.541,0,0,1-.54.1.579.579,0,0,1-.347-.347.432.432,0,0,1,.141-.476q.771-.617,1.543-1.26Q17.465,116.322,20.371,113.751Zm2.623-.874a.509.509,0,1,1-.72-.72q.309-.257.617-.54.206-.154.411-.334a.719.719,0,0,1,.373-.141.513.513,0,0,1,.373.141.623.623,0,0,1,.141.373.4.4,0,0,1-.141.347,6.678,6.678,0,0,1-.54.437Q23.251,112.671,22.994,112.876ZM18.52,123.549a.388.388,0,0,1,.45-.141.579.579,0,0,1,.347.347.518.518,0,0,1-.077.514q-1.106,1.414-2.263,2.726-.669.8-1.337,1.569a.421.421,0,0,1-.476.167.579.579,0,0,1-.347-.36.51.51,0,0,1,.1-.527q.643-.8,1.337-1.569Q17.414,124.937,18.52,123.549Zm8.512-8.563q-.669.849-1.363,1.646-.926,1.08-1.8,2.186-.823,1-1.7,1.98-.771.874-1.517,1.8a.432.432,0,0,1-.476.141.579.579,0,0,1-.347-.347.491.491,0,0,1,.1-.514q.746-.926,1.517-1.8.874-.977,1.672-2.006l1.8-2.16,1.389-1.646a.388.388,0,0,1,.45-.141.579.579,0,0,1,.347.347A.518.518,0,0,1,27.032,114.985Zm3.549,2.34q-.386.643-.771,1.312l-.1.154q-2.289,4.012-4.6,8.023-.669,1.131-1.312,2.263a.473.473,0,0,1-.45.231.561.561,0,0,1-.424-.244.519.519,0,0,1-.026-.527q.231-.36.437-.72.206-.386.437-.746,1.466-2.572,2.957-5.143t2.957-5.117a.467.467,0,0,1,.45-.257.6.6,0,0,1,.437.244A.468.468,0,0,1,30.581,117.325Zm2.88,1.389a.511.511,0,0,1,.411-.347.574.574,0,0,1,.476.129.44.44,0,0,1,.116.476q-.386,1.054-.746,2.083-1.646,4.475-3.266,8.949l-1.029,2.829q-.514,1.389-1.029,2.8a.511.511,0,0,1-.411.347.574.574,0,0,1-.476-.129.441.441,0,0,1-.09-.5q.36-1.029.746-2.057,1.62-4.475,3.266-8.975Q32.432,121.517,33.461,118.714Zm4.089,1.08a.4.4,0,0,1,.334-.347.608.608,0,0,1,.476.129.535.535,0,0,1,.193.5l-.1.566-.206,1.132q-.514,2.906-1.029,5.838-.514,2.906-1.029,5.838a.4.4,0,0,1-.334.347.608.608,0,0,1-.476-.129.535.535,0,0,1-.193-.5q.077-.437.154-.849t.154-.849q.514-2.829,1-5.683Q37.035,122.8,37.55,119.794Zm4.192,5.452a.465.465,0,0,1,.27-.437.606.606,0,0,1,.489,0,.465.465,0,0,1,.27.437q.051,6.4,0,12.781a.5.5,0,0,1-.27.45.545.545,0,0,1-.489,0,.5.5,0,0,1-.27-.45Q41.793,131.649,41.741,125.246Zm1.029-1.826a.462.462,0,0,1-.283.437.637.637,0,0,1-.5,0,.423.423,0,0,1-.244-.437q.051-1.569,0-3.112a.423.423,0,0,1,.244-.437.637.637,0,0,1,.5,0,.462.462,0,0,1,.283.437Q42.821,121.851,42.77,123.42Zm5.735,5.066q.18,1.132.386,2.263.231,1.209.437,2.417a.535.535,0,0,1-.193.5.608.608,0,0,1-.476.129.4.4,0,0,1-.334-.347l-.411-2.417q-.206-1.157-.411-2.289a.535.535,0,0,1,.193-.5.608.608,0,0,1,.476-.129Q48.427,128.152,48.5,128.486Zm-.309-1.7a.41.41,0,0,1-.219.45.572.572,0,0,1-.5,0,.543.543,0,0,1-.309-.45q-.129-.926-.309-1.852-.18-.849-.283-1.723-.129-.746-.309-1.466a10.985,10.985,0,0,1-.309-1.8.454.454,0,0,1,.231-.45.555.555,0,0,1,.8.45,7.95,7.95,0,0,0,.283,1.414,1.364,1.364,0,0,0,.077.283,13.325,13.325,0,0,1,.231,1.363.956.956,0,0,0,.026.231q.1.823.283,1.646Q48.067,125.837,48.2,126.789Zm6.866,2.957,2.057,5.606a.474.474,0,0,1-.116.5.574.574,0,0,1-.476.129.511.511,0,0,1-.411-.347q-.154-.463-.334-.926l-.411-1.132q-.206-.566-.411-1.157-1.44-3.909-2.854-7.818l-1.594-4.372q-.231-.617-.437-1.26a.407.407,0,0,1,.09-.476.574.574,0,0,1,.476-.129.511.511,0,0,1,.411.347q.18.489.36,1,.206.514.386,1.054l1.646,4.475Q54.239,127.509,55.062,129.746Zm.617-11.469q2.983,5.143,5.94,10.261a.468.468,0,0,1-.013.527.6.6,0,0,1-.437.244.473.473,0,0,1-.45-.231q-.283-.54-.591-1.054-.129-.206-.257-.437-2.957-5.143-5.915-10.261a.486.486,0,0,1,0-.527.561.561,0,0,1,.424-.244.467.467,0,0,1,.45.257q.309.54.643,1.106Zm10.081,4.989,3.857,4.577a.539.539,0,0,1,.077.527.579.579,0,0,1-.347.36.421.421,0,0,1-.476-.167q-.643-.746-1.26-1.517l-.154-.154q-1.517-1.826-3.06-3.652-1.517-1.826-3.06-3.652-1.929-2.289-3.857-4.6a.518.518,0,0,1-.077-.514.579.579,0,0,1,.347-.347.432.432,0,0,1,.476.141q.694.849,1.414,1.7,1.517,1.826,3.06,3.652Q64.217,121.44,65.76,123.266ZM71.6,120a.432.432,0,0,1,.141.476.579.579,0,0,1-.347.347.491.491,0,0,1-.514-.1q-1.183-.977-2.34-1.954-2.083-1.774-4.166-3.5a.421.421,0,0,1-.167-.476.579.579,0,0,1,.36-.347.51.51,0,0,1,.527.1q2.083,1.723,4.166,3.472Q70.415,119.022,71.6,120Zm-10.389-8.718q.9.746,1.774,1.492.154.129.283.231a.421.421,0,0,1,.167.476.579.579,0,0,1-.36.347.539.539,0,0,1-.527-.077q-.591-.489-1.157-.977-.463-.386-.9-.771a.421.421,0,0,1-.167-.476.579.579,0,0,1,.36-.347A.51.51,0,0,1,61.208,111.282Zm17.667,5.323a.442.442,0,0,1,.244.45.6.6,0,0,1-.257.424.445.445,0,0,1-.5,0q-3.7-2.237-7.483-4.32a.4.4,0,0,1-.244-.424.646.646,0,0,1,.257-.437.429.429,0,0,1,.5-.013Q75.2,114.368,78.875,116.605Zm-11.289-5.323q-.36-.206-.694-.437t-.694-.437q-.514-.283-1-.54a24.728,24.728,0,0,1-2.186-1.234.541.541,0,0,1-.231-.489.534.534,0,0,1,.244-.424.463.463,0,0,1,.5.013,24.726,24.726,0,0,0,2.186,1.234q.514.257,1,.54.36.206.694.437t.694.437q.206.129.411.231a8.534,8.534,0,0,1,1,.591.485.485,0,0,1,.231.463.571.571,0,0,1-.244.437.421.421,0,0,1-.5-.026q-.489-.309-1-.591Zm10.081-1.8q-.8-.283-1.62-.591-5.555-2.032-11.135-4.037a.511.511,0,0,1-.347-.411.588.588,0,0,1,.141-.489.419.419,0,0,1,.489-.1q.489.18.951.36.334.1.643.231,2.957,1.054,5.889,2.134,2.649.951,5.272,1.9a.567.567,0,0,1,.321.424.591.591,0,0,1-.129.476A.4.4,0,0,1,77.667,109.482Zm6.069-6.635q.334.051.373.309a.622.622,0,0,1-.141.489.476.476,0,0,1-.489.18q-2.417-.36-4.809-.849-2.469-.489-4.937-.849-.334-.077-.373-.321a.6.6,0,0,1,.141-.476.554.554,0,0,1,.514-.206q2.469.36,4.912.874Q81.318,102.487,83.736,102.847Zm-11.572-2.032q.334.077.373.334a.608.608,0,0,1-.129.476.489.489,0,0,1-.5.167q-1.414-.257-2.829-.489-1.543-.257-3.06-.54-.334-.077-.373-.334a.586.586,0,0,1,.141-.476.537.537,0,0,1,.489-.193q1.543.283,3.06.54Zm7.921-4.243H66.506a.424.424,0,0,1-.424-.257.6.6,0,0,1,0-.514.424.424,0,0,1,.424-.257H80.084a.42.42,0,0,1,.437.257.669.669,0,0,1,0,.514A.42.42,0,0,1,80.084,96.572ZM68.177,90.966q1.543-.283,3.06-.54l6.326-1.132q1.492-.257,2.957-.514t2.957-.514a.486.486,0,0,1,.489.167.6.6,0,0,1,.141.489q-.039.27-.373.321l-1.08.206q-.54.1-1.08.18l-5.5.977q-1.954.334-3.883.694-1.492.257-2.957.514t-2.957.514a.486.486,0,0,1-.489-.167.586.586,0,0,1-.141-.476q.039-.257.373-.334l1.08-.206Q67.637,91.043,68.177,90.966ZM65.194,88.24a.419.419,0,0,1-.489-.1.569.569,0,0,1-.141-.476.506.506,0,0,1,.347-.4q.18-.077.334-.129l1.286-.463q5.555-2.032,11.135-4.063a.44.44,0,0,1,.476.116.574.574,0,0,1,.129.476.51.51,0,0,1-.321.411q-.823.283-1.62.591Q70.775,86.235,65.194,88.24Zm-2.186-4.757q.489-.283.951-.566.489-.257.951-.54,2.16-1.26,4.346-2.52,1.954-1.132,3.909-2.237,2.6-1.517,5.195-3.009a.45.45,0,0,1,.514.013.589.589,0,0,1,.257.437.467.467,0,0,1-.257.45l-1.9,1.08q-4.14,2.392-8.255,4.783-.746.411-1.466.849Q65.4,83.3,63.523,84.357a.445.445,0,0,1-.5,0,.6.6,0,0,1-.257-.424A.442.442,0,0,1,63.008,83.483Zm3.857-7.432a.4.4,0,0,1-.476.039.57.57,0,0,1-.257-.424.512.512,0,0,1,.219-.489q1.594-1.234,3.086-2.572l1.44-1.234a.491.491,0,0,1,.514-.1.578.578,0,0,1,.347.36.4.4,0,0,1-.141.463l-1.44,1.234Q68.563,74.739,66.866,76.051Zm-2.237.566a.418.418,0,0,1,.489-.039.582.582,0,0,1,.244.424.569.569,0,0,1-.219.514q-1.157.874-2.237,1.852-.823.746-1.7,1.44a.541.541,0,0,1-.54.1.579.579,0,0,1-.347-.347.421.421,0,0,1,.167-.476q.9-.72,1.774-1.517Q63.42,77.568,64.629,76.617Zm-7.149.489q.72-.849,1.414-1.7l3.086-3.652Q63.5,69.931,65.04,68.1q1.929-2.289,3.832-4.577a.432.432,0,0,1,.476-.141.579.579,0,0,1,.347.347.518.518,0,0,1-.077.514q-.334.411-.669.8-.386.463-.746.9L64.4,70.471q-1.157,1.389-2.34,2.777-1.929,2.289-3.832,4.577a.4.4,0,0,1-.476.154.625.625,0,0,1-.347-.36A.518.518,0,0,1,57.479,77.105Zm-3.523-2.314q.206-.386.411-.746.231-.386.437-.746,1.466-2.572,2.957-5.143,1.492-2.546,2.957-5.117a.467.467,0,0,1,.45-.257.6.6,0,0,1,.437.244.468.468,0,0,1,.013.527q-.437.746-.849,1.492-1.492,2.546-2.983,5.117-1.466,2.572-2.957,5.143a.442.442,0,0,1-.45.244.6.6,0,0,1-.424-.257A.445.445,0,0,1,53.956,74.791Zm.386-10.441a.51.51,0,0,1-.411.321.574.574,0,0,1-.476-.129.407.407,0,0,1-.09-.476q.951-2.417,1.8-4.886.463-1.363.951-2.726a.51.51,0,0,1,.411-.321.611.611,0,0,1,.489.129.4.4,0,0,1,.1.476l-.977,2.726Q55.294,61.907,54.342,64.35ZM51.05,73.4a.51.51,0,0,1-.411.321.574.574,0,0,1-.476-.129.407.407,0,0,1-.09-.476q.566-1.517,1.08-3.06.669-2.006,1.466-3.96a.435.435,0,0,1,.411-.27.54.54,0,0,1,.424.244.567.567,0,0,1,.064.54q-.8,1.877-1.414,3.806Q51.616,71.911,51.05,73.4ZM46.962,72.3a.43.43,0,0,1-.334.36.549.549,0,0,1-.476-.129.517.517,0,0,1-.167-.514q.077-.411.129-.823.077-.437.154-.849l2.057-11.675q.077-.334.334-.373a.586.586,0,0,1,.476.141.537.537,0,0,1,.193.489q-.077.437-.154.849-.077.437-.154.849l-.566,3.189ZM34.592,96.418q-.72,0-1.222-1.2a8.6,8.6,0,0,1,0-5.786q.5-1.2,1.222-1.2t1.222,1.2a8.6,8.6,0,0,1,0,5.786Q35.312,96.418,34.592,96.418Zm15.327,0q-.694,0-1.2-1.2a8.6,8.6,0,0,1,0-5.786q.5-1.2,1.2-1.2.72,0,1.222,1.2a8.6,8.6,0,0,1,0,5.786Q50.639,96.418,49.919,96.418Zm9,.9a3.778,3.778,0,0,0-1.26-.489,15.375,15.375,0,0,1-3.5,9.309,14.983,14.983,0,0,1-7.741,4.963,15,15,0,0,1-16.3-5.8,15.536,15.536,0,0,1-2.906-8.448,2.2,2.2,0,0,0-1.08.566.491.491,0,0,1-.514.1.579.579,0,0,1-.347-.347.479.479,0,0,1,.141-.5,3.275,3.275,0,0,1,2.25-.913,4.428,4.428,0,0,1,2.379.656.49.49,0,0,1,.244.476.6.6,0,0,1-.257.424.445.445,0,0,1-.5,0,3.181,3.181,0,0,0-1.286-.489,14.286,14.286,0,0,0,19.107,12.935,14.046,14.046,0,0,0,6.6-5.053,14.429,14.429,0,0,0,2.687-7.856,2.082,2.082,0,0,0-1.106.566.491.491,0,0,1-.514.1.579.579,0,0,1-.347-.347.479.479,0,0,1,.141-.5,3.275,3.275,0,0,1,2.25-.913,4.428,4.428,0,0,1,2.379.656.529.529,0,0,1,.231.476.561.561,0,0,1-.244.424A.445.445,0,0,1,58.92,97.318Z" transform="translate(-0.404 -53.575)"/>
</svg>
