<svg xmlns="http://www.w3.org/2000/svg" width="83.711" height="84.959" viewBox="0 0 83.711 84.959">
  <path id="Trazado_77" data-name="Trazado 77" d="M102.322,121.326a21.031,21.031,0,0,1-10.659,6.853,20.773,20.773,0,0,1-12.639-.476,20.93,20.93,0,0,1-13.758-19.647,20.886,20.886,0,1,1,41.711,1.492A21.087,21.087,0,0,1,102.322,121.326Zm-20.11,6.2A19.909,19.909,0,0,0,101.55,95.43a19.916,19.916,0,0,0-22.193-6.069,19.7,19.7,0,0,0-9.438,7.3,20.08,20.08,0,0,0-3.626,11.392,20.947,20.947,0,0,0,.231,3.112,20.043,20.043,0,0,0,15.687,16.355ZM90.6,113.791a17.777,17.777,0,0,1,3.484,1.067,9.544,9.544,0,0,1,3.15,2.07,4.782,4.782,0,0,1,1.414,3.24.5.5,0,0,1-.27.45.572.572,0,0,1-.5,0,.445.445,0,0,1-.257-.45,3.585,3.585,0,0,0-.849-2.147,7.364,7.364,0,0,0-1.774-1.53,15.139,15.139,0,0,0-6.056-1.993,20.617,20.617,0,0,0-6.39.244,13.674,13.674,0,0,0-5.349,2.109,6.047,6.047,0,0,0-1.453,1.427,3.289,3.289,0,0,0-.63,1.89.5.5,0,0,1-.27.45.572.572,0,0,1-.5,0,.445.445,0,0,1-.257-.45,4.429,4.429,0,0,1,.849-2.507,7.269,7.269,0,0,1,1.954-1.839,14.962,14.962,0,0,1,6.12-2.212A22.113,22.113,0,0,1,90.6,113.791Zm-3.909-30.01a.445.445,0,0,1-.257.45.6.6,0,0,1-.514,0,.445.445,0,0,1-.257-.45V66.063a.42.42,0,0,1,.257-.437.669.669,0,0,1,.514,0,.42.42,0,0,1,.257.437V83.781ZM81.157,82.6q-.257-1.44-.514-2.906-.771-4.372-1.543-8.769a.537.537,0,0,1,.193-.489.586.586,0,0,1,.476-.141q.257.039.334.373.154.849.283,1.672l.669,3.806,1.389,7.869a.517.517,0,0,1-.167.514.549.549,0,0,1-.476.129.43.43,0,0,1-.334-.36q-.077-.411-.154-.849Q81.235,83.035,81.157,82.6Zm-5.94-3.189q-.489-1.26-.951-2.52-1.517-4.063-2.957-8.152a.461.461,0,0,1,.129-.5.591.591,0,0,1,.476-.129.506.506,0,0,1,.4.347q1.414,4.115,2.957,8.178l.926,2.52a.4.4,0,0,1-.1.476.591.591,0,0,1-.476.129A.506.506,0,0,1,75.217,79.409Zm.72,2.032a.4.4,0,0,1,.1-.476.591.591,0,0,1,.476-.129.567.567,0,0,1,.424.321q.411,1.08.771,2.16.309.9.669,1.8a.4.4,0,0,1-.1.476.611.611,0,0,1-.489.129.511.511,0,0,1-.411-.347q-.334-.874-.643-1.8Q76.349,82.5,75.937,81.441ZM67.194,76.3a2.334,2.334,0,0,1-.437-.874.5.5,0,0,1,.154-.5.591.591,0,0,1,.476-.129.454.454,0,0,1,.373.347,1.882,1.882,0,0,0,.411.72.074.074,0,0,0,.026.051,3.217,3.217,0,0,1,.489.849.44.44,0,0,1-.116.476.574.574,0,0,1-.476.129.511.511,0,0,1-.411-.347,1.98,1.98,0,0,0-.36-.566A1.022,1.022,0,0,0,67.194,76.3ZM69.971,81l-.154-.257a10.928,10.928,0,0,0-.9-1.569.421.421,0,0,1-.026-.5.6.6,0,0,1,.424-.257.49.49,0,0,1,.476.244,11.665,11.665,0,0,1,.9,1.543l.206.36q.334.643.72,1.26.231.36.437.72.643,1.08,1.26,2.186.566,1.029,1.183,2.057a.476.476,0,0,1-.026.5.561.561,0,0,1-.424.244.473.473,0,0,1-.45-.231q-.591-1.029-1.183-2.083l-1.234-2.16q-.231-.36-.437-.72Q70.331,81.7,69.971,81Zm-9.335-2.6a.4.4,0,0,0-.077-.1,18.241,18.241,0,0,0-1.723-2.057.448.448,0,0,1-.141-.489.578.578,0,0,1,.347-.36.472.472,0,0,1,.514.129,19.231,19.231,0,0,1,1.774,2.109q.746.951,1.543,1.852a2.808,2.808,0,0,0,.206.231q1.954,2.263,3.857,4.6a.518.518,0,0,1,.077.514.579.579,0,0,1-.347.347.432.432,0,0,1-.476-.141q-1.877-2.314-3.832-4.577l-.257-.309Q61.356,79.306,60.636,78.406ZM70.948,89.1a.491.491,0,0,1,.1.514.579.579,0,0,1-.347.347.432.432,0,0,1-.476-.141,17.731,17.731,0,0,1-1.157-1.389q-.694-.9-1.466-1.723a.465.465,0,0,1-.116-.489.578.578,0,0,1,.347-.36.472.472,0,0,1,.514.129q.746.823,1.44,1.723Q70.331,88.41,70.948,89.1ZM56.933,84.167a.5.5,0,0,1-.219-.476.617.617,0,0,1,.244-.424.4.4,0,0,1,.489.026,9.651,9.651,0,0,1,1.029.849,11.436,11.436,0,0,0,1,.849.512.512,0,0,1,.219.489.582.582,0,0,1-.244.424.418.418,0,0,1-.489-.039,9.5,9.5,0,0,1-1-.823A12.579,12.579,0,0,0,56.933,84.167Zm11.032,7.92a.432.432,0,0,1,.141.476.579.579,0,0,1-.347.347.541.541,0,0,1-.54-.1q-2.752-2.289-5.5-4.6-.514-.437-1.054-.9a.4.4,0,0,1-.141-.463.578.578,0,0,1,.347-.36.491.491,0,0,1,.514.1ZM49.553,87.51a.49.49,0,0,1-.244-.476.6.6,0,0,1,.257-.424.445.445,0,0,1,.5,0Q52.819,88.256,55.6,89.8q1.106.617,2.16,1.286a33.048,33.048,0,0,0,3.317,1.877.41.41,0,0,1,.257.411.58.58,0,0,1-.257.424.524.524,0,0,1-.54.039,34.653,34.653,0,0,1-3.292-1.877q-1.08-.643-2.16-1.26Q52.279,89.156,49.553,87.51Zm15.867,7.972a.512.512,0,0,1,.219.489.583.583,0,0,1-.244.424.418.418,0,0,1-.489-.039,17.621,17.621,0,0,0-1.826-1.08q-.36-.18-.72-.386a.467.467,0,0,1-.257-.45.551.551,0,0,1,.257-.424.5.5,0,0,1,.514-.026l.72.411A13.1,13.1,0,0,1,65.419,95.482Zm-1.9,3.78a.506.506,0,0,1,.347.4.591.591,0,0,1-.129.476.429.429,0,0,1-.5.1q-.8-.283-1.594-.591-3.729-1.337-7.432-2.7L50.5,95.61a.511.511,0,0,1-.347-.411.574.574,0,0,1,.129-.476.44.44,0,0,1,.476-.116q.8.309,1.62.591Q57.936,97.23,63.516,99.262Zm-18.824,1.98a.43.43,0,0,1-.36-.334.549.549,0,0,1,.129-.476.517.517,0,0,1,.514-.167l.926.154q.617.1,1.234.231,3.189.566,6.4,1.131l2.983.514q1.466.257,2.957.514l2.932.514q.334.077.373.334a.622.622,0,0,1-.141.489.476.476,0,0,1-.489.18l-1.749-.309a3.469,3.469,0,0,1-.411-.077q-3.214-.566-6.4-1.131-1.492-.257-3.009-.514a3.309,3.309,0,0,0-.437-.077Zm17.23,6.3a.42.42,0,0,1,.437.257.669.669,0,0,1,0,.514.42.42,0,0,1-.437.257H48.344a.42.42,0,0,1-.437-.257.669.669,0,0,1,0-.514.42.42,0,0,1,.437-.257H61.922ZM51.1,113.714a.387.387,0,0,1,.424.219.572.572,0,0,1,0,.5.526.526,0,0,1-.424.309q-1.569.206-3.086.54-1.569.36-3.189.566a.391.391,0,0,1-.424-.206.571.571,0,0,1,0-.5.524.524,0,0,1,.424-.321q1.62-.206,3.189-.566Q49.527,113.92,51.1,113.714Zm1.852-.334a.956.956,0,0,1,.231-.026q4.475-.771,8.975-1.594a.537.537,0,0,1,.489.193.586.586,0,0,1,.141.476q-.039.257-.373.334-4.475.8-9,1.569l-.206.051a.537.537,0,0,1-.489-.193.586.586,0,0,1-.141-.476Q52.613,113.457,52.947,113.38Zm-2.186,8.1a.4.4,0,0,1-.476-.1.611.611,0,0,1-.129-.489.511.511,0,0,1,.347-.411l1.594-.566q5.58-2.032,11.135-4.063a.429.429,0,0,1,.5.1.591.591,0,0,1,.129.476.565.565,0,0,1-.347.424q-.334.1-.694.231-.463.18-.926.334Q56.342,119.449,50.761,121.48ZM55.8,125a.429.429,0,0,1,.5.013.639.639,0,0,1,.257.424.431.431,0,0,1-.244.437q-2.392,1.337-4.732,2.726-.771.437-1.517.874a.445.445,0,0,1-.5,0,.6.6,0,0,1-.257-.424.442.442,0,0,1,.244-.45l1.492-.874Q53.41,126.315,55.8,125Zm2.469-.257a.421.421,0,0,1-.5.026.611.611,0,0,1-.257-.437.453.453,0,0,1,.244-.463q1.749-1.132,3.6-2.083,1.826-.977,3.549-2.057a.445.445,0,0,1,.5,0,.6.6,0,0,1,.257.424.49.49,0,0,1-.244.476q-1.723,1.08-3.549,2.032Q60.019,123.64,58.27,124.746Zm5.992,1a.541.541,0,0,1,.54-.1.579.579,0,0,1,.347.347.432.432,0,0,1-.141.476q-2.906,2.572-5.915,4.989-.771.643-1.543,1.26a.491.491,0,0,1-.514.1.579.579,0,0,1-.347-.347A.432.432,0,0,1,56.83,132q.771-.643,1.543-1.26Q61.382,128.321,64.262,125.749Zm2.649-.874a.607.607,0,0,1-.36.141.451.451,0,0,1-.36-.141.508.508,0,0,1-.154-.373.428.428,0,0,1,.154-.347,1.679,1.679,0,0,1,.18-.154q.437-.36.849-.72a.528.528,0,0,1,.746,0,.607.607,0,0,1,.141.36.451.451,0,0,1-.141.36q-.18.154-.334.283Q67.271,124.592,66.911,124.875Zm-4.475,10.672a.38.38,0,0,1,.45-.167.579.579,0,0,1,.347.36.539.539,0,0,1-.077.527q-1.106,1.389-2.263,2.726-.694.8-1.337,1.569a.421.421,0,0,1-.476.167.579.579,0,0,1-.347-.36.51.51,0,0,1,.1-.527q.643-.8,1.312-1.569Q61.331,136.936,62.436,135.547Zm8.512-8.563q-.669.823-1.363,1.646-.926,1.08-1.8,2.186-.823,1-1.7,1.98-.771.874-1.517,1.8a.432.432,0,0,1-.476.141.579.579,0,0,1-.347-.347.491.491,0,0,1,.1-.514q.746-.926,1.517-1.8.874-.977,1.672-2.006.9-1.106,1.8-2.16l1.389-1.646a.388.388,0,0,1,.45-.141.579.579,0,0,1,.347.347A.518.518,0,0,1,70.948,126.984Zm3.549,2.34q-.437.72-.874,1.466-1.466,2.572-2.957,5.143t-2.957,5.117a.467.467,0,0,1-.45.257.6.6,0,0,1-.437-.244.468.468,0,0,1-.013-.527q.437-.746.874-1.466,2.16-3.755,4.32-7.535.8-1.363,1.594-2.752a.473.473,0,0,1,.45-.231.561.561,0,0,1,.424.244A.519.519,0,0,1,74.5,129.324Zm2.88,1.389a.511.511,0,0,1,.411-.347.574.574,0,0,1,.476.129.44.44,0,0,1,.116.476q-.386,1.029-.771,2.083-.8,2.237-1.62,4.475T74.368,142q-1.029,2.829-2.057,5.632a.511.511,0,0,1-.411.347.574.574,0,0,1-.476-.129.474.474,0,0,1-.116-.5l.771-2.057q1.62-4.475,3.266-8.975.411-1.132.823-2.289Q76.786,132.358,77.377,130.712Zm4.089,1.08a.4.4,0,0,1,.334-.347.608.608,0,0,1,.476.129.489.489,0,0,1,.167.5q-.051.386-.129.771-.077.463-.154.9-.514,2.88-1,5.76-.54,2.957-1.054,5.915-.077.334-.334.373a.608.608,0,0,1-.476-.129.535.535,0,0,1-.193-.5l.309-1.7q.514-2.906,1.029-5.837Q80.952,134.724,81.466,131.792Zm4.192,5.452a.465.465,0,0,1,.27-.437.606.606,0,0,1,.489,0,.465.465,0,0,1,.27.437q.051,6.4,0,12.781a.5.5,0,0,1-.27.45.545.545,0,0,1-.489,0,.5.5,0,0,1-.27-.45Q85.709,143.647,85.658,137.244Zm1.029-1.826a.462.462,0,0,1-.283.437.637.637,0,0,1-.5,0,.423.423,0,0,1-.244-.437q.051-1.569,0-3.112a.449.449,0,0,1,.244-.45.572.572,0,0,1,.5,0,.49.49,0,0,1,.283.45Q86.738,133.85,86.686,135.418Zm5.735,5.04q.18,1.157.386,2.289.231,1.209.437,2.417a.535.535,0,0,1-.193.5.608.608,0,0,1-.476.129q-.257-.039-.334-.373-.206-1.209-.411-2.392-.206-1.157-.411-2.289a.535.535,0,0,1,.193-.5.608.608,0,0,1,.476-.129A.4.4,0,0,1,92.421,140.459Zm-.309-1.672a.427.427,0,0,1-.231.437.606.606,0,0,1-.489,0,.511.511,0,0,1-.309-.437q-.129-.926-.309-1.852-.18-.849-.309-1.723a13.83,13.83,0,0,0-.283-1.466,10.985,10.985,0,0,1-.309-1.8.454.454,0,0,1,.231-.45.555.555,0,0,1,.8.45,7.951,7.951,0,0,0,.283,1.414q.026.129.051.283a7.307,7.307,0,0,1,.231,1.363q.026.129.051.231.1.823.283,1.646Q91.984,137.836,92.112,138.787Zm6.866,2.957q.257.72.54,1.44.746,2.083,1.517,4.166a.474.474,0,0,1-.116.5.574.574,0,0,1-.476.129.511.511,0,0,1-.411-.347q-.18-.514-.386-1.029l-.36-1.029q-1.44-3.935-2.854-7.843l-.411-1.132q-.411-1.157-.849-2.314-.591-1.646-1.209-3.317a.44.44,0,0,1,.116-.476.574.574,0,0,1,.476-.129.511.511,0,0,1,.411.347l.411,1.132q.18.463.334.926l.669,1.8Q97.667,138.144,98.978,141.744Zm.617-11.469q2.6,4.475,5.169,8.923l.771,1.337a.468.468,0,0,1-.013.527.6.6,0,0,1-.437.244.467.467,0,0,1-.45-.257q-.411-.72-.849-1.466-1.569-2.726-3.163-5.452-1.389-2.417-2.777-4.809a.519.519,0,0,1,.026-.527.561.561,0,0,1,.424-.244.473.473,0,0,1,.45.231Q99.184,129.529,99.6,130.275Zm10.081,4.989,2.109,2.52q.874,1.029,1.723,2.057a.51.51,0,0,1,.1.527.579.579,0,0,1-.347.36.421.421,0,0,1-.476-.167q-.36-.411-.694-.823-.36-.437-.72-.849-1.414-1.7-2.854-3.42-1.646-1.954-3.266-3.883-1.929-2.314-3.857-4.6a.518.518,0,0,1-.077-.514.579.579,0,0,1,.347-.347.432.432,0,0,1,.476.141q.411.514.849,1.029.283.334.54.669,2.314,2.726,4.6,5.477Q108.9,134.338,109.676,135.264ZM115.514,132a.432.432,0,0,1,.141.476.58.58,0,0,1-.347.347.491.491,0,0,1-.514-.1q-1.183-.977-2.366-1.98-2.057-1.749-4.14-3.472a.421.421,0,0,1-.167-.476.579.579,0,0,1,.36-.347.51.51,0,0,1,.527.1q2.083,1.723,4.166,3.472Q114.331,131.021,115.514,132Zm-10.389-8.718q.591.489,1.209,1,.411.36.849.72a.4.4,0,0,1,.154.476.625.625,0,0,1-.36.347.518.518,0,0,1-.514-.077l-.669-.566L104.4,124a.421.421,0,0,1-.167-.476.579.579,0,0,1,.347-.347A.541.541,0,0,1,105.125,123.28Zm17.667,5.323a.442.442,0,0,1,.244.45.6.6,0,0,1-.257.424.445.445,0,0,1-.5,0q-3.7-2.237-7.483-4.32a.419.419,0,0,1-.257-.424.589.589,0,0,1,.257-.437.45.45,0,0,1,.514-.013Q119.088,126.366,122.791,128.6ZM111.5,123.28q-.36-.206-.694-.437t-.694-.437q-.514-.283-1.029-.54-1.106-.566-2.16-1.234a.541.541,0,0,1-.231-.489.571.571,0,0,1,.244-.437.421.421,0,0,1,.5.026,24.726,24.726,0,0,0,2.186,1.234q.514.257,1,.54.36.206.694.437t.694.437a2.871,2.871,0,0,1,.386.231,9.873,9.873,0,0,1,1.029.566.541.541,0,0,1,.231.489.571.571,0,0,1-.244.437.421.421,0,0,1-.5-.026,7.62,7.62,0,0,0-1.029-.591Q111.708,123.383,111.5,123.28Zm10.081-1.8q-.411-.154-.8-.283l-.823-.309q-2.932-1.054-5.889-2.134l-5.246-1.9a.565.565,0,0,1-.347-.424.591.591,0,0,1,.129-.476.429.429,0,0,1,.5-.1q.617.231,1.26.463a1.933,1.933,0,0,1,.334.129q1.877.669,3.729,1.337,3.7,1.363,7.432,2.7a.51.51,0,0,1,.321.411.611.611,0,0,1-.129.489A.4.4,0,0,1,121.583,121.48Zm6.069-6.635q.334.051.373.309a.586.586,0,0,1-.141.476.567.567,0,0,1-.514.193q-2.392-.36-4.783-.849-2.469-.489-4.937-.849-.334-.077-.373-.334a.586.586,0,0,1,.141-.476.537.537,0,0,1,.489-.193q2.494.36,4.937.874Q125.234,114.486,127.652,114.846Zm-11.572-2.057q.334.1.373.36a.586.586,0,0,1-.141.476.486.486,0,0,1-.489.167q-1.414-.257-2.829-.489-1.543-.257-3.06-.54a.419.419,0,0,1-.373-.347.6.6,0,0,1,.141-.489.486.486,0,0,1,.489-.167q1.543.283,3.06.54Q114.665,112.531,116.079,112.788Zm7.92-4.217H110.422a.42.42,0,0,1-.437-.257.669.669,0,0,1,0-.514.42.42,0,0,1,.437-.257H124a.42.42,0,0,1,.437.257.669.669,0,0,1,0,.514A.42.42,0,0,1,124,108.571Zm-11.906-5.606q2.366-.437,4.732-.849,2.34-.411,4.655-.823,1.492-.257,2.957-.514l2.932-.514a.517.517,0,0,1,.514.167.549.549,0,0,1,.129.476.43.43,0,0,1-.36.334q-1.08.206-2.16.386-3.086.54-6.146,1.08-1.62.309-3.266.591l-2.932.514q-1.466.257-2.957.514a.476.476,0,0,1-.489-.18.622.622,0,0,1-.141-.489q.039-.257.373-.334.849-.129,1.7-.283A4.344,4.344,0,0,1,112.094,102.965Zm-2.983-2.726a.429.429,0,0,1-.5-.1.591.591,0,0,1-.129-.476.506.506,0,0,1,.347-.4q.694-.257,1.363-.514a1.466,1.466,0,0,0,.257-.077q1.852-.669,3.7-1.363,3.7-1.337,7.432-2.7a.44.44,0,0,1,.476.116.574.574,0,0,1,.129.476.51.51,0,0,1-.321.411q-.514.18-1,.36-.309.1-.617.231-2.777,1-5.58,2.006Q111.888,99.236,109.11,100.239Zm-2.186-4.757q.951-.566,1.9-1.106,1.877-1.106,3.78-2.186,2.237-1.286,4.475-2.6l1.7-.977,3.5-2.006a.429.429,0,0,1,.5.013.646.646,0,0,1,.257.437.442.442,0,0,1-.244.45l-1.9,1.08q-4.14,2.392-8.255,4.783-1.312.746-2.6,1.492-1.312.746-2.6,1.492a.466.466,0,0,1-.514,0,.551.551,0,0,1-.257-.424A.467.467,0,0,1,106.925,95.482Zm3.857-7.432a.4.4,0,0,1-.476.039.57.57,0,0,1-.257-.424.512.512,0,0,1,.219-.489q1.594-1.234,3.086-2.572l1.44-1.234a.491.491,0,0,1,.514-.1.579.579,0,0,1,.347.347.432.432,0,0,1-.141.476l-1.44,1.234Q112.479,86.738,110.782,88.05Zm-2.237.566a.418.418,0,0,1,.489-.039.582.582,0,0,1,.244.424.512.512,0,0,1-.219.489q-1.157.9-2.237,1.877-.823.746-1.7,1.44a.541.541,0,0,1-.54.1.579.579,0,0,1-.347-.347.421.421,0,0,1,.167-.476q.9-.746,1.774-1.517Q107.31,89.541,108.545,88.616ZM101.4,89.1q.72-.849,1.414-1.7.386-.463.771-.9,2.674-3.214,5.375-6.4,1.9-2.289,3.832-4.577a.432.432,0,0,1,.476-.141.579.579,0,0,1,.347.347.491.491,0,0,1-.1.514q-.334.437-.694.849t-.694.849q-3.086,3.652-6.146,7.3-.951,1.132-1.929,2.289-.951,1.157-1.9,2.289a.432.432,0,0,1-.476.141.579.579,0,0,1-.347-.347A.518.518,0,0,1,101.4,89.1ZM97.847,86.79q.309-.54.617-1.054.129-.231.257-.437,2.957-5.143,5.915-10.261a.467.467,0,0,1,.45-.257.6.6,0,0,1,.437.244.468.468,0,0,1,.013.527q-.231.36-.437.746-.206.36-.437.746l-2.829,4.886q-1.543,2.7-3.086,5.375a.442.442,0,0,1-.45.244.6.6,0,0,1-.424-.257A.476.476,0,0,1,97.847,86.79Zm.411-10.466a.511.511,0,0,1-.411.347.611.611,0,0,1-.489-.129.4.4,0,0,1-.1-.476q.977-2.417,1.8-4.886l.977-2.726a.511.511,0,0,1,.411-.347.553.553,0,0,1,.476.141.466.466,0,0,1,.116.489q-.514,1.363-.977,2.726Q99.21,73.906,98.258,76.323Zm-3.292,9.052a.511.511,0,0,1-.411.347.611.611,0,0,1-.489-.129.4.4,0,0,1-.1-.476q.591-1.517,1.106-3.086.643-1.98,1.466-3.935.154-.309.411-.283a.58.58,0,0,1,.424.257.567.567,0,0,1,.064.54q-.8,1.877-1.414,3.806Q95.533,83.91,94.967,85.375ZM90.878,84.3a.43.43,0,0,1-.334.36.549.549,0,0,1-.476-.129.517.517,0,0,1-.167-.514q.077-.566.18-1.106l.1-.566,2.057-11.675q.077-.334.334-.373a.586.586,0,0,1,.476.141.537.537,0,0,1,.193.489l-.051.257-.257,1.44ZM78.509,108.417q-.72,0-1.221-1.2a8.6,8.6,0,0,1,0-5.786q.5-1.2,1.221-1.2.694,0,1.209,1.2a8.394,8.394,0,0,1,0,5.786Q79.2,108.417,78.509,108.417Zm15.327,0q-.694,0-1.209-1.2a8.394,8.394,0,0,1,0-5.786q.514-1.2,1.209-1.2.72,0,1.222,1.2a8.6,8.6,0,0,1,0,5.786Q94.555,108.417,93.835,108.417Z" transform="translate(-44.32 -65.574)"/>
</svg>
