<svg xmlns="http://www.w3.org/2000/svg" width="83.711" height="80.106" viewBox="0 0 83.711 80.106">
  <path id="_09_Handbag" data-name="09 Handbag" d="M77.465,82.106H8.282A7.293,7.293,0,0,1,1,74.824L8.282,31.13c1.22-6.266,4.857-7.282,8.866-7.282h4.825C24.7,11.2,33.024,2,42.855,2s18.133,9.2,20.882,21.847h4.825c4.005,0,7.628,1,8.866,7.282l7.282,43.694a7.3,7.3,0,0,1-7.282,7.282ZM42.874,5.641c-7.923,0-14.647,7.592-17.146,18.206H60.009C57.5,13.233,50.779,5.641,42.859,5.641ZM73.824,31.13c-.564-2.476-1.748-3.641-4.315-3.641H64.357A44.417,44.417,0,0,1,64.7,32.95a1.821,1.821,0,1,1-3.641,0,38.012,38.012,0,0,0-.382-5.462H25a38.012,38.012,0,0,0-.382,5.462,1.821,1.821,0,0,1-3.641,0,44.418,44.418,0,0,1,.346-5.462H16.166c-2.585,0-3.75,1.165-4.315,3.641L4.568,74.824A3.64,3.64,0,0,0,8.21,78.465H77.392a3.652,3.652,0,0,0,3.641-3.641L73.751,31.13Z" transform="translate(-1 -2)" fill-rule="evenodd"/>
</svg>
