<svg xmlns="http://www.w3.org/2000/svg" width="83.711" height="83.711" viewBox="0 0 83.711 83.711">
  <path id="Trazado_79" data-name="Trazado 79" d="M39.4,0h4.9a4.483,4.483,0,0,0,.631.135A39.829,39.829,0,0,1,63.2,5.894a41.313,41.313,0,0,1,19.859,28.76c.293,1.569.438,3.165.652,4.749v4.9c-.126,1.075-.225,2.154-.383,3.224a41.817,41.817,0,0,1-8.559,20.1A41.178,41.178,0,0,1,49.146,83.049c-1.6.3-3.225.445-4.838.662H39.4c-.264-.05-.526-.111-.792-.149-1.776-.252-3.577-.387-5.324-.767A41.173,41.173,0,0,1,8.447,66.982,41.415,41.415,0,0,1,.617,48.9C.35,47.379.2,45.839,0,44.308V39.4c.067-.588.135-1.176.2-1.764A41.352,41.352,0,0,1,10.713,13.95,41.056,41.056,0,0,1,34.646.651C36.221.372,37.817.214,39.4,0M10.168,64.559a33.712,33.712,0,0,1,19.5-20.377,18.145,18.145,0,0,1,22.8-28.167,17.576,17.576,0,0,1,7.122,10.974c1.323,6.678-.707,12.381-5.554,17.165A33.978,33.978,0,0,1,73.568,64.528a39.013,39.013,0,1,0-63.4.031M42.191,80.965c1.185-.094,2.765-.159,4.329-.353a38.633,38.633,0,0,0,24.54-12.853,1.024,1.024,0,0,0,.215-1.161A30.442,30.442,0,0,0,51.983,46.431a1.76,1.76,0,0,0-1.272.1,18.042,18.042,0,0,1-17.664-.011,1.51,1.51,0,0,0-1.373-.1A30.636,30.636,0,0,0,12.44,66.563a1.14,1.14,0,0,0,.3,1.291c7.808,8.541,17.524,12.824,29.453,13.112m-.339-35A15.3,15.3,0,1,0,26.5,30.676a15.322,15.322,0,0,0,15.35,15.293"/>
</svg>
